<?xml version="1.0" encoding="utf-8"?>
<!-- Generator: Adobe Illustrator 17.1.0, SVG Export Plug-In . SVG Version: 6.00 Build 0)  -->
<!DOCTYPE svg PUBLIC "-//W3C//DTD SVG 1.1//EN" "http://www.w3.org/Graphics/SVG/1.1/DTD/svg11.dtd">
<svg version="1.1" id="Layer_1" xmlns="http://www.w3.org/2000/svg" xmlns:xlink="http://www.w3.org/1999/xlink" x="0px" y="0px"
	 viewBox="0 0 626 186" enable-background="new 0 0 626 186" xml:space="preserve">
<path fill="none" stroke="#FFFFFF" stroke-width="3" d="M623,3h-40c-20,0-20,20-20,20s0,20-20,20s-20-20-20-20s0-20-20-20
	s-20,20-20,20"/>
<path fill="none" stroke="#FFFFFF" stroke-width="3" d="M463,3l-20,20L423,3c0,0,0,0-20.5,19.5L383,3l-20,20L343,3l-20,20L303,3
	l-20,20L263,3l-20,20L223,3l-20,20L183,3l-20,19L143,2l-20,20l20,20l-20,20l20,20"/>
<path fill="none" stroke="#FFFFFF" stroke-width="3" d="M83,183v-40H63v40c0,0-16.3,0-20,0v-40H23l0,40c0,0-20,0-20,0l0-40"/>
<polyline fill="none" stroke="#FFFFFF" stroke-width="3" points="3,63 43,43 83,63 "/>
<polyline fill="none" stroke="#FFFFFF" stroke-width="3" points="3,43 43,23 83,43 "/>
<polyline fill="none" stroke="#FFFFFF" stroke-width="3" points="3,23 43,3 83,23 "/>
<path fill="none" stroke="#FFFFFF" stroke-width="3" d="M623,23h-40c0,0,0,40-40,40s-40-40-40-40v40l0,19"/>
<path fill="none" stroke="#FFFFFF" stroke-width="3" d="M203,163c0,0,0,20,20,20s20-20,20-20s0,20,20,20s20-20,20-20s0,20,20,20
	s20-20,20-20s0,20,20,20s20-20,20-20"/>
<path fill="none" stroke="#FFFFFF" stroke-width="3" d="M523,168c0,20,20,20,20,0s0-46,0-66s20-20,20,0c0,0,0,46,0,66s20,20,20,0
	s0-71,0-91s20-20,20,0s0,71,0,91s20,20,20,0s0-132.5,0-132.5"/>
<path fill="none" stroke="#FFFFFF" stroke-width="3" d="M3,83c0,0,60,0,80,0s20,20,0,20s-40,0-60,0s-20,20,0,20s60,0,60,0
	s20,0,20,20s0,20,0,20h20l0,20h20v-20h20v20h20v-20"/>
<polyline fill="none" stroke="#FFFFFF" stroke-width="3" points="383,183 383,163 403,163 403,183 423,183 423,163 443,163 443,183 
	463,183 463,163 483,163 483,183 503,183 503,163 "/>
<line fill="none" stroke="#FFFFFF" stroke-width="3" x1="103" y1="2" x2="103" y2="62"/>
</svg>
