<?xml version="1.0" encoding="utf-8"?>
<!-- Generator: Adobe Illustrator 17.1.0, SVG Export Plug-In . SVG Version: 6.00 Build 0)  -->
<!DOCTYPE svg PUBLIC "-//W3C//DTD SVG 1.1//EN" "http://www.w3.org/Graphics/SVG/1.1/DTD/svg11.dtd">
<svg version="1.1" id="Layer_1" xmlns="http://www.w3.org/2000/svg" xmlns:xlink="http://www.w3.org/1999/xlink" x="0px" y="0px"
	 viewBox="0 0 585.3 106" enable-background="new 0 0 585.3 106" xml:space="preserve">
<line fill="#FFFFFF" stroke="#FFFFFF" stroke-width="3" stroke-miterlimit="10" x1="2.3" y1="23" x2="82.3" y2="103"/>
<line fill="#FFFFFF" stroke="#FFFFFF" stroke-width="3" stroke-miterlimit="10" x1="2.3" y1="63" x2="42.3" y2="103"/>
<line fill="#FFFFFF" stroke="#FFFFFF" stroke-width="3" stroke-miterlimit="10" x1="22.3" y1="3" x2="122.3" y2="103"/>
<polyline fill="#FFFFFF" stroke="#FFFFFF" stroke-width="3" stroke-miterlimit="10" points="62.3,3 122.3,63 162.3,103 "/>
<polyline fill="#FFFFFF" stroke="#FFFFFF" stroke-width="3" stroke-miterlimit="10" points="102.3,3 122.3,23 202.3,103 "/>
<line fill="#FFFFFF" stroke="#FFFFFF" stroke-width="3" stroke-miterlimit="10" x1="422.3" y1="3" x2="522.3" y2="103"/>
<line fill="#FFFFFF" stroke="#FFFFFF" stroke-width="3" stroke-miterlimit="10" x1="462.3" y1="3" x2="562.3" y2="103"/>
<line fill="#FFFFFF" stroke="#FFFFFF" stroke-width="3" stroke-miterlimit="10" x1="502.3" y1="3" x2="582.3" y2="83"/>
<line fill="#FFFFFF" stroke="#FFFFFF" stroke-width="3" stroke-miterlimit="10" x1="142.3" y1="3" x2="242.3" y2="103"/>
<line fill="#FFFFFF" stroke="#FFFFFF" stroke-width="3" stroke-miterlimit="10" x1="182.3" y1="3" x2="282.3" y2="103"/>
<line fill="#FFFFFF" stroke="#FFFFFF" stroke-width="3" stroke-miterlimit="10" x1="222.3" y1="3" x2="322.3" y2="103"/>
<line fill="#FFFFFF" stroke="#FFFFFF" stroke-width="3" stroke-miterlimit="10" x1="262.3" y1="3" x2="362.3" y2="103"/>
<line fill="#FFFFFF" stroke="#FFFFFF" stroke-width="3" stroke-miterlimit="10" x1="302.3" y1="3" x2="402.3" y2="103"/>
<line fill="#FFFFFF" stroke="#FFFFFF" stroke-width="3" stroke-miterlimit="10" x1="342.3" y1="3" x2="442.3" y2="103"/>
<line fill="#FFFFFF" stroke="#FFFFFF" stroke-width="3" stroke-miterlimit="10" x1="382.3" y1="3" x2="482.3" y2="103"/>
<line fill="#FFFFFF" stroke="#FFFFFF" stroke-width="3" stroke-miterlimit="10" x1="542.3" y1="3" x2="582.3" y2="43"/>
<rect x="122.3" y="23" fill="#E74652" width="343.5" height="60.2"/>
<rect x="21.3" y="34.6" fill="none" width="542" height="46.4"/>
<text transform="matrix(1 0 0 1 127.3665 74.6406)" fill="#FFFFFF" font-family="'ProximaNovaA-Bold'" font-size="60">~ ARTISTS ~</text>
</svg>
