<?xml version="1.0" encoding="utf-8"?>
<!-- Generator: Adobe Illustrator 17.1.0, SVG Export Plug-In . SVG Version: 6.00 Build 0)  -->
<!DOCTYPE svg PUBLIC "-//W3C//DTD SVG 1.1//EN" "http://www.w3.org/Graphics/SVG/1.1/DTD/svg11.dtd">
<svg version="1.1" id="Layer_1" xmlns="http://www.w3.org/2000/svg" xmlns:xlink="http://www.w3.org/1999/xlink" x="0px" y="0px"
	 viewBox="0 0 625.3 186" enable-background="new 0 0 625.3 186" xml:space="preserve">
<path fill="none" stroke="#FFFFFF" stroke-width="3" d="M622.3,2.7h-40c-20,0-20,20-20,20s0,20-20,20s-20-20-20-20s0-8.5-5.6-14.4
	c-3-3.1-7.5-5.6-14.4-5.6c-20,0-20,20-20,20"/>
<path fill="none" stroke="#FFFFFF" stroke-width="3" d="M462.3,2.7l-20,20l-20-20c0,0,0,0-20.5,19.5L382.3,2.7l-20,20l-20-20l-20,20
	l-20-20l-20,20l-20-20l-20,20l-20-20l-20,20l-20-20l-20,20l-20-20l-20,20l20,20l-20,20l20,20"/>
<path fill="none" stroke="#FFFFFF" stroke-width="3" d="M82.3,182.7v-40h-20v40c0,0-16.3,0-20,0v-40h-20l0,40c0,0-20,0-20,0l0-40"/>
<polyline fill="none" stroke="#FFFFFF" stroke-width="3" points="2.3,62.7 42.3,42.7 82.3,62.7 "/>
<polyline fill="none" stroke="#FFFFFF" stroke-width="3" points="2.3,42.7 42.3,22.7 82.3,42.7 "/>
<polyline fill="none" stroke="#FFFFFF" stroke-width="3" points="2.3,22.7 42.3,2.7 82.3,22.7 "/>
<path fill="none" stroke="#FFFFFF" stroke-width="3" d="M622.3,22.7h-40c0,0,0,40-40,40s-40-40-40-40v41l0,19"/>
<path fill="none" stroke="#FFFFFF" stroke-width="3" d="M202.3,162.7c0,0,0,20,20,20s20-20,20-20s0,20,20,20s20-20,20-20s0,20,20,20
	s20-20,20-20s0,20,20,20s20-20,20-20"/>
<path fill="none" stroke="#FFFFFF" stroke-width="3" d="M622.3,36.2v126.5c0,0,0,10-10,10s-10-10-10-10v-90c0,0,0-10-10-10
	s-10,10-10,10v90c0,0,0,10-10,10s-10-10-10-10v-60c0,0,0-10-10-10s-10,10-10,10v60c0,0,0,10-10,10s-10-10-10-10"/>
<path fill="none" stroke="#FFFFFF" stroke-width="3" d="M2.3,82.7h80c0,0,10,0,10,10s-10,10-10,10h-60c0,0-10,0-10,10s10,10,10,10
	h60c0,0,20,0,20,20s0,20,0,20h20l0,20h20v-20h20v20h20v-20"/>
<polyline fill="none" stroke="#FFFFFF" stroke-width="3" points="382.3,182.7 382.3,162.7 402.3,162.7 402.3,182.7 422.3,182.7 
	422.3,162.7 442.3,162.7 442.3,182.7 462.3,182.7 462.3,162.7 482.3,162.7 482.3,182.7 502.3,182.7 502.3,162.7 "/>
<line fill="none" stroke="#FFFFFF" stroke-width="3" x1="102.3" y1="2.7" x2="102.3" y2="62.7"/>
</svg>
