<?xml version="1.0" encoding="utf-8"?>
<!-- Generator: Adobe Illustrator 17.1.0, SVG Export Plug-In . SVG Version: 6.00 Build 0)  -->
<!DOCTYPE svg PUBLIC "-//W3C//DTD SVG 1.1//EN" "http://www.w3.org/Graphics/SVG/1.1/DTD/svg11.dtd">
<svg version="1.1" id="Layer_1" xmlns="http://www.w3.org/2000/svg" xmlns:xlink="http://www.w3.org/1999/xlink" x="0px" y="0px"
	 viewBox="0 0 586 106" enable-background="new 0 0 586 106" xml:space="preserve">
<line fill="none" stroke="#FFFFFF" stroke-width="3" stroke-miterlimit="10" x1="3" y1="3" x2="23" y2="23"/>
<line fill="none" stroke="#FFFFFF" stroke-width="3" stroke-miterlimit="10" x1="43" y1="3" x2="63" y2="23"/>
<line fill="none" stroke="#FFFFFF" stroke-width="3" stroke-miterlimit="10" x1="83" y1="3" x2="103" y2="23"/>
<line fill="none" stroke="#FFFFFF" stroke-width="3" stroke-miterlimit="10" x1="123" y1="3" x2="143" y2="23"/>
<line fill="none" stroke="#FFFFFF" stroke-width="3" stroke-miterlimit="10" x1="163" y1="3" x2="183" y2="23"/>
<line fill="none" stroke="#FFFFFF" stroke-width="3" stroke-miterlimit="10" x1="203" y1="3" x2="223" y2="23"/>
<line fill="none" stroke="#FFFFFF" stroke-width="3" stroke-miterlimit="10" x1="243" y1="3" x2="263" y2="23"/>
<line fill="none" stroke="#FFFFFF" stroke-width="3" stroke-miterlimit="10" x1="283" y1="3" x2="303" y2="23"/>
<line fill="none" stroke="#FFFFFF" stroke-width="3" stroke-miterlimit="10" x1="323" y1="3" x2="343" y2="23"/>
<line fill="none" stroke="#FFFFFF" stroke-width="3" stroke-miterlimit="10" x1="363" y1="3" x2="383" y2="23"/>
<line fill="none" stroke="#FFFFFF" stroke-width="3" stroke-miterlimit="10" x1="403" y1="3" x2="423" y2="23"/>
<line fill="none" stroke="#FFFFFF" stroke-width="3" stroke-miterlimit="10" x1="443" y1="3" x2="463" y2="23"/>
<line fill="none" stroke="#FFFFFF" stroke-width="3" stroke-miterlimit="10" x1="483" y1="3" x2="503" y2="23"/>
<line fill="none" stroke="#FFFFFF" stroke-width="3" stroke-miterlimit="10" x1="523" y1="3" x2="543" y2="23"/>
<line fill="none" stroke="#FFFFFF" stroke-width="3" stroke-miterlimit="10" x1="563" y1="3" x2="583" y2="23"/>
<line fill="none" stroke="#FFFFFF" stroke-width="3" stroke-miterlimit="10" x1="23" y1="63" x2="43" y2="43"/>
<line fill="none" stroke="#FFFFFF" stroke-width="3" stroke-miterlimit="10" x1="63" y1="63" x2="83" y2="43"/>
<line fill="none" stroke="#FFFFFF" stroke-width="3" stroke-miterlimit="10" x1="103" y1="63" x2="123" y2="43"/>
<line fill="none" stroke="#FFFFFF" stroke-width="3" stroke-miterlimit="10" x1="143" y1="63" x2="163" y2="43"/>
<line fill="none" stroke="#FFFFFF" stroke-width="3" stroke-miterlimit="10" x1="183" y1="63" x2="203" y2="43"/>
<line fill="none" stroke="#FFFFFF" stroke-width="3" stroke-miterlimit="10" x1="223" y1="63" x2="243" y2="43"/>
<line fill="none" stroke="#FFFFFF" stroke-width="3" stroke-miterlimit="10" x1="263" y1="63" x2="283" y2="43"/>
<line fill="none" stroke="#FFFFFF" stroke-width="3" stroke-miterlimit="10" x1="303" y1="63" x2="323" y2="43"/>
<line fill="none" stroke="#FFFFFF" stroke-width="3" stroke-miterlimit="10" x1="343" y1="63" x2="363" y2="43"/>
<line fill="none" stroke="#FFFFFF" stroke-width="3" stroke-miterlimit="10" x1="383" y1="63" x2="403" y2="43"/>
<line fill="none" stroke="#FFFFFF" stroke-width="3" stroke-miterlimit="10" x1="423" y1="63" x2="443" y2="43"/>
<line fill="none" stroke="#FFFFFF" stroke-width="3" stroke-miterlimit="10" x1="463" y1="63" x2="483" y2="43"/>
<line fill="none" stroke="#FFFFFF" stroke-width="3" stroke-miterlimit="10" x1="503" y1="63" x2="523" y2="43"/>
<line fill="none" stroke="#FFFFFF" stroke-width="3" stroke-miterlimit="10" x1="543" y1="63" x2="563" y2="43"/>
<line fill="none" stroke="#FFFFFF" stroke-width="3" stroke-miterlimit="10" x1="3" y1="83" x2="23" y2="103"/>
<line fill="none" stroke="#FFFFFF" stroke-width="3" stroke-miterlimit="10" x1="43" y1="83" x2="63" y2="103"/>
<line fill="none" stroke="#FFFFFF" stroke-width="3" stroke-miterlimit="10" x1="83" y1="83" x2="103" y2="103"/>
<line fill="none" stroke="#FFFFFF" stroke-width="3" stroke-miterlimit="10" x1="123" y1="83" x2="143" y2="103"/>
<line fill="none" stroke="#FFFFFF" stroke-width="3" stroke-miterlimit="10" x1="163" y1="83" x2="183" y2="103"/>
<line fill="none" stroke="#FFFFFF" stroke-width="3" stroke-miterlimit="10" x1="203" y1="83" x2="223" y2="103"/>
<line fill="none" stroke="#FFFFFF" stroke-width="3" stroke-miterlimit="10" x1="243" y1="83" x2="263" y2="103"/>
<line fill="none" stroke="#FFFFFF" stroke-width="3" stroke-miterlimit="10" x1="283" y1="83" x2="303" y2="103"/>
<line fill="none" stroke="#FFFFFF" stroke-width="3" stroke-miterlimit="10" x1="323" y1="83" x2="343" y2="103"/>
<line fill="none" stroke="#FFFFFF" stroke-width="3" stroke-miterlimit="10" x1="363" y1="83" x2="383" y2="103"/>
<line fill="none" stroke="#FFFFFF" stroke-width="3" stroke-miterlimit="10" x1="403" y1="83" x2="423" y2="103"/>
<line fill="none" stroke="#FFFFFF" stroke-width="3" stroke-miterlimit="10" x1="443" y1="83" x2="463" y2="103"/>
<line fill="none" stroke="#FFFFFF" stroke-width="3" stroke-miterlimit="10" x1="483" y1="83" x2="503" y2="103"/>
<line fill="none" stroke="#FFFFFF" stroke-width="3" stroke-miterlimit="10" x1="523" y1="83" x2="543" y2="103"/>
<line fill="none" stroke="#FFFFFF" stroke-width="3" stroke-miterlimit="10" x1="563" y1="83" x2="583" y2="103"/>
<rect x="58" y="18" fill="#E74652" width="470" height="71"/>
<g>
	<path fill="#FFFFFF" d="M95.7,34.6c-0.6,7.2-2.2,14.7-8.9,14.7c-7.8,0-6.1-10.6-9.7-10.6c-2.4,0-3.3,5.4-3.7,10.6l-5.2-0.6
		c0.6-7.1,2.3-14.6,8.9-14.6c7.8,0,6.1,10.6,9.7,10.6c2.4,0,3.3-5.3,3.7-10.7L95.7,34.6z"/>
	<path fill="#FFFFFF" d="M116.7,74V34H145v7.5h-19.8v8.4h19.4v7.5h-19.4V74H116.7z"/>
	<path fill="#FFFFFF" d="M176,74l-2.5-6.8h-17.2l-2.5,6.8h-9.7l15.4-40h10.7l15.4,40H176z M164.9,42.5l-6.2,17.2h12.5L164.9,42.5z"
		/>
	<path fill="#FFFFFF" d="M197.8,74l-15.4-40h9.7l11.1,30.7L214.2,34h9.7l-15.4,40H197.8z"/>
	<path fill="#FFFFFF" d="M224.5,54c0-12.1,8.8-20.7,20.9-20.7c12.1,0,20.9,8.6,20.9,20.7c0,12.1-8.8,20.7-20.9,20.7
		C233.3,74.7,224.5,66.1,224.5,54z M257.5,54c0-7.5-4.7-13.1-12.1-13.1c-7.4,0-12.2,5.6-12.2,13.1c0,7.4,4.7,13.1,12.2,13.1
		C252.8,67.2,257.5,61.5,257.5,54z"/>
	<path fill="#FFFFFF" d="M272.3,58V34h8.6v23.8c0,5.6,3.2,9.4,9.4,9.4c6.2,0,9.4-3.8,9.4-9.4V34h8.7v24c0,9.9-5.9,16.7-18.1,16.7
		C278.2,74.7,272.3,67.9,272.3,58z"/>
	<path fill="#FFFFFF" d="M339,74l-7.9-14.2h-6.2V74h-8.5V34h18.7c8.3,0,13.5,5.5,13.5,12.9c0,7-4.5,10.9-8.8,11.9l9.1,15.2H339z
		 M339.8,46.8c0-3.3-2.6-5.3-5.9-5.3h-9v10.8h9C337.2,52.3,339.8,50.2,339.8,46.8z"/>
	<path fill="#FFFFFF" d="M354.9,74V34h8.5v40H354.9z"/>
	<path fill="#FFFFFF" d="M380.6,74V41.5h-11.7V34h31.9v7.5h-11.6V74H380.6z"/>
	<path fill="#FFFFFF" d="M406.3,74V34h28.3v7.5h-19.8v8.4h19.4v7.5h-19.4v9.1h19.8V74H406.3z"/>
	<path fill="#FFFFFF" d="M438.5,68.4l4.7-6.7c2.8,2.9,7.2,5.5,12.7,5.5c4.7,0,7-2.1,7-4.4c0-7-23-2.1-23-17.2
		c0-6.7,5.8-12.2,15.2-12.2c6.4,0,11.6,1.9,15.6,5.6l-4.7,6.4c-3.2-3-7.6-4.4-11.6-4.4c-3.6,0-5.6,1.6-5.6,4c0,6.3,23,2,23,17
		c0,7.3-5.3,12.8-16,12.8C447.8,74.7,442.3,72.1,438.5,68.4z"/>
	<path fill="#FFFFFF" d="M517.8,34.6c-0.6,7.2-2.2,14.7-8.9,14.7c-7.8,0-6.1-10.6-9.7-10.6c-2.4,0-3.3,5.4-3.7,10.6l-5.2-0.6
		c0.6-7.1,2.3-14.6,8.9-14.6c7.8,0,6.1,10.6,9.7,10.6c2.4,0,3.3-5.3,3.7-10.7L517.8,34.6z"/>
</g>
</svg>
