<?xml version="1.0" encoding="utf-8"?>
<!-- Generator: Adobe Illustrator 17.1.0, SVG Export Plug-In . SVG Version: 6.00 Build 0)  -->
<!DOCTYPE svg PUBLIC "-//W3C//DTD SVG 1.1//EN" "http://www.w3.org/Graphics/SVG/1.1/DTD/svg11.dtd">
<svg version="1.1" id="Layer_1" xmlns="http://www.w3.org/2000/svg" xmlns:xlink="http://www.w3.org/1999/xlink" x="0px" y="0px"
	 viewBox="0 0 586 105.3" enable-background="new 0 0 586 105.3" xml:space="preserve">
<line fill="none" stroke="#FFFFFF" stroke-width="3" stroke-miterlimit="10" x1="3" y1="2.3" x2="23" y2="22.3"/>
<line fill="none" stroke="#FFFFFF" stroke-width="3" stroke-miterlimit="10" x1="43" y1="2.3" x2="63" y2="22.3"/>
<line fill="none" stroke="#FFFFFF" stroke-width="3" stroke-miterlimit="10" x1="83" y1="2.3" x2="103" y2="22.3"/>
<line fill="none" stroke="#FFFFFF" stroke-width="3" stroke-miterlimit="10" x1="123" y1="2.3" x2="143" y2="22.3"/>
<line fill="none" stroke="#FFFFFF" stroke-width="3" stroke-miterlimit="10" x1="163" y1="2.3" x2="183" y2="22.3"/>
<line fill="none" stroke="#FFFFFF" stroke-width="3" stroke-miterlimit="10" x1="203" y1="2.3" x2="223" y2="22.3"/>
<line fill="none" stroke="#FFFFFF" stroke-width="3" stroke-miterlimit="10" x1="243" y1="2.3" x2="263" y2="22.3"/>
<line fill="none" stroke="#FFFFFF" stroke-width="3" stroke-miterlimit="10" x1="283" y1="2.3" x2="303" y2="22.3"/>
<line fill="none" stroke="#FFFFFF" stroke-width="3" stroke-miterlimit="10" x1="323" y1="2.3" x2="343" y2="22.3"/>
<line fill="none" stroke="#FFFFFF" stroke-width="3" stroke-miterlimit="10" x1="363" y1="2.3" x2="383" y2="22.3"/>
<line fill="none" stroke="#FFFFFF" stroke-width="3" stroke-miterlimit="10" x1="403" y1="2.3" x2="423" y2="22.3"/>
<line fill="none" stroke="#FFFFFF" stroke-width="3" stroke-miterlimit="10" x1="443" y1="2.3" x2="463" y2="22.3"/>
<line fill="none" stroke="#FFFFFF" stroke-width="3" stroke-miterlimit="10" x1="483" y1="2.3" x2="503" y2="22.3"/>
<line fill="none" stroke="#FFFFFF" stroke-width="3" stroke-miterlimit="10" x1="523" y1="2.3" x2="543" y2="22.3"/>
<line fill="none" stroke="#FFFFFF" stroke-width="3" stroke-miterlimit="10" x1="563" y1="2.3" x2="583" y2="22.3"/>
<line fill="none" stroke="#FFFFFF" stroke-width="3" stroke-miterlimit="10" x1="23" y1="62.3" x2="43" y2="42.3"/>
<line fill="none" stroke="#FFFFFF" stroke-width="3" stroke-miterlimit="10" x1="63" y1="62.3" x2="83" y2="42.3"/>
<line fill="none" stroke="#FFFFFF" stroke-width="3" stroke-miterlimit="10" x1="103" y1="62.3" x2="123" y2="42.3"/>
<line fill="none" stroke="#FFFFFF" stroke-width="3" stroke-miterlimit="10" x1="143" y1="62.3" x2="163" y2="42.3"/>
<line fill="none" stroke="#FFFFFF" stroke-width="3" stroke-miterlimit="10" x1="183" y1="62.3" x2="203" y2="42.3"/>
<line fill="none" stroke="#FFFFFF" stroke-width="3" stroke-miterlimit="10" x1="223" y1="62.3" x2="243" y2="42.3"/>
<line fill="none" stroke="#FFFFFF" stroke-width="3" stroke-miterlimit="10" x1="263" y1="62.3" x2="283" y2="42.3"/>
<line fill="none" stroke="#FFFFFF" stroke-width="3" stroke-miterlimit="10" x1="303" y1="62.3" x2="323" y2="42.3"/>
<line fill="none" stroke="#FFFFFF" stroke-width="3" stroke-miterlimit="10" x1="343" y1="62.3" x2="363" y2="42.3"/>
<line fill="none" stroke="#FFFFFF" stroke-width="3" stroke-miterlimit="10" x1="383" y1="62.3" x2="403" y2="42.3"/>
<line fill="none" stroke="#FFFFFF" stroke-width="3" stroke-miterlimit="10" x1="423" y1="62.3" x2="443" y2="42.3"/>
<line fill="none" stroke="#FFFFFF" stroke-width="3" stroke-miterlimit="10" x1="463" y1="62.3" x2="483" y2="42.3"/>
<line fill="none" stroke="#FFFFFF" stroke-width="3" stroke-miterlimit="10" x1="503" y1="62.3" x2="523" y2="42.3"/>
<line fill="none" stroke="#FFFFFF" stroke-width="3" stroke-miterlimit="10" x1="543" y1="62.3" x2="563" y2="42.3"/>
<line fill="none" stroke="#FFFFFF" stroke-width="3" stroke-miterlimit="10" x1="3" y1="82.3" x2="23" y2="102.3"/>
<line fill="none" stroke="#FFFFFF" stroke-width="3" stroke-miterlimit="10" x1="43" y1="82.3" x2="63" y2="102.3"/>
<line fill="none" stroke="#FFFFFF" stroke-width="3" stroke-miterlimit="10" x1="83" y1="82.3" x2="103" y2="102.3"/>
<line fill="none" stroke="#FFFFFF" stroke-width="3" stroke-miterlimit="10" x1="123" y1="82.3" x2="143" y2="102.3"/>
<line fill="none" stroke="#FFFFFF" stroke-width="3" stroke-miterlimit="10" x1="163" y1="82.3" x2="183" y2="102.3"/>
<line fill="none" stroke="#FFFFFF" stroke-width="3" stroke-miterlimit="10" x1="203" y1="82.3" x2="223" y2="102.3"/>
<line fill="none" stroke="#FFFFFF" stroke-width="3" stroke-miterlimit="10" x1="243" y1="82.3" x2="263" y2="102.3"/>
<line fill="none" stroke="#FFFFFF" stroke-width="3" stroke-miterlimit="10" x1="283" y1="82.3" x2="303" y2="102.3"/>
<line fill="none" stroke="#FFFFFF" stroke-width="3" stroke-miterlimit="10" x1="323" y1="82.3" x2="343" y2="102.3"/>
<line fill="none" stroke="#FFFFFF" stroke-width="3" stroke-miterlimit="10" x1="363" y1="82.3" x2="383" y2="102.3"/>
<line fill="none" stroke="#FFFFFF" stroke-width="3" stroke-miterlimit="10" x1="403" y1="82.3" x2="423" y2="102.3"/>
<line fill="none" stroke="#FFFFFF" stroke-width="3" stroke-miterlimit="10" x1="443" y1="82.3" x2="463" y2="102.3"/>
<line fill="none" stroke="#FFFFFF" stroke-width="3" stroke-miterlimit="10" x1="483" y1="82.3" x2="503" y2="102.3"/>
<line fill="none" stroke="#FFFFFF" stroke-width="3" stroke-miterlimit="10" x1="523" y1="82.3" x2="543" y2="102.3"/>
<line fill="none" stroke="#FFFFFF" stroke-width="3" stroke-miterlimit="10" x1="563" y1="82.3" x2="583" y2="102.3"/>
<rect x="58" y="17.3" fill="#E74652" width="470" height="71"/>
<text transform="matrix(1 0 0 1 63.3833 73.3333)" fill="#FFFFFF" font-family="'ProximaNovaA-Bold'" font-size="60">~ FAVOURITES ~</text>
</svg>
