<?xml version="1.0" encoding="utf-8"?>
<!-- Generator: Adobe Illustrator 17.1.0, SVG Export Plug-In . SVG Version: 6.00 Build 0)  -->
<!DOCTYPE svg PUBLIC "-//W3C//DTD SVG 1.1//EN" "http://www.w3.org/Graphics/SVG/1.1/DTD/svg11.dtd">
<svg version="1.1" id="Layer_1" xmlns="http://www.w3.org/2000/svg" xmlns:xlink="http://www.w3.org/1999/xlink" x="0px" y="0px"
	 viewBox="0 0 586 106" enable-background="new 0 0 586 106" xml:space="preserve">
<polyline fill="none" stroke="#FFFFFF" stroke-width="3" points="583,23 563,3 543,23 523,3 503,23 483,3 463,23 443,3 423,23 
	403,3 383,23 363,3 343,23 323,3 303,23 283,3 263,23 243,3 223,23 203,3 183,23 163,3 143,23 123,3 103,23 83,3 63,23 43,3 23,23 
	3,3 "/>
<polyline fill="none" stroke="#FFFFFF" stroke-width="3" points="583,63 563,43 543,63 523,43 503,63 483,43 463,63 443,43 423,63 
	403,43 383,63 363,43 343,63 323,43 303,63 283,43 263,63 243,43 223,63 203,43 183,63 163,43 143,63 123,43 103,63 83,43 63,63 
	43,43 23,63 3,43 "/>
<polyline fill="none" stroke="#FFFFFF" stroke-width="3" points="583,103 563,83 543,103 523,83 503,103 483,83 463,103 443,83 
	423,103 403,83 383,103 363,83 343,103 323,83 303,103 283,83 263,103 243,83 223,103 203,83 183,103 163,83 143,103 123,83 
	103,103 83,83 63,103 43,83 23,103 3,83 "/>
<rect x="165" y="13" fill="#E74652" width="255" height="78"/>
<g>
	<path fill="#FFFFFF" d="M205.9,32.6c-0.6,7.2-2.2,14.7-8.9,14.7c-7.8,0-6.1-10.6-9.7-10.6c-2.4,0-3.3,5.4-3.7,10.6l-5.2-0.6
		c0.6-7.1,2.3-14.6,8.9-14.6c7.8,0,6.1,10.6,9.7,10.6c2.4,0,3.3-5.3,3.7-10.7L205.9,32.6z"/>
	<path fill="#FFFFFF" d="M226.8,72V32h8.5v40H226.8z"/>
	<path fill="#FFFFFF" d="M270.8,72l-19.1-26.1V72h-8.5V32h8.8l18.5,25.1V32h8.5v40H270.8z"/>
	<path fill="#FFFFFF" d="M287,72V32h28.3v7.5h-19.8v8.4h19.4v7.5h-19.4V72H287z"/>
	<path fill="#FFFFFF" d="M319.3,52c0-12.1,8.8-20.7,20.9-20.7c12.1,0,20.9,8.6,20.9,20.7c0,12.1-8.8,20.7-20.9,20.7
		C328.1,72.7,319.3,64.1,319.3,52z M352.4,52c0-7.5-4.7-13.1-12.1-13.1c-7.4,0-12.2,5.6-12.2,13.1c0,7.4,4.7,13.1,12.2,13.1
		C347.6,65.2,352.4,59.5,352.4,52z"/>
	<path fill="#FFFFFF" d="M407.6,32.6c-0.6,7.2-2.2,14.7-8.9,14.7c-7.8,0-6.1-10.6-9.7-10.6c-2.4,0-3.3,5.4-3.7,10.6l-5.2-0.6
		c0.6-7.1,2.3-14.6,8.9-14.6c7.8,0,6.1,10.6,9.7,10.6c2.4,0,3.3-5.3,3.7-10.7L407.6,32.6z"/>
</g>
</svg>
