<?xml version="1.0" encoding="utf-8"?>
<!-- Generator: Adobe Illustrator 17.1.0, SVG Export Plug-In . SVG Version: 6.00 Build 0)  -->
<!DOCTYPE svg PUBLIC "-//W3C//DTD SVG 1.1//EN" "http://www.w3.org/Graphics/SVG/1.1/DTD/svg11.dtd">
<svg version="1.1" id="Layer_1" xmlns="http://www.w3.org/2000/svg" xmlns:xlink="http://www.w3.org/1999/xlink" x="0px" y="0px"
	 viewBox="0 0 586 107.3" enable-background="new 0 0 586 107.3" xml:space="preserve">
<polyline fill="none" stroke="#FFFFFF" stroke-width="3" points="583,23.7 563,3.7 543,23.7 523,3.7 503,23.7 483,3.7 463,23.7 
	443,3.7 423,23.7 403,3.7 383,23.7 363,3.7 343,23.7 323,3.7 303,23.7 283,3.7 263,23.7 243,3.7 223,23.7 203,3.7 183,23.7 163,3.7 
	143,23.7 123,3.7 103,23.7 83,3.7 63,23.7 43,3.7 23,23.7 3,3.7 "/>
<polyline fill="none" stroke="#FFFFFF" stroke-width="3" points="583,63.7 563,43.7 543,63.7 523,43.7 503,63.7 483,43.7 463,63.7 
	443,43.7 423,63.7 403,43.7 383,63.7 363,43.7 343,63.7 323,43.7 303,63.7 283,43.7 263,63.7 243,43.7 223,63.7 203,43.7 183,63.7 
	163,43.7 143,63.7 123,43.7 103,63.7 83,43.7 63,63.7 43,43.7 23,63.7 3,43.7 "/>
<polyline fill="none" stroke="#FFFFFF" stroke-width="3" points="583,103.7 563,83.7 543,103.7 523,83.7 503,103.7 483,83.7 
	463,103.7 443,83.7 423,103.7 403,83.7 383,103.7 363,83.7 343,103.7 323,83.7 303,103.7 283,83.7 263,103.7 243,83.7 223,103.7 
	203,83.7 183,103.7 163,83.7 143,103.7 123,83.7 103,103.7 83,83.7 63,103.7 43,83.7 23,103.7 3,83.7 "/>
</svg>
