<?xml version="1.0" encoding="utf-8"?>
<!-- Generator: Adobe Illustrator 17.1.0, SVG Export Plug-In . SVG Version: 6.00 Build 0)  -->
<!DOCTYPE svg PUBLIC "-//W3C//DTD SVG 1.1//EN" "http://www.w3.org/Graphics/SVG/1.1/DTD/svg11.dtd">
<svg version="1.1" id="Layer_1" xmlns="http://www.w3.org/2000/svg" xmlns:xlink="http://www.w3.org/1999/xlink" x="0px" y="0px"
	 viewBox="0 0 585.3 106" enable-background="new 0 0 585.3 106" xml:space="preserve">
<path fill="none" stroke="#FFFFFF" stroke-width="3" stroke-miterlimit="10" d="M2.7,3c0,0,0,20,20,20s20-20,20-20s0,20,20,20
	s20-20,20-20s0,20,20,20s20-20,20-20s0,20,20,20s20-20,20-20s0,20,20,20s20-20,20-20s0,20,20,20s20-20,20-20s0,20,20,20s20-20,20-20
	s0,20,20,20s20-20,20-20s0,20,20,20s20-20,20-20s0,20,20,20s20-20,20-20s0,20,20,20s20-20,20-20s0,20,20,20s20-20,20-20s0,20,20,20
	c20,0,20-20,20-20s0,20,20,20s20-20,20-20s0,20,20,20"/>
<path fill="none" stroke="#FFFFFF" stroke-width="3" stroke-miterlimit="10" d="M2.7,43c0,0,0,20,20,20s20-20,20-20s0,20,20,20
	s20-20,20-20s0,20,20,20s20-20,20-20s0,20,20,20s20-20,20-20s0,20,20,20s20-20,20-20s0,20,20,20s20-20,20-20s0,20,20,20s20-20,20-20
	s0,20,20,20s20-20,20-20s0,20,20,20s20-20,20-20s0,20,20,20s20-20,20-20s0,20,20,20s20-20,20-20s0,20,20,20s20-20,20-20s0,20,20,20
	c20,0,20-20,20-20s0,20,20,20s20-20,20-20s0,20,20,20"/>
<path fill="none" stroke="#FFFFFF" stroke-width="3" stroke-miterlimit="10" d="M2.7,83c0,0,0,20,20,20s20-20,20-20s0,20,20,20
	s20-20,20-20s0,20,20,20s20-20,20-20s0,20,20,20s20-20,20-20s0,20,20,20s20-20,20-20s0,20,20,20s20-20,20-20s0,20,20,20s20-20,20-20
	s0,20,20,20s20-20,20-20s0,20,20,20s20-20,20-20s0,20,20,20s20-20,20-20s0,20,20,20s20-20,20-20s0,20,20,20s20-20,20-20s0,20,20,20
	c20,0,20-20,20-20s0,20,20,20s20-20,20-20s0,20,20,20"/>
<rect x="155.7" y="17" fill="#E74652" width="274" height="76"/>
<rect x="105.2" y="30" fill="none" width="375" height="50"/>
<text transform="matrix(1.0027 0 0 1 162.8927 76.6895)" fill="#FFFFFF" font-family="'ProximaNovaA-Bold'" font-size="70">~ MAP ~</text>
</svg>
