<?xml version="1.0" encoding="utf-8"?>
<!-- Generator: Adobe Illustrator 17.1.0, SVG Export Plug-In . SVG Version: 6.00 Build 0)  -->
<!DOCTYPE svg PUBLIC "-//W3C//DTD SVG 1.1//EN" "http://www.w3.org/Graphics/SVG/1.1/DTD/svg11.dtd">
<svg version="1.1" id="Layer_1" xmlns="http://www.w3.org/2000/svg" xmlns:xlink="http://www.w3.org/1999/xlink" x="0px" y="0px"
	 viewBox="0 0 586 106" enable-background="new 0 0 586 106" xml:space="preserve">
<path fill="none" stroke="#FFFFFF" stroke-width="3" stroke-miterlimit="10" d="M2.7,3c0,0,0,20,20,20s20-20,20-20s0,20,20,20
	s20-20,20-20s0,20,20,20s20-20,20-20s0,20,20,20s20-20,20-20s0,20,20,20s20-20,20-20s0,20,20,20s20-20,20-20s0,20,20,20s20-20,20-20
	s0,20,20,20s20-20,20-20s0,20,20,20s20-20,20-20s0,20,20,20s20-20,20-20s0,20,20,20s20-20,20-20s0,20,20,20s20-20,20-20s0,20,20,20
	c20,0,20-20,20-20s0,20,20,20s20-20,20-20s0,20,20,20"/>
<path fill="none" stroke="#FFFFFF" stroke-width="3" stroke-miterlimit="10" d="M2.7,43c0,0,0,20,20,20s20-20,20-20s0,20,20,20
	s20-20,20-20s0,20,20,20s20-20,20-20s0,20,20,20s20-20,20-20s0,20,20,20s20-20,20-20s0,20,20,20s20-20,20-20s0,20,20,20s20-20,20-20
	s0,20,20,20s20-20,20-20s0,20,20,20s20-20,20-20s0,20,20,20s20-20,20-20s0,20,20,20s20-20,20-20s0,20,20,20s20-20,20-20s0,20,20,20
	c20,0,20-20,20-20s0,20,20,20s20-20,20-20s0,20,20,20"/>
<path fill="none" stroke="#FFFFFF" stroke-width="3" stroke-miterlimit="10" d="M2.7,83c0,0,0,20,20,20s20-20,20-20s0,20,20,20
	s20-20,20-20s0,20,20,20s20-20,20-20s0,20,20,20s20-20,20-20s0,20,20,20s20-20,20-20s0,20,20,20s20-20,20-20s0,20,20,20s20-20,20-20
	s0,20,20,20s20-20,20-20s0,20,20,20s20-20,20-20s0,20,20,20s20-20,20-20s0,20,20,20s20-20,20-20s0,20,20,20s20-20,20-20s0,20,20,20
	c20,0,20-20,20-20s0,20,20,20s20-20,20-20s0,20,20,20"/>
<rect x="155.7" y="17" fill="#E74652" width="274" height="76"/>
<g>
	<path fill="#FFFFFF" d="M196.9,30.7c-0.7,8.4-2.5,17.2-10.4,17.2c-9.1,0-7.1-12.3-11.3-12.3c-2.8,0-3.9,6.3-4.4,12.3l-6.1-0.7
		c0.7-8.3,2.7-17.1,10.5-17.1c9.1,0,7.1,12.4,11.3,12.4c2.8,0,3.9-6.2,4.4-12.5L196.9,30.7z"/>
	<path fill="#FFFFFF" d="M262.1,76.7V43l-13.2,33.7h-4.4L231.3,43v33.7h-10V30h14l11.4,29.2L258.1,30h14v46.7H262.1z"/>
	<path fill="#FFFFFF" d="M313.7,76.7l-2.9-7.9h-20.1l-2.9,7.9h-11.3l18-46.7H307l18,46.7H313.7z M300.7,39.9L293.4,60H308
		L300.7,39.9z"/>
	<path fill="#FFFFFF" d="M329.4,76.7V30h21.9C361.5,30,367,36.9,367,45c0,8.1-5.6,15-15.7,15h-11.9v16.7H329.4z M356.8,45
		c0-3.9-3-6.3-6.9-6.3h-10.5v12.5h10.5C353.8,51.3,356.8,48.9,356.8,45z"/>
	<path fill="#FFFFFF" d="M420.6,30.7c-0.7,8.4-2.5,17.2-10.4,17.2c-9.1,0-7.1-12.3-11.3-12.3c-2.8,0-3.9,6.3-4.4,12.3l-6.1-0.7
		c0.7-8.3,2.7-17.1,10.5-17.1c9.1,0,7.1,12.4,11.3,12.4c2.8,0,3.9-6.2,4.4-12.5L420.6,30.7z"/>
</g>
</svg>
