<?xml version="1.0" encoding="utf-8"?>
<!-- Generator: Adobe Illustrator 17.1.0, SVG Export Plug-In . SVG Version: 6.00 Build 0)  -->
<!DOCTYPE svg PUBLIC "-//W3C//DTD SVG 1.1//EN" "http://www.w3.org/Graphics/SVG/1.1/DTD/svg11.dtd">
<svg version="1.1" id="Layer_1" xmlns="http://www.w3.org/2000/svg" xmlns:xlink="http://www.w3.org/1999/xlink" x="0px" y="0px"
	 viewBox="0 0 586 105.3" enable-background="new 0 0 586 105.3" xml:space="preserve">
<path fill="none" stroke="#FFFFFF" stroke-width="3" stroke-miterlimit="10" d="M3,2.3l0,90c0,0,0,10,10,10s10-10,10-10v-80
	c0,0,0-10,10-10s10,10,10,10v80c0,0,0,10,10,10s10-10,10-10v-80c0,0,0-10,10-10s10,10,10,10v80c0,0,0,10,10,10s10-10,10-10v-80
	c0,0,0-10,10-10s10,10,10,10v80c0,0,0,10,10,10s10-10,10-10v-80c0,0,0-10,10-10s10,10,10,10v80c0,0,0,10,10,10s10-10,10-10v-80
	c0,0,0-10,10-10s10,10,10,10v80c0,0,0,10,10,10s10-10,10-10v-80c0,0,0-10,10-10s10,10,10,10v80c0,0,0,10,10,10s10-10,10-10v-80
	c0,0,0-10,10-10s10,10,10,10v80c0,0,0,10,10,10s10-10,10-10v-80c0,0,0-10,10-10s10,10,10,10v80c0,0,0,10,10,10s10-10,10-10v-80
	c0,0,0-10,10-10s10,10,10,10v80c0,0,0,10,10,10s10-10,10-10v-80c0,0,0-10,10-10s10,10,10,10v80c0,0,0,10,10,10s10-10,10-10v-80
	c0,0,0-10,10-10s10,10,10,10v80c0,0,0,10,10,10s10-10,10-10v-80c0,0,0-10,10-10s10,10,10,10v80c0,0,0,10,10,10s10-10,10-10v-80
	c0,0,0-10,10-10s10,10,10,10v80c0,0,0,10,10,10s10-10,10-10v-80c0,0,0-10,10-10s10,10,10,10v80c0,0,0,10,10,10s10-10,10-10v-90"/>
<rect x="35.1" y="22.2" fill="#E74652" width="516.9" height="60.2"/>
<rect x="22" y="32.1" fill="none" width="542" height="40.5"/>
<text transform="matrix(1 0 0 1 41.543 72.0911)" fill="#FFFFFF" font-family="'ProximaNovaA-Bold'" font-size="60">~ XO MEMORIES ~</text>
</svg>
