<?xml version="1.0" encoding="utf-8"?>
<!-- Generator: Adobe Illustrator 17.1.0, SVG Export Plug-In . SVG Version: 6.00 Build 0)  -->
<!DOCTYPE svg PUBLIC "-//W3C//DTD SVG 1.1//EN" "http://www.w3.org/Graphics/SVG/1.1/DTD/svg11.dtd">
<svg version="1.1" id="Layer_1" xmlns="http://www.w3.org/2000/svg" xmlns:xlink="http://www.w3.org/1999/xlink" x="0px" y="0px"
	 viewBox="0 0 586 105.3" enable-background="new 0 0 586 105.3" xml:space="preserve">
<path fill="none" stroke="#FFFFFF" stroke-width="3" stroke-miterlimit="10" d="M3,2.3l0,90c0,0,0,10,10,10s10-10,10-10v-80
	c0,0,0-10,10-10s10,10,10,10v80c0,0,0,10,10,10s10-10,10-10v-80c0,0,0-10,10-10s10,10,10,10v80c0,0,0,10,10,10s10-10,10-10v-80
	c0,0,0-10,10-10s10,10,10,10v80c0,0,0,10,10,10s10-10,10-10v-80c0,0,0-10,10-10s10,10,10,10v80c0,0,0,10,10,10s10-10,10-10v-80
	c0,0,0-10,10-10s10,10,10,10v80c0,0,0,10,10,10s10-10,10-10v-80c0,0,0-10,10-10s10,10,10,10v80c0,0,0,10,10,10s10-10,10-10v-80
	c0,0,0-10,10-10s10,10,10,10v80c0,0,0,10,10,10s10-10,10-10v-80c0,0,0-10,10-10s10,10,10,10v80c0,0,0,10,10,10s10-10,10-10v-80
	c0,0,0-10,10-10s10,10,10,10v80c0,0,0,10,10,10s10-10,10-10v-80c0,0,0-10,10-10s10,10,10,10v80c0,0,0,10,10,10s10-10,10-10v-80
	c0,0,0-10,10-10s10,10,10,10v80c0,0,0,10,10,10s10-10,10-10v-80c0,0,0-10,10-10s10,10,10,10v80c0,0,0,10,10,10s10-10,10-10v-80
	c0,0,0-10,10-10s10,10,10,10v80c0,0,0,10,10,10s10-10,10-10v-80c0,0,0-10,10-10s10,10,10,10v80c0,0,0,10,10,10s10-10,10-10v-90"/>
<rect x="35.1" y="22.2" fill="#E74652" width="516.9" height="60.2"/>
<g>
	<path fill="#FFFFFF" d="M71.5,32.7c-0.6,7.2-2.2,14.7-8.9,14.7c-7.8,0-6.1-10.6-9.7-10.6c-2.4,0-3.3,5.4-3.7,10.6L44,46.8
		c0.6-7.1,2.3-14.6,8.9-14.6c7.8,0,6.1,10.6,9.7,10.6c2.4,0,3.3-5.3,3.7-10.7L71.5,32.7z"/>
	<path fill="#FFFFFF" d="M118.5,72.1l-10-14.6L98.4,72.1H88.3l14.5-20.5L89.2,32.1h10.1l9.2,13.7l9.1-13.7h10.3l-13.6,19.4
		l14.5,20.6H118.5z"/>
	<path fill="#FFFFFF" d="M128.8,52.1c0-12.1,8.8-20.7,20.9-20.7c12.1,0,20.9,8.6,20.9,20.7c0,12.1-8.8,20.7-20.9,20.7
		C137.6,72.8,128.8,64.2,128.8,52.1z M161.8,52.1c0-7.5-4.7-13.1-12.1-13.1c-7.4,0-12.2,5.6-12.2,13.1c0,7.4,4.7,13.1,12.2,13.1
		C157.1,65.3,161.8,59.6,161.8,52.1z"/>
	<path fill="#FFFFFF" d="M226.8,72.1V43.2l-11.3,28.9h-3.7l-11.3-28.9v28.9H192v-40H204l9.7,25l9.7-25h12v40H226.8z"/>
	<path fill="#FFFFFF" d="M243.3,72.1v-40h28.3v7.5h-19.8V48h19.4v7.5h-19.4v9.1h19.8v7.5H243.3z"/>
	<path fill="#FFFFFF" d="M313.1,72.1V43.2l-11.3,28.9h-3.7l-11.3-28.9v28.9h-8.5v-40h11.9l9.7,25l9.7-25h12v40H313.1z"/>
	<path fill="#FFFFFF" d="M327.7,52.1c0-12.1,8.8-20.7,20.9-20.7c12.1,0,20.9,8.6,20.9,20.7c0,12.1-8.8,20.7-20.9,20.7
		C336.5,72.8,327.7,64.2,327.7,52.1z M360.7,52.1c0-7.5-4.7-13.1-12.1-13.1c-7.4,0-12.2,5.6-12.2,13.1c0,7.4,4.7,13.1,12.2,13.1
		C356,65.3,360.7,59.6,360.7,52.1z"/>
	<path fill="#FFFFFF" d="M398.1,72.1l-7.9-14.2H384v14.2h-8.5v-40h18.7c8.3,0,13.5,5.5,13.5,12.9c0,7-4.5,10.9-8.8,11.9l9.1,15.2
		H398.1z M399,44.9c0-3.3-2.6-5.3-5.9-5.3h-9v10.8h9C396.4,50.4,399,48.3,399,44.9z"/>
	<path fill="#FFFFFF" d="M414.1,72.1v-40h8.5v40H414.1z"/>
	<path fill="#FFFFFF" d="M430.5,72.1v-40h28.3v7.5H439V48h19.4v7.5H439v9.1h19.8v7.5H430.5z"/>
	<path fill="#FFFFFF" d="M462.7,66.5l4.7-6.7c2.8,2.9,7.2,5.5,12.7,5.5c4.7,0,7-2.1,7-4.4c0-7-23-2.1-23-17.2
		c0-6.7,5.8-12.2,15.2-12.2c6.4,0,11.6,1.9,15.6,5.6l-4.7,6.4c-3.2-3-7.6-4.4-11.6-4.4c-3.6,0-5.6,1.6-5.6,4c0,6.3,23,2,23,17
		c0,7.3-5.3,12.8-16,12.8C472,72.8,466.5,70.2,462.7,66.5z"/>
	<path fill="#FFFFFF" d="M542,32.7c-0.6,7.2-2.2,14.7-8.9,14.7c-7.8,0-6.1-10.6-9.7-10.6c-2.4,0-3.3,5.4-3.7,10.6l-5.2-0.6
		c0.6-7.1,2.3-14.6,8.9-14.6c7.8,0,6.1,10.6,9.7,10.6c2.4,0,3.3-5.3,3.7-10.7L542,32.7z"/>
</g>
</svg>
