<?xml version="1.0" encoding="utf-8"?>
<!-- Generator: Adobe Illustrator 17.1.0, SVG Export Plug-In . SVG Version: 6.00 Build 0)  -->
<!DOCTYPE svg PUBLIC "-//W3C//DTD SVG 1.1//EN" "http://www.w3.org/Graphics/SVG/1.1/DTD/svg11.dtd">
<svg version="1.1" id="Layer_1" xmlns="http://www.w3.org/2000/svg" xmlns:xlink="http://www.w3.org/1999/xlink" x="0px" y="0px"
	 viewBox="0 0 586 106" enable-background="new 0 0 586 106" xml:space="preserve">
<path fill="none" stroke="#FFFFFF" stroke-width="3" stroke-miterlimit="10" d="M3,3c0,0,0,65,0,85s20,20,20,0s0-50,0-70s20-20,20,0
	s0,50,0,70s20,20,20,0s0-50,0-70s20-20,20,0s0,50,0,70s20,20,20,0s0-50,0-70s20-20,20,0s0,50,0,70s20,20,20,0s0-50,0-70s20-20,20,0
	s0,50,0,70s20,20,20,0s0-50,0-70s20-20,20,0s0,50,0,70s20,20,20,0s0-50,0-70s20-20,20,0s0,50,0,70s20,20,20,0s0-50,0-70s20-20,20,0
	s0,50,0,70s20,20,20,0s0-50,0-70s20-20,20,0s0,50,0,70s20,20,20,0s0-50,0-70s20-20,20,0s0,50,0,70s20,20,20,0s0-50,0-70s20-20,20,0
	s0,50,0,70s20,20,20,0s0-50,0-70s20-20,20,0s0,50,0,70s20,20,20,0s0-50,0-70s20-20,20,0s0,50,0,70s20,20,20,0s0-50,0-70s20-20,20,0
	s0,50,0,70s20,20,20,0s0-50,0-70s20-20,20,0s0,50,0,70s20,20,20,0s0-85,0-85"/>
<rect x="33" y="22.9" fill="#E74652" width="520" height="60.2"/>
<rect x="38" y="32" fill="none" width="510" height="42"/>
<text transform="matrix(1 0 0 1 41.543 72.0195)" fill="#FFFFFF" font-family="'ProximaNovaA-Bold'" font-size="60">~ XO MEMORIES ~</text>
</svg>
