<?xml version="1.0" encoding="utf-8"?>
<!-- Generator: Adobe Illustrator 17.1.0, SVG Export Plug-In . SVG Version: 6.00 Build 0)  -->
<!DOCTYPE svg PUBLIC "-//W3C//DTD SVG 1.1//EN" "http://www.w3.org/Graphics/SVG/1.1/DTD/svg11.dtd">
<svg version="1.1" id="Layer_1" xmlns="http://www.w3.org/2000/svg" xmlns:xlink="http://www.w3.org/1999/xlink" x="0px" y="0px"
	 viewBox="0 0 625.3 186" enable-background="new 0 0 625.3 186" xml:space="preserve">
<g>
	<path fill="#FFFFFF" d="M349.2,77.6c8.3-8.3,21.8-8.3,30.1,0c8.3,8.3,8.3,21.8,0,30.1c-8.3,8.3-21.8,8.3-30.1,0
		C340.9,99.4,340.9,85.9,349.2,77.6 M328.5,128.4c16.6,16.6,41.9,19.2,61.2,7.9c0,0,0,0,0,0c6.5-3.5,12.1-4.7,16-2.1
		c-2.6-4-1.4-9.5,2.1-16h0c11.3-19.4,8.7-44.6-7.9-61.2c-19.7-19.7-51.7-19.7-71.4,0C308.8,76.7,308.8,108.7,328.5,128.4"/>
	<path fill="#FFFFFF" d="M358.6,87.4c0.2,0.1,0.5,0.1,0.8,0c0.3-0.1,0.5-0.3,0.7-0.5c0.2-0.2,0.7-0.3,1.1-0.3c0.3,0,1.4,0,2-0.1
		c0.6-0.1,1-1,1-1s0.4,0.4,0.4,0.6c0.1,0.2,0.2,0.6-0.4,0.9c-2.2,1.2-3,1.9-3,1.9s-1.1,1-1.4,2.1c-0.1,0.5-0.2,1-0.1,1.7
		c0.1,0.7,0.3,1.4,1.2,2.2c0.4,0.4,2.3,1.3,2.3,1.3s1.7,0.9,2.2,1.8c1.2,1.6,0.4,3.9,0.4,3.9s-0.4,1.6-1.9,2.1
		c-0.5,0.2-1.4,0.1-1.8,0c-0.5-0.2-1-0.4-1.2-1.1c-0.3-0.7-0.1-1.3-0.1-1.3s0.1-0.8,0.9-0.8c1.6-0.1,1.8,1.6,1.8,1.6h0.3
		c0,0,0.2-0.5,0.1-1.1c-0.1-0.5-0.5-1.3-1.6-1.5c-0.3-0.1-0.8-0.1-1.4,0.1c-0.6,0.2-1,0.7-1.2,1.1c-0.2,0.5-0.3,1-0.1,1.8
		c0.1,0.7,0.6,1.4,0.6,1.4s0.9,1.6,3.7,1.6c2.4,0,4-1.2,4.8-2.2c1-1.1,1.2-1.8,1.4-2.5c0.6-2.2-0.5-3.5-0.6-3.7
		c-0.1-0.3,0.1-0.3,0.3-0.3c0.4,0,1.2,0.5,1.2,0.5s-0.1-0.4-0.1-0.9c0-0.7,0.8-0.7,1.4-0.6c0,0-0.6-0.2-0.9-0.6
		c-0.6-0.9,1.6-1.3,1.6-1.3s-1.7-0.2-1.8-0.9c-0.1-0.4,0.1-0.6,0.3-0.9c0.2-0.3,0.4-0.6,0.4-0.6s-1.2,0.6-1.9,0.2
		c-0.4-0.2-0.8-0.8-0.8-0.8s0.1,0.9-0.2,1.3c-0.2,0.2-0.6,0.2-0.6,0.2s-0.6,0.1-0.9-0.3c-0.1-0.2-0.2-0.4,0-0.7
		c0.3-0.5,0.8-0.9,1.8-1.9c1.4-1.4,0.9-3-0.1-3.7c-0.9-0.8-1-1.3-1-1.3s-0.2-0.3,0-0.6c0.1-0.2,0.9-0.6,0.9-0.6s-0.9,0-1-0.4
		c-0.2-0.6,0.7-1.9,0.7-1.9s-1,0.4-1.2,0.4c-1,0-0.1-1.7-0.1-1.7s-1,0.7-1.8,0.6c-0.7-0.1-0.8-1.2-0.8-1.2s0,0.8-0.3,0.9
		c-0.2,0.1-0.9,0-0.9,0s0.6,0.7,0.2,0.8c-0.1,0.1-0.7-0.1-1-0.1c-0.1,0-0.3,0-0.7,0.3c-0.3,0.3-0.5,1.1-0.8,2.1
		c-0.3,1-0.8,1.4-0.8,1.4s-0.8,0.8-1.1,1c-0.3,0.2-0.7,0.5-0.9,0.7c-0.2,0.2-0.2,0.5-0.2,0.7C358.3,87.3,358.4,87.3,358.6,87.4"/>
	<polygon fill="#FFFFFF" points="258.6,141.5 272.6,120.5 286.7,141.5 324,141.5 291.3,92.7 324,44 286.7,44 272.6,64.9 258.6,44 
		221.3,44 254,92.7 221.3,141.5 258.6,141.5 	"/>
</g>
<path fill="none" stroke="#F8DD3D" stroke-width="3" d="M623,2.7h-40c-20,0-20,20-20,20s0,20-20,20s-20-20-20-20s0-8.7-5.7-14.6
	c-3-3.1-7.5-5.4-14.3-5.4c-20,0-20,20-20,20v60h-40c0,0-20,0-20,20s20,20,20,20s20,0,20-20s0-20,0-40s0-20,0-40
	c0-7.5-2.8-12.2-6.3-15.1C450.8,2.7,443,2.7,443,2.7s-20,0-20,20s0,40,0,40h20v-40"/>
<polyline fill="none" stroke="#9260A0" stroke-width="3" points="403,22.7 383,2.7 363,22.7 343,2.7 323,22.7 303,2.7 283,22.7 
	263,2.7 243,22.7 223,2.7 203,22.7 "/>
<path fill="none" stroke="#F8DD3D" stroke-width="3" d="M183,2.7v40l40,40l-40,40v60H83v-40H63v40c0,0-16.3,0-20,0v-40H23l0,40
	c0,0-20,0-20,0l0-40"/>
<polyline fill="none" stroke="#79B85A" stroke-width="3" points="3,62.7 43,42.7 83,62.7 "/>
<polyline fill="none" stroke="#79B85A" stroke-width="3" points="3,42.7 43,22.7 83,42.7 "/>
<polyline fill="none" stroke="#79B85A" stroke-width="3" points="3,22.7 43,2.7 83,22.7 "/>
<polyline fill="none" stroke="#9260A0" stroke-width="3" points="163,162.7 123,142.7 123,122.7 163,142.7 163,122.7 123,102.7 
	123,82.7 163,102.7 183,82.7 "/>
<path fill="none" stroke="#4CB8D6" stroke-width="3" d="M623,22.7h-40c0,0,0,40-40,40s-40-40-40-40v40v40h-20c0,0,0,40-40,40h-20"/>
<path fill="none" stroke="#4CB8D6" stroke-width="3" d="M203,162.7c0,0,0,20,20,20s20-20,20-20s0,20,20,20s20-20,20-20s0,20,20,20
	s20-20,20-20s0,20,20,20s20-20,20-20"/>
<path fill="none" stroke="#F09205" stroke-width="3" d="M523,162.7c0,0,0,10,10,10s10-10,10-10v-60c0,0,0-10,10-10s10,10,10,10v60
	c0,0,0,10,10,10s10-10,10-10v-90c0,0,0-10,10-10s10,10,10,10v90c0,0,0,10,10,10s10-10,10-10v-120"/>
<path fill="none" stroke="#4CB8D6" stroke-width="3" d="M3,82.7h80c0,0,10,0,10,10s-10,10-10,10H23c0,0-10,0-10,10s10,10,10,10h60
	c0,0,20,0,20,20s0,20,0,20h20"/>
<path fill="none" stroke="#F09205" stroke-width="3" d="M103,2.7v40c0,0,0,10,10,10s10-10,10-10v-20c0,0,0-10,10-10s10,10,10,10v40
	c0,0,0,10,10,10s10-10,10-10v-60"/>
<polyline fill="none" stroke="#79B85A" stroke-width="3" points="383,182.7 383,162.7 403,162.7 403,182.7 423,182.7 423,162.7 
	443,162.7 443,182.7 463,182.7 463,162.7 483,162.7 483,182.7 503,182.7 503,142.7 523,142.7 523,82.7 "/>
</svg>
