<?xml version="1.0" encoding="utf-8"?>
<!-- Generator: Adobe Illustrator 17.1.0, SVG Export Plug-In . SVG Version: 6.00 Build 0)  -->
<!DOCTYPE svg PUBLIC "-//W3C//DTD SVG 1.1//EN" "http://www.w3.org/Graphics/SVG/1.1/DTD/svg11.dtd">
<svg version="1.1" id="Layer_1" xmlns="http://www.w3.org/2000/svg" xmlns:xlink="http://www.w3.org/1999/xlink" x="0px" y="0px"
	 viewBox="0 0 626 186" enable-background="new 0 0 626 186" xml:space="preserve">
<g>
	<path fill="#FFFFFF" d="M344.2,78.3c8.3-8.3,21.8-8.3,30.1,0c8.3,8.3,8.3,21.8,0,30.1c-8.3,8.3-21.8,8.3-30.1,0
		C335.9,100.1,335.9,86.6,344.2,78.3 M323.5,129.1c16.6,16.6,41.9,19.2,61.2,7.9c0,0,0,0,0,0c6.5-3.5,12.1-4.7,16-2.1
		c-2.6-4-1.4-9.5,2.1-16h0c11.3-19.4,8.7-44.6-7.9-61.2c-19.7-19.7-51.7-19.7-71.4,0C303.8,77.3,303.8,109.3,323.5,129.1"/>
	<path fill="#FFFFFF" d="M353.6,88c0.2,0.1,0.5,0.1,0.8,0c0.3-0.1,0.5-0.3,0.7-0.5c0.2-0.2,0.7-0.3,1.1-0.3c0.3,0,1.4,0,2-0.1
		c0.6-0.1,1-1,1-1s0.4,0.4,0.4,0.6c0.1,0.2,0.2,0.6-0.4,0.9c-2.2,1.2-3,1.9-3,1.9s-1.1,1-1.4,2.1c-0.1,0.5-0.2,1-0.1,1.7
		c0.1,0.7,0.3,1.4,1.2,2.2c0.4,0.4,2.3,1.3,2.3,1.3s1.7,0.9,2.2,1.8c1.2,1.6,0.4,3.9,0.4,3.9s-0.4,1.6-1.9,2.1
		c-0.5,0.2-1.4,0.1-1.8,0c-0.5-0.2-1-0.4-1.2-1.1c-0.3-0.7-0.1-1.3-0.1-1.3s0.1-0.8,0.9-0.8c1.6-0.1,1.8,1.6,1.8,1.6h0.3
		c0,0,0.2-0.5,0.1-1.1c-0.1-0.5-0.5-1.3-1.6-1.5c-0.3-0.1-0.8-0.1-1.4,0.1c-0.6,0.2-1,0.7-1.2,1.1c-0.2,0.5-0.3,1-0.1,1.8
		c0.1,0.7,0.6,1.4,0.6,1.4s0.9,1.6,3.7,1.6c2.4,0,4-1.2,4.8-2.2c1-1.1,1.2-1.8,1.4-2.5c0.6-2.2-0.5-3.5-0.6-3.7
		c-0.1-0.3,0.1-0.3,0.3-0.3c0.4,0,1.2,0.5,1.2,0.5s-0.1-0.4-0.1-0.9c0-0.7,0.8-0.7,1.4-0.6c0,0-0.6-0.2-0.9-0.6
		c-0.6-0.9,1.6-1.3,1.6-1.3s-1.7-0.2-1.8-0.9c-0.1-0.4,0.1-0.6,0.3-0.9c0.2-0.3,0.4-0.6,0.4-0.6s-1.2,0.6-1.9,0.2
		c-0.4-0.2-0.8-0.8-0.8-0.8s0.1,0.9-0.2,1.3c-0.2,0.2-0.6,0.2-0.6,0.2s-0.6,0.1-0.9-0.3c-0.1-0.2-0.2-0.4,0-0.7
		c0.3-0.5,0.8-0.9,1.8-1.9c1.4-1.4,0.9-3-0.1-3.7c-0.9-0.8-1-1.3-1-1.3s-0.2-0.3,0-0.6c0.1-0.2,0.9-0.6,0.9-0.6s-0.9,0-1-0.4
		c-0.2-0.6,0.7-1.9,0.7-1.9s-1,0.4-1.2,0.4c-1,0-0.1-1.7-0.1-1.7s-1,0.7-1.8,0.6c-0.7-0.1-0.8-1.2-0.8-1.2s0,0.8-0.3,0.9
		c-0.2,0.1-0.9,0-0.9,0s0.6,0.7,0.2,0.8c-0.1,0.1-0.7-0.1-1-0.1c-0.1,0-0.3,0-0.7,0.3c-0.3,0.3-0.5,1.1-0.8,2.1
		c-0.3,1-0.8,1.4-0.8,1.4s-0.8,0.8-1.1,1c-0.3,0.2-0.7,0.5-0.9,0.7c-0.2,0.2-0.2,0.5-0.2,0.7C353.3,87.9,353.4,88,353.6,88"/>
	<polygon fill="#FFFFFF" points="253.6,142.2 267.6,121.2 281.7,142.2 319,142.2 286.3,93.4 319,44.6 281.7,44.6 267.6,65.6 
		253.6,44.6 216.3,44.6 249,93.4 216.3,142.2 253.6,142.2 	"/>
</g>
<path fill="none" stroke="#F8DD3D" stroke-width="3" d="M623,3.3h-40c-20,0-20,20-20,20s0,20-20,20s-20-20-20-20s0-20-20-20
	s-20,20-20,20v60h-40c0,0-20,0-20,20s20,20,20,20s20,0,20-20s0-20,0-40s0-20,0-40s-20-20-20-20s-20,0-20,20s0,40,0,40h20v-40"/>
<polyline fill="none" stroke="#9260A0" stroke-width="3" points="403,23.3 383,3.3 363,23.3 343,3.3 323,23.3 303,3.3 283,23.3 
	263,3.3 243,23.3 223,3.3 203,23.3 "/>
<path fill="none" stroke="#F8DD3D" stroke-width="3" d="M183,3.3v40l40,40l-40,40v60H83v-40H63v40c0,0-16.3,0-20,0v-40H23l0,40
	c0,0-20,0-20,0l0-40"/>
<polyline fill="none" stroke="#79B85A" stroke-width="3" points="3,63.3 43,43.3 83,63.3 "/>
<polyline fill="none" stroke="#79B85A" stroke-width="3" points="3,43.3 43,23.3 83,43.3 "/>
<polyline fill="none" stroke="#79B85A" stroke-width="3" points="3,23.3 43,3.3 83,23.3 "/>
<polyline fill="none" stroke="#9260A0" stroke-width="3" points="163,163.3 123,143.3 123,123.3 163,143.3 163,123.3 123,103.3 
	123,83.3 163,103.3 183,83.3 "/>
<path fill="none" stroke="#4CB8D6" stroke-width="3" d="M623,23.3h-40c0,0,0,40-40,40s-40-40-40-40v40v40h-20c0,0,0,40-40,40h-20"/>
<path fill="none" stroke="#4CB8D6" stroke-width="3" d="M203,163.3c0,0,0,20,20,20s20-20,20-20s0,20,20,20s20-20,20-20s0,20,20,20
	s20-20,20-20s0,20,20,20s20-20,20-20"/>
<path fill="none" stroke="#F09205" stroke-width="3" d="M523,163.3c0,20,20,20,20,0s0-40,0-60s20-20,20,0c0,0,0,40,0,60s20,20,20,0
	s0-65,0-85s20-20,20,0s0,65,0,85s20,20,20,0s0-120,0-120"/>
<path fill="none" stroke="#4CB8D6" stroke-width="3" d="M3,83.3c0,0,60,0,80,0s20,20,0,20s-40,0-60,0s-20,20,0,20s60,0,60,0
	s20,0,20,20s0,20,0,20h20"/>
<path fill="none" stroke="#F09205" stroke-width="3" d="M103,3.3c0,0,0,20,0,40s20,20,20,0s0,0,0-20s20-20,20,0s0,20,0,40
	s20,20,20,0s0-60,0-60"/>
<polyline fill="none" stroke="#79B85A" stroke-width="3" points="383,183.3 383,163.3 403,163.3 403,183.3 423,183.3 423,163.3 
	443,163.3 443,183.3 463,183.3 463,163.3 483,163.3 483,183.3 503,183.3 503,143.3 523,143.3 523,83.3 "/>
</svg>
