<?xml version="1.0" encoding="utf-8"?>
<!-- Generator: Adobe Illustrator 17.1.0, SVG Export Plug-In . SVG Version: 6.00 Build 0)  -->
<!DOCTYPE svg PUBLIC "-//W3C//DTD SVG 1.1//EN" "http://www.w3.org/Graphics/SVG/1.1/DTD/svg11.dtd">
<svg version="1.1" id="Layer_1" xmlns="http://www.w3.org/2000/svg" xmlns:xlink="http://www.w3.org/1999/xlink" x="0px" y="0px"
	 viewBox="0 0 586 106" enable-background="new 0 0 586 106" xml:space="preserve">
<polyline fill="none" stroke="#FFFFFF" stroke-width="3" stroke-miterlimit="10" points="2.8,23 42.8,3 82.8,23 122.8,3 162.8,23 
	202.8,3 242.8,23 282.8,3 322.8,23 362.8,3 402.8,23 442.8,3 482.8,23 522.8,3 562.8,23 582.8,13 "/>
<polyline fill="none" stroke="#FFFFFF" stroke-width="3" stroke-miterlimit="10" points="2.8,63 42.8,43 82.8,63 122.8,43 162.8,63 
	202.8,43 242.8,63 282.8,43 322.8,63 362.8,43 402.8,63 442.8,43 482.8,63 522.8,43 562.8,63 583.2,52.8 "/>
<polyline fill="none" stroke="#FFFFFF" stroke-width="3" stroke-miterlimit="10" points="2.8,103 42.8,83 82.8,103 122.8,83 
	162.8,103 202.8,83 242.8,103 282.8,83 322.8,103 362.8,83 402.8,103 442.8,83 482.8,103 522.8,83 562.8,103 582.8,93 "/>
</svg>
