<?xml version="1.0" encoding="utf-8"?>
<!-- Generator: Adobe Illustrator 17.1.0, SVG Export Plug-In . SVG Version: 6.00 Build 0)  -->
<!DOCTYPE svg PUBLIC "-//W3C//DTD SVG 1.1//EN" "http://www.w3.org/Graphics/SVG/1.1/DTD/svg11.dtd">
<svg version="1.1" id="Layer_1" xmlns="http://www.w3.org/2000/svg" xmlns:xlink="http://www.w3.org/1999/xlink" x="0px" y="0px"
	 viewBox="0 0 586 106" enable-background="new 0 0 586 106" xml:space="preserve">
<polyline fill="none" stroke="#FFFFFF" stroke-width="3" stroke-miterlimit="10" points="2.8,23 42.8,3 82.8,23 122.8,3 162.8,23 
	202.8,3 242.8,23 282.8,3 322.8,23 362.8,3 402.8,23 442.8,3 482.8,23 522.8,3 562.8,23 582.8,13 "/>
<polyline fill="none" stroke="#FFFFFF" stroke-width="3" stroke-miterlimit="10" points="2.8,63 42.8,43 82.8,63 122.8,43 162.8,63 
	202.8,43 242.8,63 282.8,43 322.8,63 362.8,43 402.8,63 442.8,43 482.8,63 522.8,43 562.8,63 583.2,52.8 "/>
<polyline fill="none" stroke="#FFFFFF" stroke-width="3" stroke-miterlimit="10" points="2.8,103 42.8,83 82.8,103 122.8,83 
	162.8,103 202.8,83 242.8,103 282.8,83 322.8,103 362.8,83 402.8,103 442.8,83 482.8,103 522.8,83 562.8,103 582.8,93 "/>
<rect x="88" y="23" fill="#E74652" width="414.8" height="60"/>
<g>
	<path fill="#FFFFFF" d="M121.5,33.1c-0.6,7.2-2.2,14.7-8.9,14.7c-7.8,0-6.1-10.6-9.7-10.6c-2.4,0-3.3,5.4-3.7,10.6L94,47.2
		c0.6-7.1,2.3-14.6,8.9-14.6c7.8,0,6.1,10.6,9.7,10.6c2.4,0,3.3-5.3,3.7-10.7L121.5,33.1z"/>
	<path fill="#FFFFFF" d="M139.7,66.9l4.7-6.7c2.8,2.9,7.2,5.5,12.7,5.5c4.7,0,7-2.1,7-4.4c0-7-23-2.1-23-17.2
		c0-6.7,5.8-12.2,15.2-12.2c6.4,0,11.6,1.9,15.6,5.6l-4.7,6.4c-3.2-3-7.6-4.4-11.6-4.4c-3.6,0-5.6,1.6-5.6,4c0,6.3,23,2,23,17
		c0,7.3-5.3,12.8-16,12.8C149,73.2,143.5,70.7,139.7,66.9z"/>
	<path fill="#FFFFFF" d="M176.5,52.5c0-12.4,9.3-20.7,21.4-20.7c8.8,0,13.9,4.7,16.7,9.8l-7.3,3.6c-1.7-3.2-5.3-5.8-9.4-5.8
		c-7.3,0-12.6,5.6-12.6,13.1c0,7.6,5.3,13.1,12.6,13.1c4.1,0,7.7-2.6,9.4-5.8l7.3,3.5c-2.8,5-7.9,9.8-16.7,9.8
		C185.8,73.2,176.5,64.8,176.5,52.5z"/>
	<path fill="#FFFFFF" d="M247.1,72.5V55.7h-18.9v16.9h-8.5v-40h8.5v15.7h18.9V32.5h8.6v40H247.1z"/>
	<path fill="#FFFFFF" d="M263.5,72.5v-40h28.3V40H272v8.4h19.4v7.5H272V65h19.8v7.5H263.5z"/>
	<path fill="#FFFFFF" d="M298.5,72.5v-40h15.8c12.5,0,21.2,8,21.2,20c0,12.1-8.7,20-21.2,20H298.5z M326.8,52.5
		c0-7-4.3-12.5-12.5-12.5H307v25h7.3C322.2,65,326.8,59.3,326.8,52.5z"/>
	<path fill="#FFFFFF" d="M341.6,56.5v-24h8.6v23.8c0,5.6,3.2,9.4,9.4,9.4s9.4-3.8,9.4-9.4V32.5h8.7v24c0,9.9-5.9,16.7-18.1,16.7
		C347.4,73.2,341.6,66.4,341.6,56.5z"/>
	<path fill="#FFFFFF" d="M385.2,72.5v-40h8.6V65h16.9v7.5H385.2z"/>
	<path fill="#FFFFFF" d="M416.5,72.5v-40h28.3V40H425v8.4h19.4v7.5H425V65h19.8v7.5H416.5z"/>
	<path fill="#FFFFFF" d="M492,33.1c-0.6,7.2-2.2,14.7-8.9,14.7c-7.8,0-6.1-10.6-9.7-10.6c-2.4,0-3.3,5.4-3.7,10.6l-5.2-0.6
		c0.6-7.1,2.3-14.6,8.9-14.6c7.8,0,6.1,10.6,9.7,10.6c2.4,0,3.3-5.3,3.7-10.7L492,33.1z"/>
</g>
</svg>
