<?xml version="1.0" encoding="utf-8"?>
<!-- Generator: Adobe Illustrator 17.1.0, SVG Export Plug-In . SVG Version: 6.00 Build 0)  -->
<!DOCTYPE svg PUBLIC "-//W3C//DTD SVG 1.1//EN" "http://www.w3.org/Graphics/SVG/1.1/DTD/svg11.dtd">
<svg version="1.1" id="Layer_1" xmlns="http://www.w3.org/2000/svg" xmlns:xlink="http://www.w3.org/1999/xlink" x="0px" y="0px"
	 viewBox="0 0 586 105.3" enable-background="new 0 0 586 105.3" xml:space="preserve">
<polyline fill="none" stroke="#FFFFFF" stroke-width="3" stroke-miterlimit="10" points="2.8,22.3 42.8,2.3 82.8,22.3 122.8,2.3 
	162.8,22.3 202.8,2.3 242.8,22.3 282.8,2.3 322.8,22.3 362.8,2.3 402.8,22.3 442.8,2.3 482.8,22.3 522.8,2.3 562.8,22.3 582.8,12.4 
	"/>
<polyline fill="none" stroke="#FFFFFF" stroke-width="3" stroke-miterlimit="10" points="2.8,62.3 42.8,42.3 82.8,62.3 122.8,42.3 
	162.8,62.3 202.8,42.3 242.8,62.3 282.8,42.3 322.8,62.3 362.8,42.3 402.8,62.3 442.8,42.3 482.8,62.3 522.8,42.3 562.8,62.3 
	583.2,52.2 "/>
<polyline fill="none" stroke="#FFFFFF" stroke-width="3" stroke-miterlimit="10" points="2.8,102.3 42.8,82.3 82.8,102.3 
	122.8,82.3 162.8,102.3 202.8,82.3 242.8,102.3 282.8,82.3 322.8,102.3 362.8,82.3 402.8,102.3 442.8,82.3 482.8,102.3 522.8,82.3 
	562.8,102.3 582.8,92.4 "/>
<rect x="88" y="22.3" fill="#E64651" width="414.8" height="60"/>
<rect x="38.7" y="31.8" fill="none" width="508.6" height="43.6"/>
<text transform="matrix(1 0 0 1 92.4526 71.8529)" fill="#FFFFFF" font-family="'ProximaNovaA-Bold'" font-size="60">~ SCHEDULE ~</text>
</svg>
