<?xml version="1.0" encoding="utf-8"?>
<!-- Generator: Adobe Illustrator 17.1.0, SVG Export Plug-In . SVG Version: 6.00 Build 0)  -->
<!DOCTYPE svg PUBLIC "-//W3C//DTD SVG 1.1//EN" "http://www.w3.org/Graphics/SVG/1.1/DTD/svg11.dtd">
<svg version="1.1" id="Layer_1" xmlns="http://www.w3.org/2000/svg" xmlns:xlink="http://www.w3.org/1999/xlink" x="0px" y="0px"
	 viewBox="0 0 123 104.7" enable-background="new 0 0 123 104.7" xml:space="preserve">
<polyline fill="none" stroke="#FFFFFF" stroke-width="3" points="1.5,2.3 21.5,22.3 41.5,2.3 61.5,22.3 81.5,2.3 101.5,22.3 
	121.5,2.3 "/>
<polyline fill="none" stroke="#FFFFFF" stroke-width="3" points="1.5,22.3 21.5,42.3 41.5,22.3 61.5,42.3 81.5,22.3 101.5,42.3 
	121.5,22.3 "/>
<polyline fill="none" stroke="#FFFFFF" stroke-width="3" points="1.5,42.3 21.5,62.3 41.5,42.3 61.5,62.3 81.5,42.3 101.5,62.3 
	121.5,42.3 "/>
<polyline fill="none" stroke="#FFFFFF" stroke-width="3" points="1.5,62.3 21.5,82.3 41.5,62.3 61.5,82.3 81.5,62.3 101.5,82.3 
	121.5,62.3 "/>
<polyline fill="none" stroke="#FFFFFF" stroke-width="3" points="1.5,82.3 21.5,102.3 41.5,82.3 61.5,102.3 81.5,82.3 101.5,102.3 
	121.5,82.3 "/>
</svg>
