<?xml version="1.0" encoding="utf-8"?>
<!-- Generator: Adobe Illustrator 17.1.0, SVG Export Plug-In . SVG Version: 6.00 Build 0)  -->
<!DOCTYPE svg PUBLIC "-//W3C//DTD SVG 1.1//EN" "http://www.w3.org/Graphics/SVG/1.1/DTD/svg11.dtd">
<svg version="1.1" id="Layer_1" xmlns="http://www.w3.org/2000/svg" xmlns:xlink="http://www.w3.org/1999/xlink" x="0px" y="0px"
	 viewBox="0 0 123 104.7" enable-background="new 0 0 123 104.7" xml:space="preserve">
<polyline fill="none" stroke="#FFFFFF" stroke-width="3" points="1.3,22.3 21.3,2.3 41.3,22.3 61.3,2.3 81.3,22.3 101.3,2.3 
	121.3,22.3 "/>
<polyline fill="none" stroke="#FFFFFF" stroke-width="3" points="1.3,42.3 21.3,22.3 41.3,42.3 61.3,22.3 81.3,42.3 101.3,22.3 
	121.3,42.3 "/>
<polyline fill="none" stroke="#FFFFFF" stroke-width="3" points="1.3,62.3 21.3,42.3 41.3,62.3 61.3,42.3 81.3,62.3 101.3,42.3 
	121.3,62.3 "/>
<polyline fill="none" stroke="#FFFFFF" stroke-width="3" points="1.3,82.3 21.3,62.3 41.3,82.3 61.3,62.3 81.3,82.3 101.3,62.3 
	121.3,82.3 "/>
<polyline fill="none" stroke="#FFFFFF" stroke-width="3" points="1.3,102.3 21.3,82.3 41.3,102.3 61.3,82.3 81.3,102.3 101.3,82.3 
	121.3,102.3 "/>
</svg>
