<?xml version="1.0" encoding="utf-8"?>
<!-- Generator: Adobe Illustrator 17.1.0, SVG Export Plug-In . SVG Version: 6.00 Build 0)  -->
<!DOCTYPE svg PUBLIC "-//W3C//DTD SVG 1.1//EN" "http://www.w3.org/Graphics/SVG/1.1/DTD/svg11.dtd">
<svg version="1.1" id="Layer_1" xmlns="http://www.w3.org/2000/svg" xmlns:xlink="http://www.w3.org/1999/xlink" x="0px" y="0px"
	 viewBox="0 0 59.6 59.7" enable-background="new 0 0 59.6 59.7" xml:space="preserve">
<path fill="#79B85A" d="M29.8,0.2c-6,0-11.7,1.8-16.3,4.9c-0.2,0.1-0.4,0.3-0.6,0.4C6.8,9.8,2.4,16.3,0.9,23.9H0.8
	C-0.6,30.6,0.4,37.8,4,44.2c0.8,1.4,1.4,2.9,1.9,4.4c0.6,1.6,0.7,3.3,0,5c0,0.1,0,0.1,0.1,0.2c1.7-0.8,3.4-0.7,5.1-0.1
	c1.5,0.5,3,1.1,4.3,1.9c7.5,4.1,15.5,5,23.6,2.3c9.1-3,15.3-9.2,18.8-18.1c0.1-0.3,0.2-0.6,0.4-1.1c0,0,0,0,0,0
	c0.8-2.7,1.3-5.5,1.3-8.5c0,0,0-0.1,0-0.1c-0.2-4.4-0.8-8.8-2.8-12.8c-1.4-2.9-3.1-5.4-5.1-7.6C47.5,5.3,42,2.1,35.9,0.9"/>
<g>
	<g>
		<path fill="#FFFFFF" d="M30,27c-2.1,0-3.8,1.7-3.8,3.8c0,2.1,1.7,3.8,3.8,3.8c2.1,0,3.8-1.7,3.8-3.8C33.9,28.8,32.2,27,30,27z
			 M40.3,23.2h-3.1c-0.4,0-0.9-0.3-1-0.7l-0.8-2.4c-0.1-0.4-0.6-0.7-1-0.7h-8.7c-0.4,0-0.9,0.3-1,0.7l-0.8,2.4
			c-0.1,0.4-0.6,0.7-1,0.7h-3.1c-1.4,0-2.6,1.2-2.6,2.6v11.5c0,1.4,1.2,2.6,2.6,2.6h20.5c1.4,0,2.6-1.2,2.6-2.6V25.8
			C42.8,24.3,41.7,23.2,40.3,23.2z M30,37.3c-3.5,0-6.4-2.9-6.4-6.4c0-3.5,2.9-6.4,6.4-6.4c3.5,0,6.4,2.9,6.4,6.4
			C36.4,34.4,33.6,37.3,30,37.3z"/>
	</g>
</g>
</svg>
