<?xml version="1.0" encoding="utf-8"?>
<!-- Generator: Adobe Illustrator 16.0.0, SVG Export Plug-In . SVG Version: 6.00 Build 0)  -->
<!DOCTYPE svg PUBLIC "-//W3C//DTD SVG 1.1//EN" "http://www.w3.org/Graphics/SVG/1.1/DTD/svg11.dtd">
<svg version="1.1" id="Layer_1" xmlns="http://www.w3.org/2000/svg" xmlns:xlink="http://www.w3.org/1999/xlink" x="0px" y="0px"
	 width="180px" height="180px" viewBox="0 0 180 180" enable-background="new 0 0 180 180" xml:space="preserve">
<g>
	<path fill="#FFFFFF" d="M179.964,91.068c-0.491-13.453-2.416-26.686-8.444-38.883c-4.352-8.797-9.465-16.531-15.361-23.187
		c-12.475-13.53-29.029-23.229-47.709-27.112L90.08,0C71.701,0,54.624,5.538,40.385,15.018c-0.593,0.399-1.188,0.797-1.776,1.199
		C20.127,29.168,6.717,48.897,1.997,71.815H1.808c-4.169,20.458-1.187,42.354,9.558,61.978c2.308,4.205,4.187,8.7,5.783,13.23
		c1.754,4.97,2.077,10.124-0.139,15.161c-0.073,0.17,0.088,0.447,0.159,0.759c5.146-2.366,10.382-2.132,15.442-0.354
		c4.525,1.585,8.996,3.484,13.208,5.771c22.936,12.443,47.056,15.083,71.681,7.086c27.659-8.979,46.549-27.897,57.064-55.113
		c0.347-0.889,0.715-1.767,1.296-3.216c0.02,0.032,0.027,0.061,0.043,0.094c2.551-8.131,3.963-16.76,4.097-25.704
		C179.988,91.359,179.969,91.219,179.964,91.068z M128.926,113.355c0,4.282-3.503,7.786-7.785,7.786H58.859
		c-4.282,0-7.786-3.504-7.786-7.786V78.322c0-4.282,3.503-7.786,7.786-7.786h9.342c1.285,0,2.667-0.997,3.074-2.215l2.416-7.248
		c0.405-1.219,1.79-2.215,3.074-2.215h26.469c1.285,0,2.668,0.997,3.075,2.215l2.415,7.247c0.405,1.219,1.789,2.215,3.074,2.215
		h9.342c4.282,0,7.785,3.503,7.785,7.786V113.355z"/>
	<path fill="#FFFFFF" d="M90,74.429c-10.749,0-19.463,8.715-19.463,19.463c0,10.749,8.714,19.463,19.463,19.463
		c10.748,0,19.463-8.714,19.463-19.463C109.463,83.144,100.748,74.429,90,74.429z M90,105.57c-6.45,0-11.678-5.228-11.678-11.678
		c0-6.448,5.228-11.678,11.678-11.678c6.448,0,11.678,5.23,11.678,11.678C101.678,100.343,96.448,105.57,90,105.57z"/>
</g>
</svg>
