<?xml version="1.0" encoding="utf-8"?>
<!-- Generator: Adobe Illustrator 17.1.0, SVG Export Plug-In . SVG Version: 6.00 Build 0)  -->
<!DOCTYPE svg PUBLIC "-//W3C//DTD SVG 1.1//EN" "http://www.w3.org/Graphics/SVG/1.1/DTD/svg11.dtd">
<svg version="1.1" id="Layer_1" xmlns="http://www.w3.org/2000/svg" xmlns:xlink="http://www.w3.org/1999/xlink" x="0px" y="0px"
	 viewBox="0 0 179.2 179.2" enable-background="new 0 0 179.2 179.2" xml:space="preserve">
<path fill="#FFFFFF" d="M179.1,90.7c-0.5-13.4-2.4-26.6-8.4-38.7c-4.3-8.8-9.4-16.5-15.3-23.1C143,15.4,126.6,5.7,108,1.9L89.7,0
	C71.4,0,54.4,5.5,40.2,15c-0.6,0.4-1.2,0.8-1.8,1.2C20,29,6.7,48.7,2,71.5H1.8c-4.2,20.4-1.2,42.2,9.5,61.7
	c2.3,4.2,4.2,8.7,5.8,13.2c1.7,4.9,2.1,10.1-0.1,15.1c-0.1,0.2,0.1,0.4,0.2,0.8c5.1-2.4,10.3-2.1,15.4-0.4c4.5,1.6,9,3.5,13.1,5.7
	c22.8,12.4,46.8,15,71.4,7.1c27.5-8.9,46.3-27.8,56.8-54.9c0.3-0.9,0.7-1.8,1.3-3.2c0,0,0,0.1,0,0.1c2.5-8.1,3.9-16.7,4.1-25.6
	C179.2,90.9,179.2,90.8,179.1,90.7z M84.2,83.3c0,10.1-0.9,18-2.6,23.6c-1.7,5.7-5,10.9-9.8,15.5c-4,3.8-8.8,6.9-14.5,9.3
	c-2,0.9-4.3,0-5.2-1.9l-3.3-6.9c-0.9-2-0.1-4.5,2-5.4c4.9-2.1,8.5-4.8,11-8.1c3-4.1,4.6-9.5,4.7-16.3H53.8c-2.2,0-4-1.8-4-4V62.6
	c0-2.2,1.8-4,4-4h26.4c2.2,0,4,1.8,4,4V83.3z M131.8,83.3c0,10-0.9,17.9-2.7,23.7c-1.7,5.7-5,10.9-9.7,15.4c-3.9,3.8-8.8,7-14.5,9.4
	c-2,0.9-4.3,0-5.2-1.9l-3.3-6.9c-0.9-2-0.1-4.5,2-5.4c4.9-2.1,8.5-4.8,11-8.1c3-4.1,4.6-9.5,4.7-16.3h-12.6c-2.2,0-4-1.8-4-4V62.6
	c0-2.2,1.8-4,4-4h26.4c2.2,0,4,1.8,4,4V83.3z"/>
</svg>
