<?xml version="1.0" encoding="utf-8"?>
<!-- Generator: Adobe Illustrator 17.1.0, SVG Export Plug-In . SVG Version: 6.00 Build 0)  -->
<!DOCTYPE svg PUBLIC "-//W3C//DTD SVG 1.1//EN" "http://www.w3.org/Graphics/SVG/1.1/DTD/svg11.dtd">
<svg version="1.1" id="Layer_1" xmlns="http://www.w3.org/2000/svg" xmlns:xlink="http://www.w3.org/1999/xlink" x="0px" y="0px"
	 viewBox="0 0 59.8 59.7" enable-background="new 0 0 59.8 59.7" xml:space="preserve">
<path fill="#F8DD3D" d="M59.5,30.2c-0.2-4.4-0.8-8.8-2.8-12.8c-1.4-2.9-3.1-5.4-5.1-7.6c-4.1-4.4-9.5-7.6-15.7-8.9l-6-0.6
	c-6,0-11.7,1.8-16.3,4.9c-0.2,0.1-0.4,0.3-0.6,0.4C6.9,9.8,2.5,16.3,0.9,23.9H0.9C-0.5,30.6,0.5,37.8,4,44.2
	c0.8,1.4,1.4,2.9,1.9,4.4c0.6,1.6,0.7,3.3,0,5c0,0.1,0,0.1,0.1,0.2c1.7-0.8,3.4-0.7,5.1-0.1c1.5,0.5,3,1.1,4.3,1.9
	c7.5,4.1,15.5,5,23.6,2.3c9.1-3,15.3-9.2,18.8-18.1c0.1-0.3,0.2-0.6,0.4-1.1c0,0,0,0,0,0c0.8-2.7,1.3-5.5,1.3-8.5
	C59.5,30.3,59.5,30.2,59.5,30.2z M28.1,27.8c0,3.3-0.3,5.9-0.9,7.8c-0.6,1.9-1.7,3.6-3.2,5.1c-1.3,1.2-2.9,2.3-4.8,3.1
	c-0.7,0.3-1.4,0-1.7-0.6l-1.1-2.3c-0.3-0.7,0-1.5,0.7-1.8c1.6-0.7,2.8-1.6,3.6-2.7c1-1.4,1.5-3.2,1.6-5.4H18c-0.7,0-1.3-0.6-1.3-1.3
	v-8.7c0-0.7,0.6-1.3,1.3-1.3h8.7c0.7,0,1.3,0.6,1.3,1.3V27.8z M43.8,27.8c0,3.3-0.3,5.9-0.9,7.8c-0.6,1.9-1.6,3.6-3.2,5.1
	c-1.3,1.3-2.9,2.3-4.8,3.1c-0.7,0.3-1.4,0-1.7-0.6l-1.1-2.3c-0.3-0.7,0-1.5,0.7-1.8c1.6-0.7,2.8-1.6,3.6-2.7c1-1.4,1.5-3.2,1.6-5.4
	h-4.2c-0.7,0-1.3-0.6-1.3-1.3v-8.7c0-0.7,0.6-1.3,1.3-1.3h8.7c0.7,0,1.3,0.6,1.3,1.3V27.8z"/>
</svg>
