<?xml version="1.0" encoding="utf-8"?>
<!-- Generator: Adobe Illustrator 16.0.0, SVG Export Plug-In . SVG Version: 6.00 Build 0)  -->
<!DOCTYPE svg PUBLIC "-//W3C//DTD SVG 1.1//EN" "http://www.w3.org/Graphics/SVG/1.1/DTD/svg11.dtd">
<svg version="1.1" id="Layer_1" xmlns="http://www.w3.org/2000/svg" xmlns:xlink="http://www.w3.org/1999/xlink" x="0px" y="0px"
	 width="180px" height="180px" viewBox="0 0 180 180" enable-background="new 0 0 180 180" xml:space="preserve">
<path fill="#FFFFFF" d="M179.964,91.067c-0.491-13.452-2.416-26.685-8.444-38.883c-4.352-8.796-9.465-16.531-15.361-23.188
	C143.684,15.468,127.129,5.77,108.449,1.886L90.08,0C71.701,0,54.624,5.538,40.385,15.019c-0.593,0.398-1.188,0.796-1.776,1.198
	C20.127,29.168,6.717,48.898,1.997,71.814H1.808c-4.169,20.458-1.187,42.354,9.558,61.978c2.308,4.206,4.187,8.702,5.783,13.231
	c1.754,4.971,2.077,10.125-0.139,15.161c-0.073,0.169,0.088,0.447,0.159,0.76c5.146-2.366,10.382-2.133,15.442-0.355
	c4.525,1.586,8.996,3.484,13.208,5.771c22.936,12.442,47.056,15.083,71.681,7.087c27.659-8.98,46.549-27.898,57.064-55.114
	c0.347-0.889,0.715-1.767,1.296-3.216c0.02,0.032,0.027,0.061,0.043,0.094c2.551-8.131,3.963-16.76,4.097-25.705
	C179.988,91.359,179.969,91.219,179.964,91.067z M88.096,119.443c0,1.646-0.951,3.142-2.439,3.84
	c-0.576,0.272-1.192,0.404-1.806,0.404c-0.969,0-1.931-0.334-2.708-0.978L57.94,103.482H45.582
	c-2.343,0.002-4.244-1.899-4.244-4.243V82.33c0-2.345,1.901-4.246,4.244-4.246h12.359l23.203-19.227
	c1.269-1.051,3.026-1.274,4.514-0.572c1.487,0.699,2.439,2.196,2.439,3.841L88.096,119.443z M104.407,112.811
	c-0.103,0.007-0.202,0.011-0.305,0.011c-1.122,0-2.203-0.442-3.002-1.242l-0.566-0.569c-1.489-1.485-1.664-3.84-0.41-5.529
	c3.179-4.285,4.855-9.365,4.855-14.694c0-5.732-1.904-11.108-5.509-15.549c-1.371-1.688-1.246-4.138,0.292-5.675l0.567-0.568
	c0.848-0.848,1.983-1.31,3.214-1.236c1.196,0.061,2.314,0.624,3.074,1.552c4.999,6.118,7.64,13.545,7.64,21.478
	c0,7.387-2.334,14.419-6.755,20.332C106.766,112.104,105.635,112.724,104.407,112.811z M121.955,125.927
	c-0.768,0.907-1.878,1.452-3.066,1.502c-0.057,0.002-0.118,0.004-0.177,0.004c-1.124,0-2.203-0.443-3.002-1.242l-0.557-0.558
	c-1.559-1.558-1.664-4.047-0.248-5.733c6.844-8.141,10.615-18.479,10.615-29.113c0-11.061-4.036-21.71-11.364-29.982
	c-1.487-1.681-1.411-4.223,0.171-5.81l0.555-0.558c0.826-0.829,1.899-1.287,3.13-1.247c1.169,0.032,2.273,0.549,3.051,1.423
	c8.858,9.974,13.736,22.821,13.736,36.174C134.801,103.634,130.238,116.114,121.955,125.927z"/>
</svg>
