<?xml version="1.0" encoding="utf-8"?>
<!-- Generator: Adobe Illustrator 17.1.0, SVG Export Plug-In . SVG Version: 6.00 Build 0)  -->
<!DOCTYPE svg PUBLIC "-//W3C//DTD SVG 1.1//EN" "http://www.w3.org/Graphics/SVG/1.1/DTD/svg11.dtd">
<svg version="1.1" id="Layer_1" xmlns="http://www.w3.org/2000/svg" xmlns:xlink="http://www.w3.org/1999/xlink" x="0px" y="0px"
	 viewBox="0 0 179.2 179.2" enable-background="new 0 0 179.2 179.2" xml:space="preserve">
<path fill="#FFFFFF" d="M179.1,90.7c-0.5-13.4-2.4-26.6-8.4-38.7c-4.3-8.8-9.4-16.5-15.3-23.1C143,15.4,126.6,5.7,108,1.9L89.7,0
	C71.4,0,54.4,5.5,40.2,15c-0.6,0.4-1.2,0.8-1.8,1.2C20,29,6.7,48.7,2,71.5H1.8c-4.2,20.4-1.2,42.2,9.5,61.7
	c2.3,4.2,4.2,8.7,5.8,13.2c1.7,4.9,2.1,10.1-0.1,15.1c-0.1,0.2,0.1,0.4,0.2,0.8c5.1-2.4,10.3-2.1,15.4-0.4c4.5,1.6,9,3.5,13.1,5.7
	c22.8,12.4,46.8,15,71.4,7.1c27.5-8.9,46.3-27.8,56.8-54.9c0.3-0.9,0.7-1.8,1.3-3.2c0,0,0,0.1,0,0.1c2.5-8.1,3.9-16.7,4.1-25.6
	C179.2,90.9,179.2,90.8,179.1,90.7z M90.3,124.5h-6.8h-10h-6.8v-5h6.8V65.8H54l-1.1,7.6h-4.5V55.8h60.2v17.6h-4.5l-1.1-7.6H83.5
	v53.7h6.8V124.5z M123.3,114.1H113v10.3c0,1.3-1,2.3-2.3,2.3s-2.3-1-2.3-2.3v-10.3H98.1c-1.3,0-2.3-1-2.3-2.3s1-2.3,2.3-2.3h10.3
	V99.2c0-1.3,1-2.3,2.3-2.3s2.3,1,2.3,2.3v10.3h10.3c1.3,0,2.3,1,2.3,2.3C125.6,113,124.6,114.1,123.3,114.1z"/>
</svg>
