<?xml version="1.0" encoding="utf-8"?>
<!-- Generator: Adobe Illustrator 16.0.0, SVG Export Plug-In . SVG Version: 6.00 Build 0)  -->
<!DOCTYPE svg PUBLIC "-//W3C//DTD SVG 1.1//EN" "http://www.w3.org/Graphics/SVG/1.1/DTD/svg11.dtd">
<svg version="1.1" id="Layer_1" xmlns="http://www.w3.org/2000/svg" xmlns:xlink="http://www.w3.org/1999/xlink" x="0px" y="0px"
	 width="180px" height="180px" viewBox="0 0 180 180" enable-background="new 0 0 180 180" xml:space="preserve">
<path fill="#FFFFFF" d="M179.964,91.068c-0.491-13.453-2.416-26.686-8.444-38.884c-4.352-8.796-9.465-16.531-15.361-23.187
	c-12.475-13.53-29.029-23.229-47.709-27.112L90.08,0C71.701,0,54.624,5.538,40.385,15.018c-0.593,0.399-1.188,0.797-1.776,1.199
	C20.127,29.168,6.717,48.898,1.997,71.814H1.808c-4.169,20.458-1.187,42.354,9.558,61.978c2.308,4.206,4.187,8.702,5.783,13.231
	c1.754,4.971,2.077,10.125-0.139,15.161c-0.073,0.169,0.088,0.447,0.159,0.76c5.146-2.366,10.382-2.133,15.442-0.355
	c4.525,1.585,8.996,3.484,13.208,5.771c22.936,12.442,47.056,15.083,71.681,7.087c27.659-8.98,46.549-27.898,57.064-55.114
	c0.347-0.889,0.715-1.767,1.296-3.216c0.02,0.032,0.027,0.061,0.043,0.094c2.551-8.131,3.963-16.76,4.097-25.704
	C179.988,91.359,179.969,91.219,179.964,91.068z M125.897,97.061l-50.524,28.976c-6.796,3.896-12.308,0.706-12.308-7.136V61.095
	c0-7.833,5.512-11.028,12.308-7.128l50.524,28.975C132.698,86.842,132.698,93.161,125.897,97.061z"/>
</svg>
