<?xml version="1.0" encoding="utf-8"?>
<!-- Generator: Adobe Illustrator 17.1.0, SVG Export Plug-In . SVG Version: 6.00 Build 0)  -->
<!DOCTYPE svg PUBLIC "-//W3C//DTD SVG 1.1//EN" "http://www.w3.org/Graphics/SVG/1.1/DTD/svg11.dtd">
<svg version="1.1" id="Layer_1" xmlns="http://www.w3.org/2000/svg" xmlns:xlink="http://www.w3.org/1999/xlink" x="0px" y="0px"
	 viewBox="0 0 158.9 158.9" enable-background="new 0 0 158.9 158.9" xml:space="preserve">
<path fill="#FFFFFF" d="M148.9,118.1c9.5-17.3,12.1-36.7,8.4-54.7h-0.2c-4.2-20.2-16-37.6-32.3-49.1c-0.5-0.4-1-0.7-1.6-1.1
	C110.7,4.9,95.6,0,79.4,0c-3.9,0-7.8,0.3-11.6,0.9c-0.3,0.1-0.7,0.1-1,0.2c-1.1,0.2-2.1,0.4-3.2,0.6c-0.1,0-0.2,0.1-0.4,0.1
	C46.7,5.1,32.1,13.7,21,25.6c-5.2,5.9-9.7,12.7-13.6,20.5C2.2,56.8,0.5,68.5,0,80.4c0,0.1,0,0.3,0,0.4c0.1,7.9,1.4,15.5,3.6,22.7
	c0,0,0-0.1,0-0.1c0.5,1.3,0.8,2.1,1.1,2.8c9.3,24,26,40.7,50.4,48.7c21.7,7.1,43,4.7,63.3-6.3c3.7-2,7.7-3.7,11.7-5.1
	c4.5-1.6,9.1-1.8,13.6,0.3c0.1-0.3,0.2-0.5,0.1-0.7c-2-4.4-1.7-9-0.1-13.4C145.2,125.8,146.8,121.8,148.9,118.1z M112.5,112.5H44.3
	c-12.2,0-22.1-10-22.1-22.3c0-11,8.1-20.3,18.6-21.9c-0.1-0.8-0.2-1.6-0.2-2.4c0-7.8,6.3-14.1,14-14.1c3.5,0,6.6,1.2,9,3.3
	c4.4-9.8,9.9-18.8,25.5-18.8c18.9,0,27.9,14.7,27.9,30.2c0,0.7,0,1.3-0.1,1.9c10.1,2.1,17.6,11.1,17.6,21.8
	C134.6,102.5,124.7,112.5,112.5,112.5z"/>
<g>
	<path fill="#FFFFFF" d="M82.1,94c4.9,4.9,12.3,5.7,18,2.3c0,0,0,0,0,0c1.9-1,3.6-1.4,4.7-0.6c-0.8-1.2-0.4-2.8,0.6-4.7c0,0,0,0,0,0
		c3.3-5.7,2.6-13.1-2.3-18c-5.8-5.8-15.2-5.8-21,0C76.3,78.8,76.2,88.2,82.1,94z M88.1,79.1c2.4-2.4,6.4-2.4,8.9,0
		c2.4,2.4,2.4,6.4,0,8.9c-2.4,2.4-6.4,2.4-8.9,0C85.7,85.5,85.7,81.5,88.1,79.1z"/>
	<path fill="#FFFFFF" d="M90.9,81.9c0.1,0,0.2,0,0.2,0c0.1,0,0.2-0.1,0.2-0.1c0.1-0.1,0.2-0.1,0.3-0.1c0.1,0,0.4,0,0.6,0
		c0.2,0,0.3-0.3,0.3-0.3s0.1,0.1,0.1,0.2c0,0.1,0.1,0.2-0.1,0.3c-0.7,0.3-0.9,0.6-0.9,0.6s-0.3,0.3-0.4,0.6c0,0.2-0.1,0.3,0,0.5
		c0,0.2,0.1,0.4,0.3,0.6c0.1,0.1,0.7,0.4,0.7,0.4s0.5,0.3,0.7,0.5c0.3,0.5,0.1,1.2,0.1,1.2s-0.1,0.5-0.6,0.6c-0.2,0.1-0.4,0-0.5,0
		c-0.1,0-0.3-0.1-0.4-0.3c-0.1-0.2,0-0.4,0-0.4s0-0.2,0.3-0.2c0.5,0,0.5,0.5,0.5,0.5h0.1c0,0,0-0.2,0-0.3c0-0.1-0.1-0.4-0.5-0.5
		c-0.1,0-0.2,0-0.4,0c-0.2,0.1-0.3,0.2-0.3,0.3c-0.1,0.1-0.1,0.3,0,0.5c0,0.2,0.2,0.4,0.2,0.4s0.3,0.5,1.1,0.5
		c0.7,0,1.2-0.4,1.4-0.6c0.3-0.3,0.3-0.5,0.4-0.7c0.2-0.6-0.2-1-0.2-1.1c0-0.1,0-0.1,0.1-0.1c0.1,0,0.3,0.2,0.3,0.2s0-0.1,0-0.3
		c0-0.2,0.2-0.2,0.4-0.2c0,0-0.2-0.1-0.3-0.2c-0.2-0.3,0.5-0.4,0.5-0.4s-0.5-0.1-0.5-0.3c0-0.1,0-0.2,0.1-0.3
		c0.1-0.1,0.1-0.2,0.1-0.2s-0.4,0.2-0.6,0.1C94.1,83.2,94,83,94,83s0,0.3-0.1,0.4c-0.1,0.1-0.2,0.1-0.2,0.1s-0.2,0-0.3-0.1
		c0-0.1,0-0.1,0-0.2c0.1-0.1,0.2-0.3,0.5-0.6c0.4-0.4,0.3-0.9,0-1.1c-0.3-0.2-0.3-0.4-0.3-0.4s0-0.1,0-0.2c0-0.1,0.3-0.2,0.3-0.2
		s-0.3,0-0.3-0.1c0-0.2,0.2-0.5,0.2-0.5s-0.3,0.1-0.4,0.1c-0.3,0,0-0.5,0-0.5s-0.3,0.2-0.5,0.2c-0.2,0-0.2-0.3-0.2-0.3
		s0,0.2-0.1,0.3c-0.1,0-0.3,0-0.3,0s0.2,0.2,0,0.2c0,0-0.2,0-0.3,0c0,0-0.1,0-0.2,0.1c-0.1,0.1-0.1,0.3-0.2,0.6
		c-0.1,0.3-0.2,0.4-0.2,0.4s-0.2,0.2-0.3,0.3c-0.1,0-0.2,0.1-0.3,0.2C90.8,81.7,90.8,81.8,90.9,81.9C90.8,81.9,90.9,81.9,90.9,81.9z
		"/>
	<polygon fill="#FFFFFF" points="61.5,97.9 65.6,91.7 69.8,97.9 80.7,97.9 71.1,83.5 80.7,69.1 69.8,69.1 65.6,75.3 61.5,69.1 
		50.5,69.1 60.1,83.5 50.5,97.9 	"/>
</g>
</svg>
