<?xml version="1.0" encoding="utf-8"?>
<!-- Generator: Adobe Illustrator 17.1.0, SVG Export Plug-In . SVG Version: 6.00 Build 0)  -->
<!DOCTYPE svg PUBLIC "-//W3C//DTD SVG 1.1//EN" "http://www.w3.org/Graphics/SVG/1.1/DTD/svg11.dtd">
<svg version="1.1" id="Layer_1" xmlns="http://www.w3.org/2000/svg" xmlns:xlink="http://www.w3.org/1999/xlink" x="0px" y="0px"
	 viewBox="0 0 179.2 179.2" enable-background="new 0 0 179.2 179.2" xml:space="preserve">
<g>
	<path fill="#F19307" d="M179.1,90.7c-0.5-13.4-2.4-26.6-8.4-38.7c-4.3-8.8-9.4-16.5-15.3-23.1C143,15.4,126.6,5.7,108,1.9
		c-0.1,0-0.3-0.1-0.4-0.1c-1.2-0.2-2.4-0.5-3.6-0.6c-0.4-0.1-0.8-0.1-1.2-0.2c-4.3-0.6-8.6-1-13.1-1C71.4,0,54.4,5.5,40.2,15
		c-0.6,0.4-1.2,0.8-1.8,1.2C20,29,6.7,48.7,2,71.5H1.8c-4.1,20.4-1.2,42.2,9.5,61.7c2.3,4.2,4.2,8.7,5.8,13.2
		c1.7,4.9,2.1,10.1-0.1,15.1c-0.1,0.2,0.1,0.4,0.2,0.8c5.1-2.4,10.3-2.1,15.4-0.4c4.5,1.6,9,3.5,13.1,5.7
		c22.8,12.4,46.8,15,71.4,7.1c27.5-8.9,46.3-27.8,56.8-54.9c0.3-0.9,0.7-1.8,1.3-3.2c0,0,0,0.1,0,0.1c2.5-8.1,3.9-16.7,4.1-25.6
		C179.2,90.9,179.2,90.8,179.1,90.7z"/>
</g>
<g>
	<g>
		<path fill="#FFFFFF" d="M89.7,106.9c5.5,0,9.9-4.4,9.9-9.9c0-5.5-4.4-9.9-9.9-9.9c-5.5,0-9.9,4.4-9.9,9.9
			C79.8,102.5,84.3,106.9,89.7,106.9z"/>
		<path fill="#FFFFFF" d="M97.7,108.5H81.8c-2.8,0-5.2,2.6-5.2,5.8v16c0,0.2,0.1,0.3,0.1,0.5h26c0-0.2,0.1-0.3,0.1-0.5v-16
			C102.8,111.1,100.5,108.5,97.7,108.5z"/>
		<path fill="#FFFFFF" d="M116.4,111.6c4.4,0,8-3.6,8-7.9s-3.5-7.9-8-7.9c-4.4,0-7.9,3.6-7.9,7.9C108.5,108.1,112,111.6,116.4,111.6
			z"/>
		<path fill="#FFFFFF" d="M122.8,112.9h-12.7c-2.3,0-4.2,2.1-4.2,4.7v12.8c0,0.1,0.1,0.3,0.1,0.4h20.9c0-0.1,0.1-0.3,0.1-0.4v-12.8
			C126.9,115,125.1,112.9,122.8,112.9z"/>
		<path fill="#FFFFFF" d="M63.1,111.6c4.4,0,7.9-3.6,7.9-7.9s-3.5-7.9-7.9-7.9c-4.4,0-7.9,3.6-7.9,7.9S58.7,111.6,63.1,111.6
			L63.1,111.6z"/>
		<path fill="#FFFFFF" d="M69.4,112.9H56.7c-2.3,0-4.1,2.1-4.1,4.7v12.8c0,0.1,0.1,0.3,0.1,0.4h20.9c0-0.1,0.1-0.3,0.1-0.4v-12.8
			C73.6,115,71.7,112.9,69.4,112.9z"/>
	</g>
</g>
<g>
	<path fill="#FFFFFF" d="M105.1,51.6c3.6-3.6,9.4-3.6,13,0c3.6,3.6,3.6,9.4,0,13c-3.6,3.6-9.4,3.6-13,0
		C101.5,61,101.5,55.2,105.1,51.6L105.1,51.6z M96.1,73.5c7.2,7.2,18.1,8.3,26.5,3.4c0,0,0,0,0,0c2.8-1.5,5.2-2,6.9-0.9
		c-1.1-1.7-0.6-4.1,0.9-6.9c0,0,0,0,0,0c4.9-8.4,3.8-19.3-3.4-26.5c-8.5-8.5-22.3-8.5-30.9,0C87.6,51.2,87.6,65,96.1,73.5L96.1,73.5
		z"/>
	<path fill="#FFFFFF" d="M109.1,55.8c0.1,0,0.2,0,0.4,0c0.1,0,0.2-0.1,0.3-0.2c0.1-0.1,0.3-0.1,0.5-0.1c0.1,0,0.6,0,0.9,0
		c0.2-0.1,0.4-0.4,0.4-0.4s0.2,0.2,0.2,0.3c0,0.1,0.1,0.2-0.2,0.4c-1,0.5-1.3,0.8-1.3,0.8s-0.5,0.4-0.6,0.9
		c-0.1,0.2-0.1,0.4-0.1,0.7c0,0.3,0.1,0.6,0.5,0.9c0.2,0.2,1,0.6,1,0.6s0.7,0.4,1,0.8c0.5,0.7,0.2,1.7,0.2,1.7s-0.2,0.7-0.8,0.9
		c-0.2,0.1-0.6,0.1-0.8,0c-0.2-0.1-0.4-0.2-0.5-0.5C110,62.2,110,62,110,62s0-0.3,0.4-0.3c0.7,0,0.8,0.7,0.8,0.7h0.1
		c0,0,0.1-0.2,0-0.5c0-0.2-0.2-0.6-0.7-0.7c-0.1,0-0.4-0.1-0.6,0c-0.3,0.1-0.4,0.3-0.5,0.5c-0.1,0.2-0.1,0.4-0.1,0.8
		c0.1,0.3,0.2,0.6,0.2,0.6s0.4,0.7,1.6,0.7c1,0,1.7-0.5,2.1-0.9c0.4-0.5,0.5-0.8,0.6-1.1c0.2-0.9-0.2-1.5-0.3-1.6
		c-0.1-0.2,0-0.2,0.1-0.2c0.2,0,0.5,0.2,0.5,0.2s-0.1-0.2,0-0.4c0-0.3,0.4-0.3,0.6-0.3c0,0-0.3-0.1-0.4-0.3
		c-0.3-0.4,0.7-0.6,0.7-0.6s-0.7-0.1-0.8-0.4c0-0.2,0.1-0.3,0.1-0.4c0.1-0.1,0.2-0.3,0.2-0.3s-0.5,0.2-0.8,0.1
		c-0.2-0.1-0.4-0.4-0.4-0.4s0.1,0.4-0.1,0.5c-0.1,0.1-0.3,0.1-0.3,0.1s-0.3,0-0.4-0.1c-0.1-0.1-0.1-0.2,0-0.3
		c0.1-0.2,0.3-0.4,0.8-0.8c0.6-0.6,0.4-1.3,0-1.6c-0.4-0.3-0.4-0.6-0.4-0.6s-0.1-0.1,0-0.2c0.1-0.1,0.4-0.2,0.4-0.2s-0.4,0-0.5-0.2
		c-0.1-0.3,0.3-0.8,0.3-0.8s-0.4,0.2-0.5,0.2c-0.4,0-0.1-0.7-0.1-0.7s-0.4,0.3-0.8,0.3c-0.3-0.1-0.3-0.5-0.3-0.5s0,0.3-0.1,0.4
		c-0.1,0.1-0.4,0-0.4,0s0.2,0.3,0.1,0.4c-0.1,0-0.3-0.1-0.4-0.1c0,0-0.1,0-0.3,0.1c-0.1,0.1-0.2,0.5-0.3,0.9
		c-0.1,0.4-0.3,0.6-0.3,0.6s-0.3,0.4-0.5,0.4c-0.1,0.1-0.3,0.2-0.4,0.3c-0.1,0.1-0.1,0.2-0.1,0.3C109,55.8,109.1,55.8,109.1,55.8
		L109.1,55.8z"/>
	<polygon fill="#FFFFFF" points="65.9,79.2 72,70.2 78.1,79.2 94.2,79.2 80.1,58.1 94.2,37.1 78.1,37.1 72,46.1 65.9,37.1 
		49.8,37.1 63.9,58.1 49.8,79.2 65.9,79.2 	"/>
</g>
</svg>
