<?xml version="1.0" encoding="utf-8"?>
<!-- Generator: Adobe Illustrator 17.1.0, SVG Export Plug-In . SVG Version: 6.00 Build 0)  -->
<!DOCTYPE svg PUBLIC "-//W3C//DTD SVG 1.1//EN" "http://www.w3.org/Graphics/SVG/1.1/DTD/svg11.dtd">
<svg version="1.1" id="Layer_1" xmlns="http://www.w3.org/2000/svg" xmlns:xlink="http://www.w3.org/1999/xlink" x="0px" y="0px"
	 viewBox="0 0 198 197.4" enable-background="new 0 0 198 197.4" xml:space="preserve">
<path fill="#F09205" d="M183.6,146.3c13.6-25,16.4-51.3,7.7-78.2c-9.8-30.2-30.4-50.8-60.1-62.2c-1-0.4-1.9-0.8-3.5-1.4
	c0,0,0.1,0,0.1,0c-8.9-2.8-18.3-4.3-28-4.5c-0.2,0-0.3,0-0.5,0C84.6,0.6,70.2,2.7,56.9,9.2C47.3,14,38.9,19.6,31.6,26
	C16.9,39.6,6.3,57.6,2.1,78C2,78.2,2,78.3,2,78.5c-0.3,1.3-0.5,2.6-0.7,4c-0.1,0.4-0.1,0.8-0.2,1.3C0.4,88.4,0,93.2,0,98
	c0,20,6,38.7,16.4,54.2c0.4,0.6,0.9,1.3,1.3,1.9c14.1,20.2,35.6,34.8,60.6,39.9v0.2c22.3,4.5,46.2,1.3,67.6-10.4
	c4.6-2.5,9.5-4.6,14.4-6.3c5.4-1.9,11-2.3,16.5,0.2c0.2,0.1,0.5-0.1,0.8-0.2c-2.6-5.6-2.3-11.3-0.4-16.8
	C179,155.8,181.1,150.9,183.6,146.3z M139.4,116.1c0,11.4-7.2,19.3-18.7,20.5c-3.4,0.3-6.8,0.2-10.1-1c-8.4-3.3-11-11.7-5.9-19.2
	c5.1-7.3,15.3-11.2,24.3-8.8c2.4,0.6,2.8,0,2.8-2.2c-0.1-9,0-18,0-26.9c0-3.9-1.3-4.9-5.2-3.7c-12.1,3.7-24.1,7.5-36.2,11.3
	c-4.6,1.5-5.9,3.3-6,8.2c0,11.2,0,22.5,0,33.7c0,12.1-7.6,20-19.8,20.7c-2.5,0.1-5-0.1-7.4-0.8c-8.3-2.5-11.6-10.4-7.4-18
	c4.4-7.9,15.5-12.9,24.4-10.7c2.3,0.6,2.6-0.1,2.6-2.2c-0.1-13.6,0-27.3,0-40.9c0-7.7,3.3-12.3,10.7-14.6c13.7-4.2,27.4-8.4,41-12.5
	c0.9-0.3,2-0.3,2.7-1.1h2c5,1.5,6.2,5.1,6.1,10C139.3,77.1,139.4,96.6,139.4,116.1z"/>
</svg>
