<?xml version="1.0" encoding="utf-8"?>
<!-- Generator: Adobe Illustrator 16.0.0, SVG Export Plug-In . SVG Version: 6.00 Build 0)  -->
<!DOCTYPE svg PUBLIC "-//W3C//DTD SVG 1.1//EN" "http://www.w3.org/Graphics/SVG/1.1/DTD/svg11.dtd">
<svg version="1.1" id="Layer_1" xmlns="http://www.w3.org/2000/svg" xmlns:xlink="http://www.w3.org/1999/xlink" x="0px" y="0px"
	 width="68.001px" height="68px" viewBox="0 0 68.001 68" enable-background="new 0 0 68.001 68" xml:space="preserve">
<g id="Layer_2">
	<g>
		<path fill="#E74652" d="M4.397,50.69c-4.701-8.664-5.698-17.777-2.678-27.078C5.113,13.161,12.26,6.026,22.541,2.052
			c0.335-0.131,0.668-0.27,1.216-0.49c-0.013-0.006-0.024-0.01-0.037-0.014C26.792,0.585,30.053,0.05,33.431,0
			c0.056,0.004,0.108,0.011,0.166,0.014c5.083,0.184,10.082,0.911,14.689,3.189c3.324,1.644,6.246,3.576,8.76,5.804
			c5.112,4.713,8.775,10.966,10.242,18.023c0.012,0.054,0.022,0.104,0.033,0.158c0.093,0.453,0.171,0.912,0.246,1.372
			c0.023,0.146,0.047,0.292,0.069,0.438c0.237,1.624,0.366,3.282,0.366,4.969c0,6.945-2.093,13.396-5.675,18.776
			c-0.15,0.224-0.301,0.447-0.453,0.67c-4.892,6.984-12.346,12.049-21.003,13.833v0.071c-7.729,1.573-16.001,0.449-23.415-3.613
			c-1.589-0.869-3.287-1.58-4.998-2.185c-1.879-0.661-3.825-0.784-5.728,0.054c-0.064,0.026-0.168-0.033-0.287-0.058
			c0.894-1.947,0.806-3.924,0.135-5.836C5.979,53.972,5.261,52.281,4.397,50.69"/>
	</g>
</g>
<g id="Layer_1_1_">
	<g>
		<g>
			<path fill="#FFFFFF" d="M34.438,38.198c0.069,0.34,0.345,0.589,0.694,0.688c0.177,0.048,0.371,0.062,0.571,0.021
				c0.242-0.049,0.45-0.166,0.605-0.318c0.228-0.222,0.344-0.524,0.282-0.828c-0.104-0.513-0.669-0.829-1.264-0.708
				c-0.146,0.03-0.282,0.083-0.4,0.155c-0.357,0.218-0.563,0.6-0.489,0.984L34.438,38.198z"/>
			<path fill="#FFFFFF" d="M43.451,27.469c-0.199-2.773-1.893-4.569-3.397-6.164c-1.117-1.183-2.129-2.257-2.596-3.63
				c0.143-0.206,0.227-0.456,0.227-0.726v-2.573c0-0.07-0.009-0.136-0.021-0.204c0.339-0.094,0.59-0.401,0.59-0.77
				c0-0.442-0.358-0.801-0.801-0.801h-6.675c-0.441,0-0.801,0.358-0.801,0.801c0,0.369,0.25,0.676,0.59,0.77
				c-0.011,0.066-0.021,0.134-0.021,0.204v2.573c0,0.296,0.104,0.565,0.273,0.783c-0.475,1.346-1.472,2.406-2.575,3.573
				c-1.504,1.595-3.197,3.391-3.396,6.164h-0.02v25.448c0,1.178,0.958,2.136,2.136,2.136h14.372c1.177,0,2.136-0.958,2.136-2.136
				V27.469H43.451z M41.762,52.917c0,0.236-0.191,0.427-0.426,0.427H26.963c-0.235,0-0.427-0.191-0.427-0.427v-6.081h15.227
				L41.762,52.917L41.762,52.917z M41.762,28.211H26.536v-0.195c0-2.411,1.434-3.93,2.951-5.538c1.13-1.199,2.361-2.507,2.962-4.249
				h3.399c0.601,1.742,1.832,3.05,2.962,4.249c1.518,1.608,2.952,3.127,2.952,5.538L41.762,28.211L41.762,28.211z"/>
			<path fill="#FFFFFF" d="M31.822,38.758c0.115,0.067,0.243,0.12,0.383,0.149c0.595,0.121,1.161-0.196,1.264-0.708
				c0.06-0.297-0.052-0.595-0.272-0.816c-0.157-0.157-0.367-0.278-0.615-0.33c-0.594-0.119-1.161,0.195-1.264,0.708
				C31.239,38.151,31.455,38.542,31.822,38.758z"/>
			<path fill="#FFFFFF" d="M33.445,39.24c0,0.15,0.062,0.279,0.153,0.347c0.042,0.03,0.09,0.049,0.142,0.049
				c0.092,0,0.172-0.056,0.228-0.143c0.054,0.086,0.135,0.143,0.227,0.143c0.052,0,0.1-0.019,0.143-0.049
				c0.09-0.068,0.153-0.198,0.152-0.347c0-0.042-0.005-0.083-0.015-0.122c-0.05-0.306-0.507-0.69-0.507-0.69
				s-0.458,0.384-0.508,0.69C33.451,39.158,33.445,39.198,33.445,39.24z"/>
		</g>
	</g>
	<g>
		<path fill="#E74652" d="M37.75,32.216H34.3c-0.469,0-1.044,0.328-1.284,0.732l-2.527,4.272c-0.239,0.405-0.052,0.733,0.417,0.733
			h2.543l-2.705,1.959c-0.381,0.276-0.308,0.499,0.162,0.499h1.49l-1.699,3.115c-0.225,0.413-0.108,0.512,0.26,0.221l4.36-3.434
			c0.369-0.291,0.297-0.536-0.161-0.546c-0.458-0.01-0.83-0.019-0.83-0.019l2.866-2.625c0.346-0.317,0.246-0.565-0.224-0.555
			l-2.642,0.058l3.68-3.799C38.335,32.49,38.219,32.216,37.75,32.216z"/>
	</g>
</g>
</svg>
