<?xml version="1.0" encoding="utf-8"?>
<!-- Generator: Adobe Illustrator 17.1.0, SVG Export Plug-In . SVG Version: 6.00 Build 0)  -->
<!DOCTYPE svg PUBLIC "-//W3C//DTD SVG 1.1//EN" "http://www.w3.org/Graphics/SVG/1.1/DTD/svg11.dtd">
<svg version="1.1" id="Layer_1" xmlns="http://www.w3.org/2000/svg" xmlns:xlink="http://www.w3.org/1999/xlink" x="0px" y="0px"
	 viewBox="0 0 1679.8 1679.7" enable-background="new 0 0 1679.8 1679.7" xml:space="preserve">
<g id="Layer_2">
	<g>
		<path fill="#E74852" d="M108.6,1252.2C-7.5,1038.1-32.1,813,42.5,583.3c83.8-258.2,260.4-434.4,514.4-532.6
			c8.3-3.2,16.5-6.7,30-12.1c-0.3-0.1-0.6-0.2-0.9-0.3C661.8,14.5,742.4,1.2,825.8,0c1.4,0.1,2.7,0.3,4.1,0.3
			c125.6,4.5,249,22.5,362.9,78.8c82.1,40.6,154.3,88.3,216.4,143.4c126.3,116.4,216.8,270.9,253,445.2c0.3,1.3,0.5,2.6,0.8,3.9
			c2.3,11.2,4.2,22.5,6.1,33.9c0.6,3.6,1.2,7.2,1.7,10.8c5.9,40.1,9,81.1,9,122.7c0,171.6-51.7,330.9-140.2,463.8
			c-3.7,5.5-7.4,11-11.2,16.6c-120.8,172.5-305,297.6-518.8,341.7v1.8c-190.9,38.9-395.3,11.1-578.4-89.2
			c-39.3-21.5-81.2-39-123.5-54c-46.4-16.3-94.5-19.4-141.5,1.3c-1.6,0.6-4.1-0.8-7.1-1.4c22.1-48.1,19.9-96.9,3.3-144.2
			C147.7,1333.2,130,1291.5,108.6,1252.2"/>
	</g>
</g>
<g id="Layer_1_1_">
	<g>
		<g>
			<path fill="#FFFFFF" d="M850.7,943.6c1.7,8.4,8.5,14.5,17.1,17c4.4,1.2,9.2,1.5,14.1,0.5c6-1.2,11.1-4.1,14.9-7.9
				c5.6-5.5,8.5-12.9,7-20.5c-2.6-12.7-16.5-20.5-31.2-17.5c-3.6,0.7-7,2.1-9.9,3.8c-8.8,5.4-13.9,14.8-12.1,24.3L850.7,943.6z"/>
			<path fill="#FFFFFF" d="M1073.4,678.5c-4.9-68.5-46.8-112.9-83.9-152.3c-27.6-29.2-52.6-55.8-64.1-89.7
				c3.5-5.1,5.6-11.3,5.6-17.9v-63.6c0-1.7-0.2-3.4-0.5-5c8.4-2.3,14.6-9.9,14.6-19c0-10.9-8.8-19.8-19.8-19.8H760.3
				c-10.9,0-19.8,8.8-19.8,19.8c0,9.1,6.2,16.7,14.6,19c-0.3,1.6-0.5,3.3-0.5,5v63.6c0,7.3,2.6,14,6.7,19.3
				c-11.7,33.2-36.4,59.4-63.6,88.3c-37.2,39.4-79,83.8-83.9,152.3h-0.5v628.6c0,29.1,23.7,52.8,52.8,52.8h355
				c29.1,0,52.8-23.7,52.8-52.8V678.5H1073.4z M1031.6,1307.2c0,5.8-4.7,10.5-10.5,10.5h-355c-5.8,0-10.5-4.7-10.5-10.5V1157h376.1
				L1031.6,1307.2L1031.6,1307.2z M1031.6,696.9H655.5v-4.8c0-59.6,35.4-97.1,72.9-136.8c27.9-29.6,58.3-61.9,73.2-105h84
				c14.8,43,45.3,75.3,73.2,105c37.5,39.7,72.9,77.2,72.9,136.8L1031.6,696.9L1031.6,696.9z"/>
			<path fill="#FFFFFF" d="M786.1,957.4c2.8,1.7,6,3,9.5,3.7c14.7,3,28.7-4.8,31.2-17.5c1.5-7.3-1.3-14.7-6.7-20.2
				c-3.9-3.9-9.1-6.9-15.2-8.2c-14.7-2.9-28.7,4.8-31.2,17.5C771.7,942.4,777,952.1,786.1,957.4z"/>
			<path fill="#FFFFFF" d="M826.2,969.3c0,3.7,1.5,6.9,3.8,8.6c1,0.7,2.2,1.2,3.5,1.2c2.3,0,4.2-1.4,5.6-3.5
				c1.3,2.1,3.3,3.5,5.6,3.5c1.3,0,2.5-0.5,3.5-1.2c2.2-1.7,3.8-4.9,3.8-8.6c0-1-0.1-2.1-0.4-3c-1.2-7.6-12.5-17-12.5-17
				s-11.3,9.5-12.5,17C826.3,967.3,826.2,968.3,826.2,969.3z"/>
		</g>
	</g>
	<g>
		<path fill="#E74852" d="M932.5,795.8h-85.2c-11.6,0-25.8,8.1-31.7,18.1l-62.4,105.5c-5.9,10-1.3,18.1,10.3,18.1h62.8l-66.8,48.4
			c-9.4,6.8-7.6,12.3,4,12.3h36.8l-42,76.9c-5.6,10.2-2.7,12.6,6.4,5.5l107.7-84.8c9.1-7.2,7.3-13.2-4-13.5
			c-11.3-0.2-20.5-0.5-20.5-0.5l70.8-64.8c8.5-7.8,6.1-14-5.5-13.7l-65.3,1.4l90.9-93.8C947,802.6,944.1,795.8,932.5,795.8z"/>
	</g>
</g>
</svg>
