<?xml version="1.0" encoding="utf-8"?>
<!-- Generator: Adobe Illustrator 17.1.0, SVG Export Plug-In . SVG Version: 6.00 Build 0)  -->
<!DOCTYPE svg PUBLIC "-//W3C//DTD SVG 1.1//EN" "http://www.w3.org/Graphics/SVG/1.1/DTD/svg11.dtd">
<svg version="1.1" id="Layer_1" xmlns="http://www.w3.org/2000/svg" xmlns:xlink="http://www.w3.org/1999/xlink" x="0px" y="0px"
	 viewBox="0 0 78.8 45.9" enable-background="new 0 0 78.8 45.9" xml:space="preserve">
<g>
	<g>
		<path fill="#010202" d="M39.4,21c5.8,0,10.5-4.7,10.5-10.5C49.9,4.7,45.2,0,39.4,0c-5.8,0-10.5,4.7-10.5,10.5
			C28.9,16.3,33.6,21,39.4,21z"/>
		<path fill="#010202" d="M47.8,22.7H31c-3,0-5.5,2.8-5.5,6.1v16.9c0,0.2,0.1,0.4,0.1,0.5h27.6c0-0.2,0.1-0.4,0.1-0.5V28.9
			C53.3,25.5,50.8,22.7,47.8,22.7z"/>
		<path fill="#010202" d="M67.7,26c4.7,0,8.4-3.8,8.4-8.4s-3.7-8.4-8.4-8.4c-4.6,0-8.4,3.8-8.4,8.4C59.2,22.2,63,26,67.7,26z"/>
		<path fill="#010202" d="M74.4,27.4H60.9c-2.4,0-4.4,2.2-4.4,4.9v13.5c0,0.1,0.1,0.3,0.1,0.4h22.1c0-0.2,0.1-0.3,0.1-0.4V32.3
			C78.8,29.6,76.8,27.4,74.4,27.4z"/>
		<path fill="#010202" d="M11.1,26c4.7,0,8.4-3.8,8.4-8.4s-3.8-8.4-8.4-8.4c-4.6,0-8.4,3.8-8.4,8.4S6.5,26,11.1,26L11.1,26z"/>
		<path fill="#010202" d="M17.9,27.4H4.4C2,27.4,0,29.6,0,32.3v13.5c0,0.1,0.1,0.3,0.1,0.4h22.1c0-0.2,0.1-0.3,0.1-0.4V32.3
			C22.3,29.6,20.3,27.4,17.9,27.4z"/>
	</g>
	<g>
	</g>
	<g>
	</g>
	<g>
	</g>
	<g>
	</g>
	<g>
	</g>
	<g>
	</g>
	<g>
	</g>
	<g>
	</g>
	<g>
	</g>
	<g>
	</g>
	<g>
	</g>
	<g>
	</g>
	<g>
	</g>
	<g>
	</g>
	<g>
	</g>
</g>
</svg>
