<?xml version="1.0" encoding="utf-8"?>
<!-- Generator: Adobe Illustrator 17.1.0, SVG Export Plug-In . SVG Version: 6.00 Build 0)  -->
<!DOCTYPE svg PUBLIC "-//W3C//DTD SVG 1.1//EN" "http://www.w3.org/Graphics/SVG/1.1/DTD/svg11.dtd">
<svg version="1.1" id="Layer_1" xmlns="http://www.w3.org/2000/svg" xmlns:xlink="http://www.w3.org/1999/xlink" x="0px" y="0px"
	 viewBox="0 0 83.3 83.3" enable-background="new 0 0 83.3 83.3" xml:space="preserve">
<g>
	<g>
		<path fill="#4CB8D6" d="M41.7,0C18.7,0,0,18.7,0,41.7c0,23,18.7,41.7,41.7,41.7c23,0,41.7-18.7,41.7-41.7C83.3,18.7,64.6,0,41.7,0
			z M52,43.1h-6.8c0,10.8,0,24.2,0,24.2h-10c0,0,0-13.2,0-24.2h-4.8v-8.5h4.8v-5.5c0-4,1.9-10.1,10.1-10.1l7.4,0v8.3
			c0,0-4.5,0-5.4,0s-2.1,0.4-2.1,2.3v5h7.7L52,43.1z"/>
	</g>
</g>
</svg>
