<?xml version="1.0" encoding="utf-8"?>
<!-- Generator: Adobe Illustrator 17.1.0, SVG Export Plug-In . SVG Version: 6.00 Build 0)  -->
<!DOCTYPE svg PUBLIC "-//W3C//DTD SVG 1.1//EN" "http://www.w3.org/Graphics/SVG/1.1/DTD/svg11.dtd">
<svg version="1.1" xmlns="http://www.w3.org/2000/svg" xmlns:xlink="http://www.w3.org/1999/xlink" x="0px" y="0px"
	 viewBox="0 0 178.5 178.5" enable-background="new 0 0 178.5 178.5" xml:space="preserve">
<g id="Layer_1">
	<path fill="#79B85A" d="M45.4,11.5c22.7-12.3,46.7-15,71.1-7c27.4,8.9,46.2,27.7,56.6,54.6c0.3,0.9,0.7,1.8,1.3,3.2
		c0,0,0-0.1,0-0.1c2.5,8.1,3.9,16.6,4.1,25.5c0,0.1,0,0.3,0,0.4c-0.5,13.3-2.4,26.5-8.4,38.6c-4.3,8.7-9.4,16.4-15.2,23
		c-12.4,13.4-28.8,23-47.3,26.9c-0.1,0-0.3,0.1-0.4,0.1c-1.2,0.2-2.4,0.5-3.6,0.6c-0.4,0.1-0.8,0.1-1.2,0.2c-4.3,0.6-8.6,1-13,1
		c-18.2,0-35.2-5.5-49.3-14.9c-0.6-0.4-1.2-0.8-1.8-1.2C20,149.6,6.7,130,2,107.3H1.8c-4.1-20.3-1.2-42,9.5-61.5
		c2.3-4.2,4.1-8.6,5.7-13.1c1.7-4.9,2.1-10-0.1-15c-0.1-0.2,0.1-0.4,0.2-0.8c5.1,2.3,10.3,2.1,15.3,0.4
		C36.8,15.7,41.3,13.8,45.4,11.5"/>
</g>
<g id="Layer_2">
	<g>
		<g>
			<g>
				<g>
					<g>
						<g>
							<g>
								<path fill="#FFFFFF" d="M49.1,43c0-1.6,0.4-3,1.2-4.3c0.2-0.3-0.1-0.7-0.4-0.6c-4,1-6.8,4.8-6.4,9.1
									c0.3,4.1,3.7,7.5,7.8,7.8c2.8,0.3,5.4-0.9,7.2-2.8c0.2-0.3,0-0.7-0.3-0.7c-0.1,0-0.2,0-0.3,0C52.9,51.7,49.1,47.7,49.1,43z"
									/>
							</g>
						</g>
						<g>
							<path fill="#FFFFFF" d="M54.2,38.4l0.4,1.2h1.3c0.2,0,0.2,0.2,0.1,0.3l-1,0.8l0.4,1.3c0,0.2-0.1,0.3-0.3,0.3L54,41.5l-1,0.8
								c-0.2,0-0.3-0.1-0.3-0.2l0.4-1.3l-1-0.8c-0.2-0.1-0.1-0.3,0-0.3h1.3l0.4-1.2C53.9,38.3,54.2,38.3,54.2,38.4z"/>
						</g>
						<g>
							<path fill="#FFFFFF" d="M62.3,48.2l0.4,1.2H64c0.2,0,0.3,0.2,0.1,0.3l-1,0.8l0.4,1.2c0.1,0.2-0.1,0.3-0.3,0.2l-1-0.7l-1,0.7
								c-0.2,0.1-0.3,0-0.3-0.2l0.4-1.2l-1-0.8c-0.1-0.1-0.1-0.3,0.1-0.3h1.3l0.4-1.2C62,48.1,62.2,48.1,62.3,48.2z"/>
						</g>
						<g>
							<path fill="#FFFFFF" d="M62.1,39.6l0.6,1.8h1.9c0.2,0,0.3,0.3,0.1,0.4L63.3,43l0.5,1.8c0.1,0.2-0.2,0.4-0.3,0.2l-1.6-1.1
								L60.3,45c-0.2,0.1-0.4,0-0.3-0.2l0.5-1.8L59,41.9c-0.2-0.1-0.1-0.4,0.1-0.4H61l0.6-1.8C61.8,39.4,62.1,39.4,62.1,39.6z"/>
						</g>
					</g>
				</g>
			</g>
		</g>
		<path fill="#FFFFFF" d="M79.9,108.2c-1,0-1.9-0.6-2.3-1.6c-0.4-0.9-0.1-2,0.6-2.7l0.1-0.1l7.5-4.6v-2.7h4.3l2.8-1.8
			c0.1-0.1,0.2-0.1,0.2-0.2v-7.3c0-1.5,1.2-2.8,2.8-2.8c1.2,0,2.1,0.7,2.6,1.7l3.8,1.7c0.9,0.4,1.5,1.3,1.5,2.3s-0.6,1.9-1.4,2.3
			L98.9,94v0.6c0.1,0.1,0.2,0.1,0.2,0.2l9,5.6V61.5h-9.5v-6.3H66.9v6.3h-9.5v57.3h19.1v-6.3h5.4l1.6-4.2H79.9z M85.9,71h6.3v6.3
			h-6.3V71z M85.9,83.8h6.3v6.3h-6.3V83.8z M73.2,71h6.3v6.3h-6.3V71z M73.2,83.8h6.3v6.3h-6.3V83.8z M73.2,102.9v-6.3h6.3v6.3H73.2
			z"/>
		<g>
			<g>
				<g>
					<g>
						<path fill="#FFFFFF" d="M79.9,106.2h32.4c0.2,0,0.3-0.1,0.4-0.3c0.1-0.2,0-0.4-0.1-0.5L98,96.3c-0.3-0.3-0.7-0.5-1-0.6v-2.9
							l4.8-2.2c0.2-0.1,0.3-0.3,0.3-0.5c0-0.2-0.1-0.4-0.3-0.5l-4.9-2v-0.3c0-0.4-0.3-0.8-0.8-0.8c-0.4,0-0.8,0.3-0.8,0.8v8.5
							c-0.4,0.1-0.7,0.3-1,0.6l-14.7,9.1c-0.1,0.1-0.2,0.3-0.1,0.5C79.6,106.1,79.8,106.2,79.9,106.2z"/>
						<path fill="#FFFFFF" d="M113.9,126.5l5.7-21.8H87l-8.6,21.8c-0.1,0.5,0,0.9,0.3,1.3c0.3,0.4,0.7,0.6,1.2,0.6h10.8
							c0.3,0,0.5-0.2,0.6-0.4l4.1-10.4c0.1-0.3,0.3-0.4,0.6-0.4c0.3,0,0.5,0.2,0.6,0.4l4.1,10.4c0.1,0.3,0.3,0.4,0.6,0.4h10.8
							c0.5,0,0.9-0.2,1.2-0.6C113.9,127.4,114,127,113.9,126.5z"/>
					</g>
				</g>
			</g>
		</g>
		<g>
			<g>
				<g>
					<g>
						<path fill="#FFFFFF" d="M110.3,106.2h32.4c0.2,0,0.3-0.1,0.4-0.3c0.1-0.2,0-0.4-0.1-0.5l-14.7-9.1c-0.3-0.3-0.7-0.5-1-0.6
							v-2.9l4.8-2.2c0.2-0.1,0.3-0.3,0.3-0.5c0-0.2-0.1-0.4-0.3-0.5l-4.9-2v-0.3c0-0.4-0.3-0.8-0.8-0.8c-0.4,0-0.8,0.3-0.8,0.8v8.5
							c-0.4,0.1-0.7,0.3-1,0.6l-14.7,9.1c-0.1,0.1-0.2,0.3-0.1,0.5C110,106.1,110.1,106.2,110.3,106.2z"/>
						<path fill="#FFFFFF" d="M144.3,126.5l-8.6-21.8h-18.2l-8.6,21.8c-0.1,0.5,0,0.9,0.3,1.3c0.3,0.4,0.7,0.6,1.2,0.6h10.8
							c0.3,0,0.5-0.2,0.6-0.4l4.1-10.4c0.1-0.3,0.3-0.4,0.6-0.4s0.5,0.2,0.6,0.4l4.1,10.4c0.1,0.3,0.3,0.4,0.6,0.4h10.8
							c0.5,0,0.9-0.2,1.2-0.6C144.3,127.4,144.4,127,144.3,126.5z"/>
					</g>
				</g>
			</g>
		</g>
		<path display="none" fill="none" stroke="#FFFFFF" stroke-width="0.1801" d="M111.9,102.8L98,96.4c0,0-0.9-0.6-1-0.6v-2.9l4.2-1.9
			c0,0,0.9-0.3,0.9-0.7c0-0.3-0.8-0.7-0.8-0.7l-4.4-2c0,0,0.1-1.1-0.8-1.1c-0.9,0-0.8,1-0.8,1v8.3c-0.1,0-0.6,0.3-0.6,0.3l-15.1,9.4
			l-0.1,0.5l0.4,0.3h6.5l-4.6,8.1"/>
	</g>
</g>
</svg>
