<?xml version="1.0" encoding="utf-8"?>
<!-- Generator: Adobe Illustrator 17.1.0, SVG Export Plug-In . SVG Version: 6.00 Build 0)  -->
<!DOCTYPE svg PUBLIC "-//W3C//DTD SVG 1.1//EN" "http://www.w3.org/Graphics/SVG/1.1/DTD/svg11.dtd">
<svg version="1.1" id="Layer_1" xmlns="http://www.w3.org/2000/svg" xmlns:xlink="http://www.w3.org/1999/xlink" x="0px" y="0px"
	 viewBox="0 0 179.2 179.2" enable-background="new 0 0 179.2 179.2" xml:space="preserve">
<g>
	<path fill="#4CB8D7" d="M167.6,45.6c12.4,22.8,15,46.8,7.1,71.4c-8.9,27.5-27.8,46.3-54.9,56.8c-0.9,0.3-1.8,0.7-3.2,1.3
		c0,0,0.1,0,0.1,0c-8.1,2.5-16.7,4-25.6,4.1c-0.1,0-0.3,0-0.4,0c-13.4-0.5-26.6-2.4-38.7-8.4c-8.8-4.3-16.5-9.4-23.1-15.3
		C15.4,143,5.7,126.6,1.9,108c0-0.1-0.1-0.3-0.1-0.4c-0.2-1.2-0.5-2.4-0.6-3.6c-0.1-0.4-0.1-0.8-0.2-1.2c-0.6-4.3-1-8.6-1-13.1
		c0-18.3,5.5-35.3,15-49.5c0.4-0.6,0.8-1.2,1.2-1.8C29,20,48.7,6.7,71.5,2V1.8c20.4-4.1,42.2-1.2,61.7,9.5c4.2,2.3,8.7,4.2,13.2,5.8
		c5,1.7,10.1,2.1,15.1-0.1c0.2-0.1,0.4,0.1,0.8,0.2c-2.4,5.1-2.1,10.3-0.4,15.4C163.4,37,165.3,41.4,167.6,45.6"/>
</g>
<g>
	<g>
		<path fill="#FFFFFF" d="M88.3,42.9c-18.5,0-33.5,15-33.5,33.5c0,25.2,33.5,62.3,33.5,62.3s33.5-37.1,33.5-62.3
			C121.8,57.9,106.8,42.9,88.3,42.9z M88.3,88.4c-6.6,0-12-5.4-12-12c0-6.6,5.4-12,12-12s12,5.4,12,12
			C100.3,83.1,94.9,88.4,88.3,88.4z"/>
	</g>
</g>
</svg>
