<?xml version="1.0" encoding="utf-8"?>
<!-- Generator: Adobe Illustrator 17.1.0, SVG Export Plug-In . SVG Version: 6.00 Build 0)  -->
<!DOCTYPE svg PUBLIC "-//W3C//DTD SVG 1.1//EN" "http://www.w3.org/Graphics/SVG/1.1/DTD/svg11.dtd">
<svg version="1.1" id="Layer_1" xmlns="http://www.w3.org/2000/svg" xmlns:xlink="http://www.w3.org/1999/xlink" x="0px" y="0px"
	 viewBox="0 0 198 197.4" enable-background="new 0 0 198 197.4" xml:space="preserve">
<path fill="#F8DD3D" d="M184.6,147.2c13.6-25.2,16.5-51.6,7.8-78.6c-9.9-30.3-30.6-51-60.4-62.6c-1-0.4-1.9-0.8-3.5-1.4
	c0,0,0.1,0,0.1,0c-8.9-2.8-18.4-4.4-28.2-4.5c-0.2,0-0.3,0-0.5,0C85.1,0.6,70.6,2.7,57.2,9.3c-9.6,4.8-18.1,10.4-25.4,16.8
	C17,39.8,6.3,58,2.1,78.5C2,78.6,2,78.8,2,78.9c-0.3,1.3-0.5,2.6-0.7,4c-0.1,0.4-0.1,0.8-0.2,1.3C0.4,88.9,0,93.7,0,98.6
	c0,20.2,6.1,38.9,16.5,54.5c0.4,0.6,0.9,1.3,1.3,1.9c14.2,20.3,35.8,35,61,40.2v0.2c22.4,4.6,46.4,1.3,68-10.5
	c4.6-2.5,9.5-4.6,14.5-6.3c5.5-1.9,11.1-2.3,16.6,0.2c0.2,0.1,0.5-0.1,0.8-0.2c-2.6-5.6-2.3-11.4-0.4-16.9
	C180,156.7,182.1,151.8,184.6,147.2z M110.5,137c0,5.6-4.5,10.1-10.1,10.1c-5.6,0-10.1-4.5-10.1-10.1V99.7c-2.7-1.8-4.5-4.9-4.5-8.4
	c0-5.6,4.5-10.1,10.1-10.1h4.5c5.6,0,10.1,4.5,10.1,10.1V137z M100.4,75.5c-7.4,0-13.5-6-13.5-13.5s6-13.5,13.5-13.5
	c7.4,0,13.5,6,13.5,13.5C113.8,69.5,107.8,75.5,100.4,75.5z"/>
</svg>
