<?xml version="1.0" encoding="utf-8"?>
<!-- Generator: Adobe Illustrator 17.1.0, SVG Export Plug-In . SVG Version: 6.00 Build 0)  -->
<!DOCTYPE svg PUBLIC "-//W3C//DTD SVG 1.1//EN" "http://www.w3.org/Graphics/SVG/1.1/DTD/svg11.dtd">
<svg version="1.1" id="Layer_1" xmlns="http://www.w3.org/2000/svg" xmlns:xlink="http://www.w3.org/1999/xlink" x="0px" y="0px"
	 viewBox="0 0 1690.1 2383.9" enable-background="new 0 0 1690.1 2383.9" xml:space="preserve">
<g>
	<path fill="#9260A0" d="M864.9,834c-210,0-380.1,170.9-380.1,381s170.9,380.1,380.1,380.1c210,0,380.1-170.9,380.1-380.1
		C1245.8,1004.9,1074.9,834,864.9,834z M1048.5,1062.7l-129.3,199.8c-1.7,2.6-4.3,5.1-6.8,6.8l-199.8,129.3
		c-3.4,2.6-7.7,3.4-12.8,3.4c-6,0-11.9-2.6-16.2-6.8c-7.7-7.7-8.5-19.6-3.4-28.1l129.3-199.8c1.7-2.6,4.3-5.1,6.8-6.8l199.8-129.3
		c3.4-2.6,7.7-3.4,12.8-3.4c6,0,11.9,2.6,16.2,6.8C1052.8,1041.5,1054.5,1053.4,1048.5,1062.7z"/>
	<circle fill="#9260A0" cx="864.9" cy="1214.9" r="35.7"/>
	<path fill="#9260A0" d="M1580.9,1612.9c116.5-215.1,142-442.2,66.3-672.7c-84.2-259.4-261.9-437.1-517.9-535.7
		c-8.5-3.4-17-6.8-30.6-11.9h0.9c-76.5-23.8-157.3-37.4-241.5-38.3c-1.7,0-2.6,0-4.3,0c-125,3.4-249.2,21.3-364,78.2
		c-82.5,40.8-155.6,89.3-217.7,144.6C145.4,693.6,54.4,849.3,17.9,1024.4c0,1.7-0.9,2.6-0.9,4.3c-2.6,11.1-4.3,23-6,34
		c-0.9,3.4-0.9,7.7-1.7,11.1c-6,40-9.4,81.6-9.4,123.3c0,172.6,51.9,333.4,141.2,466.9c3.4,6,7.7,11.1,11.1,17
		c121.6,173.5,307,299.3,522.1,343.6v1.7c192.2,39.1,398,11.1,581.7-90.1c39.1-21.3,81.6-39.1,124.2-54.4
		c46.8-16.2,95.2-19.6,142,1.7c1.7,0.9,4.3-0.9,6.8-1.7c-22.1-48.5-20.4-97.8-3.4-145.4C1541.8,1694.6,1559.6,1652,1580.9,1612.9z
		 M864.9,1698.8c-267.9,0-484.7-216.9-484.7-484.7S597,729.4,864.9,729.4s484.7,216.9,484.7,484.7S1132.7,1698.8,864.9,1698.8z"/>
</g>
</svg>
