<?xml version="1.0" encoding="utf-8"?>
<!-- Generator: Adobe Illustrator 17.1.0, SVG Export Plug-In . SVG Version: 6.00 Build 0)  -->
<!DOCTYPE svg PUBLIC "-//W3C//DTD SVG 1.1//EN" "http://www.w3.org/Graphics/SVG/1.1/DTD/svg11.dtd">
<svg version="1.1" id="Layer_1" xmlns="http://www.w3.org/2000/svg" xmlns:xlink="http://www.w3.org/1999/xlink" x="0px" y="0px"
	 viewBox="0 0 1683.8 1684.1" enable-background="new 0 0 1683.8 1684.1" xml:space="preserve">
<g id="Layer_2">
	<g>
		<circle fill="#9260A0" cx="845.7" cy="858.7" r="35.4"/>
		<path fill="#9260A0" d="M1575,1254.8c116.4-214.6,141-439.8,66.1-670.2c-83.8-258.8-261.1-435.2-515.2-533.8
			c-8.4-3.3-16.8-6.5-30.3-12.1c0.5,0,0.5-0.5,0.9-0.5C1020.7,14.4,939.7,0.9,855.9,0c-1.4,0-2.8,0.5-4.2,0.5
			C726.1,5.1,602.3,22.8,488.2,79.6c-82.4,40.5-154.5,88.4-216.9,143.8C144.7,340.2,54,494.8,17.7,669.8c-0.5,1.4-0.5,2.8-0.9,3.7
			c-2.3,11.2-4.2,22.8-6.1,34c-0.5,3.7-0.9,7.4-1.9,10.7C2.8,758.2,0,799.6,0,841c0,171.7,51.7,331.4,140.6,465
			c3.7,5.6,7.4,11.2,11.2,16.8c121,172.7,305.8,298.3,519.9,342.6v1.9c191.3,39.1,396.1,11.2,579.5-89.4
			c39.6-21.4,81.5-39.1,123.8-54c46.5-16.3,94.5-19.5,142,1.4c1.4,0.5,4.2-0.9,7-1.4c-22.3-47.9-20-97.3-3.3-144.3
			C1535.9,1336.2,1553.6,1294.4,1575,1254.8z M845.7,1324.6c-266.2,0-482.2-216-482.2-482.2s216-482.2,482.2-482.2
			s482.2,216,482.2,482.2C1327.9,1108.7,1111.9,1324.6,845.7,1324.6z"/>
		<path fill="#9260A0" d="M845.7,463.1c-209,0-378.9,169.9-378.9,378.9s169.9,378.9,378.9,378.9s378.9-169.9,378.9-378.9
			C1224.5,633.4,1054.7,463.1,845.7,463.1z M1028.6,707L899.7,905.7c-1.9,2.8-4.2,5.1-6.5,6.5l-198.7,128.9
			c-3.7,2.3-7.9,3.7-12.1,3.7c-6.1,0-11.6-2.3-15.8-6.5c-7.4-7.4-8.8-19.5-2.8-28.4l128.9-198.7c1.9-2.8,4.2-5.1,6.5-6.5
			l198.7-128.9c3.7-2.3,7.9-3.7,12.1-3.7c6.1,0,11.6,2.3,15.8,6.5C1033.3,686,1034.2,698.1,1028.6,707z"/>
	</g>
</g>
</svg>
