<?xml version="1.0" encoding="utf-8"?>
<!-- Generator: Adobe Illustrator 17.0.0, SVG Export Plug-In . SVG Version: 6.00 Build 0)  -->
<!DOCTYPE svg PUBLIC "-//W3C//DTD SVG 1.1//EN" "http://www.w3.org/Graphics/SVG/1.1/DTD/svg11.dtd">
<svg version="1.1" id="Layer_1" xmlns="http://www.w3.org/2000/svg" xmlns:xlink="http://www.w3.org/1999/xlink" x="0px" y="0px"
	 width="301.869px" height="71.464px" viewBox="0 0 301.869 71.464" enable-background="new 0 0 301.869 71.464"
	 xml:space="preserve">
<g>
	<g>
		<path fill="#FFFFFF" d="M137.534,31.684c-1.242-1.077-2.693-1.914-4.306-2.453c-1.624-0.55-3.304-0.832-4.992-0.832
			c-1.699,0-3.381,0.282-5.002,0.832c-1.613,0.54-3.06,1.366-4.304,2.436c-1.257,1.071-2.277,2.441-3.059,4.071
			c-0.772,1.618-1.17,3.553-1.17,5.743c0,2.188,0.386,4.104,1.17,5.696c0.778,1.604,1.802,2.962,3.059,4.042
			c1.255,1.073,2.697,1.89,4.299,2.426c3.267,1.073,6.74,1.077,9.999-0.026c1.613-0.537,3.064-1.366,4.311-2.44
			c1.252-1.07,2.269-2.435,3.055-4.036c0.773-1.6,1.169-3.493,1.169-5.663c0-2.184-0.396-4.118-1.169-5.721
			C139.817,34.146,138.79,32.769,137.534,31.684 M132.226,44.324c-0.467,0.78-1.058,1.379-1.762,1.777
			c-0.714,0.405-1.477,0.605-2.289,0.605c-0.805,0-1.568-0.2-2.284-0.597c-0.713-0.412-1.305-1.005-1.767-1.766
			c-0.472-0.774-0.704-1.743-0.704-2.901c0-1.147,0.232-2.129,0.704-2.915c0.465-0.781,1.055-1.381,1.767-1.781
			c1.417-0.797,3.151-0.797,4.567-0.005c0.704,0.398,1.301,1,1.768,1.776c0.472,0.803,0.707,1.778,0.707,2.926
			C132.933,42.569,132.698,43.534,132.226,44.324"/>
		<polygon fill="#FFFFFF" points="169.465,35.92 175.061,35.92 175.061,53.999 183.899,53.999 183.899,35.92 189.491,35.92 
			189.491,29.117 169.465,29.117 		"/>
		<path fill="#FFFFFF" d="M213.307,31.818c-1.29-0.955-2.8-1.649-4.483-2.069c-1.72-0.421-3.542-0.632-5.393-0.632h-11.576v24.882
			h11.576c1.832,0,3.633-0.206,5.376-0.623c1.686-0.405,3.192-1.089,4.474-2.034c1.26-0.946,2.299-2.214,3.082-3.785
			c0.761-1.571,1.155-3.575,1.155-5.96c0-2.383-0.382-4.392-1.145-5.983C215.612,34.032,214.581,32.748,213.307,31.818
			 M208.372,43.688c-0.215,0.677-0.548,1.302-0.982,1.845c-0.477,0.568-1.029,1.012-1.67,1.335c-0.654,0.334-1.426,0.505-2.29,0.505
			h-2.785v-11.64h2.785c0.855,0,1.636,0.174,2.319,0.524c0.663,0.345,1.232,0.822,1.67,1.39c0.416,0.543,0.738,1.176,0.954,1.879
			c0.211,0.678,0.312,1.389,0.312,2.11C208.684,42.326,208.583,43.021,208.372,43.688"/>
		<path fill="#FFFFFF" d="M242.688,31.687c-1.248-1.08-2.695-1.916-4.313-2.456c-1.624-0.55-3.31-0.832-4.993-0.832
			c-1.696,0-3.375,0.282-5.002,0.832c-1.604,0.54-3.059,1.362-4.313,2.436c-1.248,1.075-2.273,2.444-3.044,4.071
			c-0.781,1.618-1.174,3.553-1.174,5.743c0,2.188,0.392,4.104,1.169,5.696c0.775,1.604,1.801,2.962,3.049,4.042
			c1.268,1.073,2.722,1.895,4.311,2.426c3.27,1.073,6.735,1.077,9.996-0.026c1.618-0.544,3.065-1.366,4.313-2.435
			c1.24-1.075,2.268-2.424,3.05-4.045c0.775-1.597,1.169-3.505,1.169-5.659c0-2.183-0.394-4.108-1.169-5.721
			C244.956,34.139,243.928,32.768,242.688,31.687 M237.378,44.324c-0.465,0.78-1.057,1.379-1.772,1.777
			c-0.702,0.405-1.476,0.605-2.283,0.605c-0.805,0-1.578-0.2-2.283-0.597c-0.716-0.41-1.301-1.003-1.762-1.766
			c-0.471-0.776-0.713-1.747-0.713-2.901c0-1.145,0.242-2.122,0.71-2.915c0.465-0.786,1.056-1.388,1.765-1.781
			c1.431-0.797,3.167-0.791,4.566,0c0.715,0.393,1.307,0.996,1.772,1.771c0.469,0.803,0.707,1.781,0.707,2.926
			C238.085,42.563,237.847,43.534,237.378,44.324"/>
		<path fill="#FFFFFF" d="M272.095,31.684c-1.249-1.077-2.695-1.914-4.31-2.453c-1.629-0.55-3.304-0.832-4.999-0.832
			c-1.684,0-3.367,0.282-4.996,0.832c-1.607,0.54-3.064,1.366-4.304,2.436c-1.245,1.075-2.284,2.444-3.066,4.071
			c-0.765,1.625-1.156,3.56-1.156,5.743c0,2.182,0.385,4.095,1.156,5.696c0.781,1.604,1.815,2.962,3.066,4.042
			c1.253,1.073,2.704,1.895,4.299,2.426c3.27,1.073,6.735,1.077,10-0.026c1.615-0.537,3.06-1.366,4.315-2.44
			c1.243-1.07,2.271-2.435,3.052-4.04c0.772-1.595,1.16-3.497,1.16-5.659c0-2.184-0.388-4.108-1.16-5.721
			C274.37,34.146,273.342,32.769,272.095,31.684 M266.785,44.324c-0.453,0.77-1.05,1.373-1.764,1.777
			c-0.711,0.405-1.471,0.605-2.284,0.605c-0.818,0-1.584-0.2-2.285-0.597c-0.715-0.412-1.309-1.005-1.761-1.766
			c-0.473-0.774-0.718-1.743-0.718-2.901c0-1.149,0.238-2.132,0.718-2.915c0.452-0.786,1.046-1.388,1.761-1.781
			c1.413-0.797,3.141-0.797,4.568-0.005c0.714,0.405,1.305,1.008,1.772,1.786c0.465,0.793,0.688,1.748,0.688,2.915
			C267.481,42.584,267.251,43.543,266.785,44.324"/>
		<path fill="#FFFFFF" d="M297.955,45.16c1.072-0.662,1.934-1.566,2.573-2.68c0.645-1.115,0.973-2.59,0.973-4.383
			c0-1.814-0.35-3.317-1.003-4.456c-0.669-1.141-1.554-2.051-2.648-2.714c-1.117-0.675-2.43-1.157-3.881-1.408
			c-1.517-0.27-3.087-0.403-4.656-0.403h-10.636v24.882h8.838v-6.991h1.868l3.351,6.991h9.136l-4.471-8.484L297.955,45.16z
			 M291.78,40.046c-0.505,0.304-1.228,0.462-2.223,0.485h-1.446h-0.71v-4.95h2.142c2.778,0,3.19,1.571,3.19,2.517
			C292.733,39.246,292.211,39.798,291.78,40.046"/>
		<polygon fill="#FFFFFF" points="136.774,7.272 136.774,0.949 117.119,0.949 117.119,25.841 136.774,25.841 136.774,19.525 
			125.912,19.525 125.912,16.368 136.364,16.368 136.364,10.47 125.912,10.47 125.912,7.272 		"/>
		<polygon fill="#FFFFFF" points="157.786,0.949 153.448,7.601 149.128,0.949 139.467,0.949 147.263,13.207 139.479,25.841 
			149.152,25.841 153.448,18.746 157.762,25.841 167.38,25.841 159.604,13.2 167.442,0.949 		"/>
		<polygon fill="#FFFFFF" points="169.653,7.766 175.254,7.766 175.254,25.841 184.085,25.841 184.085,7.766 189.677,7.766 
			189.677,0.948 169.653,0.948 		"/>
		<path fill="#FFFFFF" d="M214.051,14.322c0.646-1.115,0.966-2.584,0.966-4.38c0-1.824-0.332-3.321-0.998-4.451
			c-0.663-1.148-1.548-2.058-2.645-2.723c-1.124-0.674-2.426-1.153-3.894-1.41c-1.521-0.269-3.082-0.408-4.641-0.408h-10.638v24.891
			h8.826v-6.996h1.883l3.344,6.996h9.14l-4.479-8.486l0.562-0.348C212.541,16.332,213.42,15.439,214.051,14.322 M205.302,11.893
			c-0.506,0.297-1.233,0.458-2.224,0.485h-1.445h-0.707V7.424h2.136c2.782,0,3.193,1.578,3.193,2.518
			C206.255,11.084,205.737,11.632,205.302,11.893"/>
		<polygon fill="#FFFFFF" points="237.378,19.525 226.51,19.525 226.51,16.369 236.956,16.369 236.956,10.47 226.51,10.47 
			226.51,7.271 237.378,7.271 237.378,0.949 217.714,0.949 217.714,25.841 237.378,25.841 		"/>
		<path fill="#FFFFFF" d="M281.048,0.656l-9.919,25.184h9.424l1.127-3.037h9.325l1.174,3.037h9.431v-0.159l-9.914-25.025H281.048z
			 M284.046,16.185l2.307-6.478l2.32,6.478H284.046z"/>
		<polygon fill="#FFFFFF" points="254.726,18.778 260.284,12.786 260.284,25.841 268.868,25.841 268.868,0.948 260.026,0.948 
			254.429,7.675 248.836,0.948 239.962,0.948 239.962,25.841 248.535,25.841 248.633,12.854 254.136,18.778 		"/>
		<polygon fill="#FFFFFF" points="301.778,0.656 297.635,0.656 301.778,10.748 		"/>
		<path fill="#FFFFFF" d="M158.071,30.166c0.087,0.316,0.81,0.316,0.81,0.316s-0.583,0.282-0.693,0.434
			c-0.117,0.178,0,0.442,0,0.442s0.079,0.456,0.759,1.038c0.764,0.556,1.152,1.78,0.059,2.878c-0.8,0.801-1.183,1.13-1.414,1.502
			c-0.133,0.216-0.126,0.409-0.01,0.548c0.18,0.309,0.675,0.267,0.675,0.267s0.329,0,0.495-0.19
			c0.264-0.304,0.167-0.971,0.167-0.971s0.325,0.486,0.634,0.655c0.49,0.271,1.464-0.158,1.464-0.158s-0.199,0.246-0.344,0.474
			c-0.152,0.225-0.291,0.401-0.246,0.718c0.084,0.537,1.366,0.713,1.366,0.713s-1.717,0.288-1.237,0.996
			c0.217,0.314,0.691,0.484,0.691,0.484c-0.414-0.107-1.015-0.061-1.054,0.467c-0.023,0.315,0.073,0.66,0.073,0.66
			s-0.638-0.426-0.907-0.426c-0.152,0-0.345,0-0.235,0.276c0.07,0.15,0.918,1.187,0.492,2.861c-0.141,0.515-0.311,1.036-1.052,1.904
			c-0.619,0.75-1.909,1.69-3.713,1.69c-2.172,0-2.855-1.25-2.855-1.25s-0.335-0.464-0.439-1.047
			c-0.084-0.607-0.035-1.025,0.116-1.389c0.144-0.361,0.454-0.75,0.903-0.884c0.457-0.156,0.854-0.099,1.099-0.047
			c0.846,0.203,1.199,0.838,1.229,1.185c0.037,0.455-0.086,0.85-0.086,0.85h-0.238c0,0-0.156-1.282-1.356-1.22
			c-0.573,0-0.667,0.618-0.667,0.618s-0.118,0.451,0.099,0.979c0.221,0.505,0.589,0.728,0.955,0.841
			c0.349,0.106,1.008,0.133,1.418,0c1.156-0.395,1.464-1.6,1.464-1.6s0.557-1.778-0.346-3.019c-0.424-0.646-1.713-1.373-1.713-1.373
			s-1.435-0.721-1.758-0.994c-0.667-0.564-0.846-1.099-0.911-1.664c-0.049-0.525,0.014-0.921,0.117-1.314
			c0.217-0.821,1.108-1.611,1.108-1.611s0.603-0.568,2.324-1.483c0.463-0.233,0.353-0.529,0.29-0.679
			c-0.051-0.154-0.327-0.488-0.327-0.488s-0.356,0.689-0.795,0.781c-0.449,0.11-1.272,0.082-1.548,0.082
			c-0.241,0-0.667,0.055-0.811,0.193c-0.158,0.162-0.34,0.342-0.555,0.387c-0.203,0.061-0.491,0.028-0.629-0.016
			c-0.126-0.029-0.219-0.106-0.246-0.234c-0.03-0.149,0-0.379,0.12-0.565c0.112-0.139,0.418-0.389,0.67-0.509
			c0.261-0.163,0.859-0.791,0.859-0.791s0.339-0.304,0.583-1.064c0.166-0.526,0.285-0.984,0.423-1.304h-0.275h-8.874v16.13
			c0,1.568,0.329,2.932,0.969,4.076c0.642,1.154,1.501,2.126,2.548,2.893c1.053,0.775,2.27,1.366,3.635,1.737
			c2.754,0.755,5.785,0.755,8.557-0.005c1.367-0.366,2.583-0.957,3.645-1.732c1.036-0.766,1.881-1.737,2.52-2.887
			c0.622-1.139,0.943-2.514,0.943-4.082v-16.13h-8.646C158.201,29.434,157.997,29.873,158.071,30.166"/>
		<path fill="#FFFFFF" d="M59.436,46.354c8.92,8.92,22.507,10.331,32.911,4.236c0,0.005-0.002,0.01,0,0.01
			c3.518-1.882,6.485-2.517,8.627-1.116c-1.408-2.13-0.773-5.102,1.106-8.62h-0.004c6.09-10.403,4.682-23.988-4.241-32.913
			C87.231-2.652,70.038-2.649,59.441,7.952C48.838,18.558,48.831,35.747,59.436,46.354 M70.541,19.06
			c4.469-4.47,11.714-4.47,16.182,0c4.472,4.47,4.472,11.713,0.004,16.182c-4.468,4.467-11.717,4.468-16.186,0
			C66.072,30.774,66.074,23.527,70.541,19.06"/>
		<path fill="#FFFFFF" d="M75.6,24.308c0.096,0.038,0.292,0.057,0.439,0.013c0.147-0.03,0.277-0.158,0.384-0.267
			c0.105-0.096,0.4-0.14,0.57-0.14c0.186,0,0.755,0.022,1.075-0.053c0.301-0.069,0.556-0.542,0.556-0.542s0.191,0.227,0.229,0.34
			c0.036,0.099,0.113,0.305-0.207,0.471c-1.194,0.638-1.622,1.033-1.622,1.033s-0.616,0.55-0.768,1.121
			c-0.07,0.276-0.116,0.549-0.08,0.919c0.043,0.393,0.163,0.762,0.635,1.157c0.223,0.191,1.224,0.689,1.224,0.689
			s0.896,0.505,1.194,0.959c0.627,0.865,0.238,2.104,0.238,2.104s-0.214,0.838-1.021,1.115c-0.286,0.092-0.74,0.07-0.985,0
			c-0.253-0.085-0.515-0.23-0.669-0.586c-0.154-0.37-0.07-0.68-0.07-0.68s0.061-0.434,0.472-0.434
			c0.833-0.041,0.943,0.85,0.943,0.85h0.163c0,0,0.083-0.281,0.061-0.595c-0.03-0.244-0.268-0.688-0.86-0.823
			c-0.163-0.036-0.444-0.08-0.754,0.032c-0.324,0.096-0.538,0.367-0.64,0.617c-0.102,0.254-0.136,0.545-0.078,0.968
			c0.075,0.401,0.306,0.727,0.306,0.727s0.476,0.873,1.98,0.873c1.264,0,2.162-0.653,2.594-1.173
			c0.514-0.612,0.623-0.971,0.732-1.335c0.302-1.164-0.29-1.881-0.345-1.99c-0.071-0.186,0.062-0.186,0.165-0.186
			c0.191,0,0.632,0.295,0.632,0.295s-0.067-0.242-0.046-0.464c0.023-0.367,0.44-0.401,0.731-0.323c0,0-0.333-0.119-0.482-0.333
			c-0.333-0.5,0.864-0.702,0.864-0.702s-0.897-0.119-0.95-0.499c-0.036-0.215,0.065-0.341,0.168-0.494
			c0.099-0.161,0.233-0.328,0.233-0.328s-0.668,0.296-1.013,0.096c-0.221-0.111-0.448-0.453-0.448-0.453s0.074,0.471-0.111,0.684
			c-0.116,0.13-0.348,0.13-0.348,0.13s-0.341,0.03-0.47-0.185c-0.076-0.097-0.084-0.236,0.014-0.385
			c0.15-0.259,0.419-0.485,0.979-1.045c0.764-0.763,0.493-1.616-0.043-2.005c-0.469-0.407-0.527-0.721-0.527-0.721
			s-0.082-0.187,0.005-0.31c0.072-0.106,0.477-0.303,0.477-0.303s-0.508,0.006-0.563-0.22c-0.082-0.337,0.376-0.995,0.376-0.995
			s-0.516,0.225-0.667,0.225c-0.527,0-0.07-0.904-0.07-0.904s-0.533,0.401-0.96,0.32c-0.368-0.071-0.426-0.633-0.426-0.633
			s0,0.42-0.149,0.508c-0.117,0.07-0.472,0-0.472,0s0.298,0.399,0.083,0.436c-0.072,0.037-0.374-0.073-0.517-0.073
			c-0.039,0-0.18-0.01-0.354,0.164c-0.161,0.17-0.251,0.616-0.423,1.13c-0.166,0.533-0.404,0.743-0.404,0.743
			s-0.421,0.438-0.6,0.548c-0.17,0.086-0.392,0.262-0.467,0.356c-0.083,0.128-0.103,0.289-0.083,0.397
			C75.45,24.24,75.511,24.291,75.6,24.308"/>
		<polygon fill="#FFFFFF" points="21.855,53.391 29.41,42.128 36.969,53.391 57.039,53.391 39.445,27.175 57.039,0.966 
			36.969,0.966 29.41,12.229 21.855,0.966 1.789,0.966 19.378,27.175 1.789,53.391 		"/>
	</g>
	<g>
		<path fill="#FFFFFF" d="M2.693,70.887v-5.732l-1.437,1.449L0,65.283l2.988-2.95h1.911v8.554H2.693z"/>
		<path fill="#FFFFFF" d="M9.708,70.887v-5.732l-1.437,1.449l-1.257-1.321l2.988-2.95h1.911v8.554H9.708z"/>
		<path fill="#FFFFFF" d="M18.57,70.271l0.924-1.679c0.308,0.256,0.718,0.5,1.231,0.5c0.692,0,1.141-0.449,1.141-1.167v-5.591h2.205
			v5.617c0,2.116-1.282,3.09-3.155,3.09C20.058,71.041,19.211,70.836,18.57,70.271z"/>
		<path fill="#FFFFFF" d="M26.893,67.425v-5.091h2.244v5.014c0,1.013,0.603,1.744,1.808,1.744c1.18,0,1.795-0.731,1.795-1.744
			v-5.014h2.231v5.078c0,2.129-1.295,3.63-4.027,3.63C28.188,71.041,26.893,69.528,26.893,67.425z"/>
		<path fill="#FFFFFF" d="M37.794,70.887v-8.554H40v6.63h3.437v1.924H37.794z"/>
		<path fill="#FFFFFF" d="M45.861,70.887v-8.554h2.206v8.554H45.861z"/>
		<path fill="#FFFFFF" d="M55.248,70.887v-1.718c3.706-2.68,4.399-3.271,4.399-4.117c0-0.59-0.551-0.898-1.18-0.898
			c-0.949,0-1.667,0.36-2.283,0.937l-1.218-1.462c0.911-1,2.27-1.423,3.463-1.423c2.013,0,3.463,1.128,3.463,2.847
			c0,1.308-0.936,2.424-3.065,3.911h3.129v1.924H55.248z"/>
		<path fill="#FFFFFF" d="M64.084,66.616c0-2.257,1.167-4.411,3.668-4.411c2.501,0,3.668,2.154,3.668,4.411
			c0,2.257-1.167,4.425-3.668,4.425C65.251,71.041,64.084,68.874,64.084,66.616z M69.188,66.616c0-1.513-0.41-2.462-1.436-2.462
			c-1.026,0-1.436,0.949-1.436,2.462c0,1.514,0.41,2.475,1.436,2.475C68.778,69.092,69.188,68.13,69.188,66.616z"/>
		<path fill="#FFFFFF" d="M75.793,70.887v-5.732l-1.436,1.449L73.1,65.283l2.988-2.95h1.911v8.554H75.793z"/>
		<path fill="#FFFFFF" d="M80.564,69.797l1.206-1.539c0.59,0.539,1.398,0.834,2.219,0.834c0.936,0,1.398-0.462,1.398-0.987
			c0-0.577-0.449-0.988-1.334-0.988c-0.68,0-1.218,0.192-1.693,0.641l-1.526-0.372v-5.053h6.207v1.924h-4.002v1.655
			c0.41-0.398,1.077-0.68,1.834-0.68c1.449,0,2.757,1.064,2.757,2.783c0,1.847-1.398,3.027-3.616,3.027
			C82.501,71.041,81.359,70.579,80.564,69.797z"/>
		<path fill="#FFFFFF" d="M100.391,70.887l-0.423-1.231h-3.373l-0.423,1.231h-2.501l3.219-8.554h2.77l3.232,8.554H100.391z
			 M98.275,64.514l-1.09,3.219h2.18L98.275,64.514z"/>
		<path fill="#FFFFFF" d="M104.367,66.616c0-2.603,1.962-4.424,4.578-4.424c2.616,0,4.566,1.821,4.566,4.424
			c0,1.18-0.398,2.206-1.077,2.963l0.539,0.654l-1.539,1.231l-0.628-0.77c-0.564,0.218-1.193,0.347-1.86,0.347
			C106.328,71.041,104.367,69.22,104.367,66.616z M109.445,69.041l-0.783-0.949l1.526-1.231l0.808,0.975
			c0.166-0.359,0.269-0.769,0.269-1.218c0-1.398-0.91-2.475-2.321-2.475c-1.423,0-2.334,1.077-2.334,2.475
			c0,1.385,0.91,2.475,2.334,2.475C109.112,69.092,109.278,69.079,109.445,69.041z"/>
		<path fill="#FFFFFF" d="M115.909,67.425v-5.091h2.244v5.014c0,1.013,0.603,1.744,1.809,1.744c1.18,0,1.796-0.731,1.796-1.744
			v-5.014h2.231v5.078c0,2.129-1.295,3.63-4.026,3.63C117.204,71.041,115.909,69.528,115.909,67.425z"/>
		<path fill="#FFFFFF" d="M132.619,70.887l-0.423-1.231h-3.373l-0.423,1.231h-2.501l3.219-8.554h2.77l3.232,8.554H132.619z
			 M130.503,64.514l-1.09,3.219h2.181L130.503,64.514z"/>
		<path fill="#FFFFFF" d="M137.031,70.887v-8.554h4.848c1.693,0,2.501,1.103,2.501,2.181c0,1.064-0.654,1.782-1.462,1.962
			c0.91,0.141,1.628,1.013,1.628,2.09c0,1.244-0.833,2.321-2.513,2.321H137.031z M142.135,64.898c0-0.41-0.308-0.705-0.757-0.705
			h-2.141v1.423h2.141C141.827,65.616,142.135,65.321,142.135,64.898z M142.302,68.258c0-0.423-0.308-0.769-0.846-0.769h-2.219
			v1.539h2.219C141.981,69.027,142.302,68.72,142.302,68.258z"/>
		<path fill="#FFFFFF" d="M147.034,70.887v-8.554h6.271v1.924h-4.066v1.334h3.976v1.924h-3.976v1.449h4.066v1.924H147.034z"/>
		<path fill="#FFFFFF" d="M155.255,69.682l1.167-1.654c0.615,0.616,1.564,1.129,2.732,1.129c0.757,0,1.218-0.295,1.218-0.706
			c0-1.167-4.848-0.231-4.848-3.527c0-1.437,1.218-2.719,3.411-2.719c1.372,0,2.564,0.41,3.476,1.192l-1.206,1.577
			c-0.718-0.59-1.654-0.884-2.501-0.884c-0.641,0-0.923,0.256-0.923,0.615c0,1.09,4.835,0.295,4.835,3.476
			c0,1.718-1.27,2.86-3.565,2.86C157.319,71.041,156.114,70.503,155.255,69.682z"/>
		<path fill="#FFFFFF" d="M166.835,70.887v-6.63h-2.398v-1.924h6.989v1.924h-2.385v6.63H166.835z"/>
		<path fill="#FFFFFF" d="M178.467,70.887v-8.554h4.207c1.564,0,2.437,0.975,2.437,2.181c0,1.077-0.693,1.795-1.488,1.962
			c0.911,0.141,1.655,1.052,1.655,2.103c0,1.321-0.885,2.308-2.488,2.308H178.467z M183.571,64.77c0-0.641-0.436-1.116-1.205-1.116
			h-2.398v2.219h2.398C183.135,65.873,183.571,65.411,183.571,64.77z M183.738,68.374c0-0.641-0.449-1.18-1.308-1.18h-2.462v2.372
			h2.462C183.251,69.566,183.738,69.117,183.738,68.374z"/>
		<path fill="#FFFFFF" d="M188.06,70.887v-8.554h5.861v1.321h-4.36v2.219h4.27v1.321h-4.27v2.372h4.36v1.321H188.06z"/>
		<path fill="#FFFFFF" d="M196.191,69.682l0.834-1.154c0.59,0.628,1.513,1.18,2.706,1.18c1.231,0,1.718-0.603,1.718-1.167
			c0-1.795-4.989-0.679-4.989-3.835c0-1.41,1.244-2.5,3.117-2.5c1.334,0,2.411,0.423,3.206,1.192l-0.859,1.116
			c-0.667-0.667-1.578-0.975-2.475-0.975c-0.885,0-1.449,0.423-1.449,1.064c0,1.59,4.976,0.603,4.976,3.796
			c0,1.423-1,2.642-3.309,2.642C198.089,71.041,196.947,70.489,196.191,69.682z"/>
		<path fill="#FFFFFF" d="M207.682,70.887v-7.233h-2.591v-1.321h6.681v1.321h-2.59v7.233H207.682z"/>
		<path fill="#FFFFFF" d="M213.414,71.144l3.039-9.067h1l-3.039,9.067H213.414z"/>
		<path fill="#FFFFFF" d="M219.647,70.887v-8.554h5.861v1.321h-4.36v2.219h4.27v1.321h-4.27v2.372h4.36v1.321H219.647z"/>
		<path fill="#FFFFFF" d="M228.329,70.887v-8.554h1.501v8.554H228.329z"/>
		<path fill="#FFFFFF" d="M238.896,70.887l-4.463-6.104v6.104h-1.501v-8.554h1.539l4.374,5.938v-5.938h1.5v8.554H238.896z"/>
		<path fill="#FFFFFF" d="M243.449,70.887v-8.554h3.18c2.668,0,4.476,1.77,4.476,4.283c0,2.514-1.808,4.271-4.476,4.271H243.449z
			 M249.567,66.616c0-1.654-1.026-2.962-2.937-2.962h-1.68v5.912h1.68C248.489,69.566,249.567,68.232,249.567,66.616z"/>
		<path fill="#FFFFFF" d="M259.788,70.887v-3.732h-4.45v3.732h-1.501v-8.554h1.501v3.501h4.45v-3.501h1.501v8.554H259.788z"/>
		<path fill="#FFFFFF" d="M264.007,66.616c0-2.552,1.808-4.424,4.373-4.424c2.565,0,4.373,1.872,4.373,4.424
			c0,2.553-1.809,4.425-4.373,4.425C265.815,71.041,264.007,69.169,264.007,66.616z M271.215,66.616c0-1.769-1.116-3.09-2.834-3.09
			c-1.731,0-2.834,1.321-2.834,3.09c0,1.757,1.103,3.091,2.834,3.091C270.098,69.707,271.215,68.374,271.215,66.616z"/>
		<path fill="#FFFFFF" d="M277.948,70.887l-3.36-8.554h1.705l2.591,6.926l2.591-6.926h1.706l-3.36,8.554H277.948z"/>
		<path fill="#FFFFFF" d="M285.398,70.887v-8.554h5.861v1.321h-4.36v2.219h4.27v1.321h-4.27v2.372h4.36v1.321H285.398z"/>
		<path fill="#FFFFFF" d="M300.044,70.887l-4.463-6.104v6.104h-1.501v-8.554h1.539l4.373,5.938v-5.938h1.5v8.554H300.044z"/>
	</g>
</g>
</svg>
