<?xml version="1.0" encoding="utf-8"?>
<!-- Generator: Adobe Illustrator 17.1.0, SVG Export Plug-In . SVG Version: 6.00 Build 0)  -->
<!DOCTYPE svg PUBLIC "-//W3C//DTD SVG 1.1//EN" "http://www.w3.org/Graphics/SVG/1.1/DTD/svg11.dtd">
<svg version="1.1" id="Layer_1" xmlns="http://www.w3.org/2000/svg" xmlns:xlink="http://www.w3.org/1999/xlink" x="0px" y="0px"
	 viewBox="0 0 179.2 179.2" enable-background="new 0 0 179.2 179.2" xml:space="preserve">
<g>
	<path fill="#E74652" d="M11.6,133.6c-12.4-22.8-15-46.8-7.1-71.4c8.9-27.5,27.8-46.3,54.9-56.8c0.9-0.3,1.8-0.7,3.2-1.3
		c0,0-0.1,0-0.1,0c8.1-2.5,16.7-4,25.6-4.1c0.1,0,0.3,0,0.4,0c13.4,0.5,26.6,2.4,38.7,8.4c8.8,4.3,16.5,9.4,23.1,15.3
		c13.5,12.4,23.1,28.9,27,47.5c0,0.1,0.1,0.3,0.1,0.4c0.2,1.2,0.5,2.4,0.6,3.6c0.1,0.4,0.1,0.8,0.2,1.2c0.6,4.3,1,8.6,1,13.1
		c0,18.3-5.5,35.3-15,49.5c-0.4,0.6-0.8,1.2-1.2,1.8c-12.9,18.4-32.5,31.7-55.3,36.4v0.2c-20.4,4.1-42.2,1.2-61.7-9.5
		c-4.2-2.3-8.7-4.2-13.2-5.8c-5-1.7-10.1-2.1-15.1,0.1c-0.2,0.1-0.4-0.1-0.8-0.2c2.4-5.1,2.1-10.3,0.4-15.4
		C15.8,142.2,13.9,137.8,11.6,133.6"/>
</g>
<g>
	<g>
		<g>
			<path fill="#FFFFFF" d="M112.6,48.4c-6-4.4-13.6-6.5-22.8-6.5c-7,0-12.8,1.5-17.6,4.6c-7.6,4.8-11.6,13-12.1,24.5h17.5
				c0-3.4,1-6.6,2.9-9.7c2-3.1,5.3-4.7,10-4.7c4.8,0,8,1.3,9.8,3.8c1.8,2.5,2.7,5.3,2.7,8.4c0,2.7-1.3,5.1-3,7.3
				c-0.9,1.3-2.1,2.5-3.5,3.6c0,0-9.5,6.1-13.7,11c-2.4,2.8-2.6,7.1-2.9,13.2c0,0.4,0.2,1.3,1.7,1.3c1.5,0,12.3,0,13.6,0
				c1.4,0,1.6-1,1.7-1.4c0.1-2.2,0.3-3.4,0.8-4.6c0.8-2.4,2.9-4.5,5.2-6.4l4.8-3.3c4.4-3.4,7.8-6.2,9.4-8.4c2.6-3.6,4.5-8,4.5-13.3
				C121.7,59.2,118.7,52.8,112.6,48.4z M89.6,115.7c-6-0.2-11,4-11.2,10.6c-0.2,6.6,4.6,10.9,10.6,11.1c6.3,0.2,11.2-3.9,11.4-10.4
				C100.5,120.4,95.9,115.9,89.6,115.7z"/>
		</g>
	</g>
</g>
</svg>
