<?xml version="1.0" encoding="utf-8"?>
<!-- Generator: Adobe Illustrator 17.1.0, SVG Export Plug-In . SVG Version: 6.00 Build 0)  -->
<!DOCTYPE svg PUBLIC "-//W3C//DTD SVG 1.1//EN" "http://www.w3.org/Graphics/SVG/1.1/DTD/svg11.dtd">
<svg version="1.1" id="Layer_1" xmlns="http://www.w3.org/2000/svg" xmlns:xlink="http://www.w3.org/1999/xlink" x="0px" y="0px"
	 viewBox="0 0 23.4 29.6" enable-background="new 0 0 23.4 29.6" xml:space="preserve">
<g>
	<g>
		<g>
			<g>
				<path fill="#010202" d="M4,13h15.3c0.1,0,0.2-0.1,0.3-0.2c0-0.1,0-0.2-0.1-0.3l-6.7-6c-0.2-0.2-0.4-0.3-0.7-0.4V4.2l3.1-1.4
					c0.1-0.1,0.2-0.2,0.2-0.3s-0.1-0.2-0.2-0.3l-3.1-1.4V0.5C12.2,0.2,12,0,11.7,0s-0.5,0.2-0.5,0.5v5.6c-0.2,0.1-0.5,0.2-0.7,0.4
					l-6.7,6c-0.1,0.1-0.1,0.2-0.1,0.3S3.9,13,4,13z"/>
				<path fill="#010202" d="M23.3,28.3L19.7,14h-16L0,28.3C0,28.6,0,29,0.2,29.2c0.2,0.2,0.5,0.4,0.8,0.4h7.1c0.2,0,0.3-0.1,0.4-0.3
					l2.7-6.9c0.1-0.2,0.2-0.3,0.4-0.3s0.3,0.1,0.4,0.3l2.7,6.9c0.1,0.2,0.2,0.3,0.4,0.3h7.1c0.3,0,0.6-0.1,0.8-0.4
					C23.3,29,23.4,28.6,23.3,28.3z"/>
			</g>
		</g>
	</g>
	<g>
	</g>
	<g>
	</g>
	<g>
	</g>
	<g>
	</g>
	<g>
	</g>
	<g>
	</g>
	<g>
	</g>
	<g>
	</g>
	<g>
	</g>
	<g>
	</g>
	<g>
	</g>
	<g>
	</g>
	<g>
	</g>
	<g>
	</g>
	<g>
	</g>
</g>
</svg>
