<?xml version="1.0" encoding="utf-8"?>
<!-- Generator: Adobe Illustrator 17.1.0, SVG Export Plug-In . SVG Version: 6.00 Build 0)  -->
<!DOCTYPE svg PUBLIC "-//W3C//DTD SVG 1.1//EN" "http://www.w3.org/Graphics/SVG/1.1/DTD/svg11.dtd">
<svg version="1.1" id="Layer_1" xmlns="http://www.w3.org/2000/svg" xmlns:xlink="http://www.w3.org/1999/xlink" x="0px" y="0px"
	 viewBox="0 0 8.7 1227.7" enable-background="new 0 0 8.7 1227.7" xml:space="preserve">
<g>
	<path fill="#3D3936" d="M8.7,1227.1H7.3c-2.4-3.3-3.2-4.2-4.2-4.2c-0.7,0-1,0.6-1,1.3c0,0.9,0.4,1.6,0.9,2.1l-1.1,1
		c-0.9-0.8-1.3-2-1.3-3.1c0-1.7,1-3.1,2.6-3.1c1.4,0,2.6,1.1,4.1,3.2v-3.3h1.5V1227.1z"/>
	<path fill="#3D3936" d="M7.5,1220.3l-1.1-0.9c0.6-0.5,0.9-1.4,0.9-2.2c0-1-0.4-1.5-1-1.5c-0.6,0-0.9,0.5-0.9,1.6c0,0.3,0,0.9,0,1
		H3.8c0-0.1,0-0.7,0-1c0-0.9-0.3-1.5-0.9-1.5c-0.6,0-0.9,0.7-0.9,1.5c0,0.8,0.3,1.5,0.8,2l-1.1,0.9c-0.7-0.6-1.3-1.7-1.3-3.1
		c0-1.9,0.8-3,2.2-3c1,0,1.7,0.9,1.8,1.8c0.1-0.8,0.7-1.9,1.9-1.9c1.4,0,2.4,1.2,2.4,3.2C8.8,1218.6,8.2,1219.7,7.5,1220.3z"/>
	<path fill="#3D3936" d="M3.7,1212.9c-0.5,0-1-0.4-1-1s0.4-1,1-1c0.5,0,1,0.4,1,1S4.3,1212.9,3.7,1212.9z M7.8,1212.9
		c-0.5,0-1-0.4-1-1s0.4-1,1-1c0.5,0,1,0.4,1,1S8.3,1212.9,7.8,1212.9z"/>
	<path fill="#3D3936" d="M4.7,1210.1c-2.1,0-4.1-1-4.1-3.3c0-2.3,2.1-3.3,4.1-3.3c2.1,0,4.1,1,4.1,3.3
		C8.8,1209.1,6.7,1210.1,4.7,1210.1z M4.7,1205.2c-1.5,0-2.6,0.4-2.6,1.6c0,1.1,1.1,1.6,2.6,1.6c1.5,0,2.6-0.4,2.6-1.6
		S6.1,1205.2,4.7,1205.2z"/>
	<path fill="#3D3936" d="M4.7,1202.7c-2.1,0-4.1-1-4.1-3.3s2.1-3.3,4.1-3.3c2.1,0,4.1,1,4.1,3.3S6.7,1202.7,4.7,1202.7z M4.7,1197.8
		c-1.5,0-2.6,0.4-2.6,1.6c0,1.1,1.1,1.6,2.6,1.6c1.5,0,2.6-0.4,2.6-1.6C7.3,1198.2,6.1,1197.8,4.7,1197.8z"/>
</g>
<g>
	<path fill="#3D3936" d="M8.7,1127.1H7.3c-2.4-3.3-3.2-4.2-4.2-4.2c-0.7,0-1,0.6-1,1.3c0,0.9,0.4,1.6,0.9,2.1l-1.1,1
		c-0.9-0.8-1.3-2-1.3-3.1c0-1.7,1-3.1,2.6-3.1c1.4,0,2.6,1.1,4.1,3.2v-3.3h1.5V1127.1z"/>
	<path fill="#3D3936" d="M8.7,1119.9H7.3c-2.4-3.3-3.2-4.2-4.2-4.2c-0.7,0-1,0.6-1,1.3c0,0.9,0.4,1.6,0.9,2.1l-1.1,1
		c-0.9-0.8-1.3-2-1.3-3.1c0-1.7,1-3.1,2.6-3.1c1.4,0,2.6,1.1,4.1,3.2v-3.3h1.5V1119.9z"/>
	<path fill="#3D3936" d="M3.7,1112.7c-0.5,0-1-0.4-1-1c0-0.5,0.4-1,1-1s1,0.4,1,1C4.7,1112.3,4.3,1112.7,3.7,1112.7z M7.8,1112.7
		c-0.5,0-1-0.4-1-1c0-0.5,0.4-1,1-1c0.5,0,1,0.4,1,1C8.8,1112.3,8.3,1112.7,7.8,1112.7z"/>
	<path fill="#3D3936" d="M4.7,1109.9c-2.1,0-4.1-1-4.1-3.3c0-2.3,2.1-3.3,4.1-3.3c2.1,0,4.1,1,4.1,3.3
		C8.8,1108.9,6.7,1109.9,4.7,1109.9z M4.7,1105.1c-1.5,0-2.6,0.4-2.6,1.6c0,1.1,1.1,1.6,2.6,1.6s2.6-0.4,2.6-1.6
		S6.1,1105.1,4.7,1105.1z"/>
	<path fill="#3D3936" d="M4.7,1102.5c-2.1,0-4.1-1-4.1-3.3s2.1-3.3,4.1-3.3c2.1,0,4.1,1,4.1,3.3S6.7,1102.5,4.7,1102.5z M4.7,1097.6
		c-1.5,0-2.6,0.4-2.6,1.6c0,1.1,1.1,1.6,2.6,1.6s2.6-0.4,2.6-1.6C7.3,1098.1,6.1,1097.6,4.7,1097.6z"/>
</g>
<g>
	<path fill="#3D3936" d="M8.7,1027.1H7.3c-2.4-3.3-3.2-4.2-4.2-4.2c-0.7,0-1,0.6-1,1.3c0,0.9,0.4,1.6,0.9,2.1l-1.1,1
		c-0.9-0.8-1.3-2-1.3-3.1c0-1.7,1-3.1,2.6-3.1c1.4,0,2.6,1.1,4.1,3.2v-3.3h1.5V1027.1z"/>
	<path fill="#3D3936" d="M8.7,1018.1H2.9l1.4,1.3l-1,1l-2.5-2.5v-1.5h8V1018.1z"/>
	<path fill="#3D3936" d="M3.8,1015c-0.5,0-1-0.4-1-1s0.4-1,1-1s1,0.4,1,1S4.3,1015,3.8,1015z M7.8,1015c-0.5,0-1-0.4-1-1s0.4-1,1-1
		c0.5,0,1,0.4,1,1S8.3,1015,7.8,1015z"/>
	<path fill="#3D3936" d="M4.7,1012.2c-2.1,0-4.1-1-4.1-3.3c0-2.3,2.1-3.3,4.1-3.3c2.1,0,4.1,1,4.1,3.3
		C8.8,1011.2,6.7,1012.2,4.7,1012.2z M4.7,1007.3c-1.5,0-2.6,0.4-2.6,1.6c0,1.1,1.1,1.6,2.6,1.6s2.6-0.4,2.6-1.6
		C7.3,1007.8,6.1,1007.3,4.7,1007.3z"/>
	<path fill="#3D3936" d="M4.7,1004.8c-2.1,0-4.1-1-4.1-3.3c0-2.3,2.1-3.3,4.1-3.3c2.1,0,4.1,1,4.1,3.3
		C8.8,1003.8,6.7,1004.8,4.7,1004.8z M4.7,999.9c-1.5,0-2.6,0.4-2.6,1.6c0,1.1,1.1,1.6,2.6,1.6s2.6-0.4,2.6-1.6S6.1,999.9,4.7,999.9
		z"/>
</g>
<g>
	<path fill="#3D3936" d="M8.7,927.1H7.3c-2.4-3.3-3.2-4.2-4.2-4.2c-0.7,0-1,0.6-1,1.3c0,0.9,0.4,1.6,0.9,2.1l-1.1,1
		c-0.9-0.8-1.3-2-1.3-3.1c0-1.7,1-3.1,2.6-3.1c1.4,0,2.6,1.1,4.1,3.2v-3.3h1.5V927.1z"/>
	<path fill="#3D3936" d="M4.7,920.1c-2.1,0-4.1-1-4.1-3.3s2.1-3.3,4.1-3.3c2.1,0,4.1,1,4.1,3.3S6.7,920.1,4.7,920.1z M4.7,915.2
		c-1.5,0-2.6,0.4-2.6,1.6c0,1.1,1.1,1.6,2.6,1.6s2.6-0.4,2.6-1.6C7.3,915.7,6.1,915.2,4.7,915.2z"/>
	<path fill="#3D3936" d="M3.8,912.5c-0.5,0-1-0.4-1-1s0.4-1,1-1s1,0.4,1,1S4.3,912.5,3.8,912.5z M7.8,912.5c-0.5,0-1-0.4-1-1
		s0.4-1,1-1c0.5,0,1,0.4,1,1S8.3,912.5,7.8,912.5z"/>
	<path fill="#3D3936" d="M4.7,909.7c-2.1,0-4.1-1-4.1-3.3c0-2.3,2.1-3.3,4.1-3.3c2.1,0,4.1,1,4.1,3.3C8.8,908.7,6.7,909.7,4.7,909.7
		z M4.7,904.8c-1.5,0-2.6,0.4-2.6,1.6c0,1.1,1.1,1.6,2.6,1.6s2.6-0.4,2.6-1.6S6.1,904.8,4.7,904.8z"/>
	<path fill="#3D3936" d="M4.7,902.3c-2.1,0-4.1-1-4.1-3.3s2.1-3.3,4.1-3.3c2.1,0,4.1,1,4.1,3.3S6.7,902.3,4.7,902.3z M4.7,897.4
		c-1.5,0-2.6,0.4-2.6,1.6c0,1.1,1.1,1.6,2.6,1.6s2.6-0.4,2.6-1.6C7.3,897.8,6.1,897.4,4.7,897.4z"/>
</g>
<g>
	<path fill="#3D3936" d="M8.7,825.3H2.9l1.4,1.3l-1,1l-2.5-2.5v-1.5h8V825.3z"/>
	<path fill="#3D3936" d="M8,822l-1.3-0.8c0.4-0.4,0.6-0.9,0.6-1.6c0-1.3-1.1-2-2.3-2c-0.1,0-0.1,0-0.2,0c0.5,0.4,1,1.2,1,2.1
		c0,1.4-0.9,2.7-2.6,2.7c-1.6,0-2.7-1.2-2.7-3.1c0-2.4,1.9-3.5,4.1-3.5c2.4,0,4.1,1.4,4.1,3.7C8.8,820.6,8.5,821.4,8,822z
		 M3.7,817.6c-0.8,0.1-1.6,0.5-1.6,1.6c0,0.9,0.6,1.4,1.2,1.4c0.8,0,1.2-0.7,1.2-1.5C4.4,818.6,4.1,818,3.7,817.6z"/>
	<path fill="#3D3936" d="M3.8,814.9c-0.5,0-1-0.4-1-1s0.4-1,1-1s1,0.4,1,1S4.3,814.9,3.8,814.9z M7.8,814.9c-0.5,0-1-0.4-1-1
		s0.4-1,1-1c0.5,0,1,0.4,1,1S8.3,814.9,7.8,814.9z"/>
	<path fill="#3D3936" d="M4.7,812.1c-2.1,0-4.1-1-4.1-3.3s2.1-3.3,4.1-3.3c2.1,0,4.1,1,4.1,3.3S6.7,812.1,4.7,812.1z M4.7,807.2
		c-1.5,0-2.6,0.4-2.6,1.6c0,1.1,1.1,1.6,2.6,1.6s2.6-0.4,2.6-1.6C7.3,807.7,6.1,807.2,4.7,807.2z"/>
	<path fill="#3D3936" d="M4.7,804.7c-2.1,0-4.1-1-4.1-3.3c0-2.3,2.1-3.3,4.1-3.3c2.1,0,4.1,1,4.1,3.3C8.8,803.7,6.7,804.7,4.7,804.7
		z M4.7,799.8c-1.5,0-2.6,0.4-2.6,1.6c0,1.1,1.1,1.6,2.6,1.6s2.6-0.4,2.6-1.6C7.3,800.2,6.1,799.8,4.7,799.8z"/>
</g>
<g>
	<path fill="#3D3936" d="M8.7,725.3H2.9l1.4,1.3l-1,1l-2.5-2.5v-1.5h8V725.3z"/>
	<path fill="#3D3936" d="M6.6,722.4c-1,0-1.7-0.8-2.1-1.7c-0.3,0.9-0.9,1.6-1.9,1.6c-1.5,0-2.1-1.6-2.1-3.1c0-1.5,0.6-3.1,2.1-3.1
		c1,0,1.6,0.7,1.9,1.6c0.3-0.9,1.1-1.7,2.1-1.7c1.5,0,2.2,1.5,2.2,3.2C8.8,720.8,8.1,722.4,6.6,722.4z M2.9,717.8
		c-0.6,0-0.9,0.6-0.9,1.3c0,0.8,0.3,1.4,0.9,1.4c0.6,0,0.8-0.9,0.9-1.4C3.8,718.7,3.5,717.8,2.9,717.8z M6.3,717.7c-0.7,0-1,1-1,1.5
		c0.1,0.5,0.4,1.5,1,1.5c0.6,0,0.9-0.6,0.9-1.5C7.3,718.3,6.9,717.7,6.3,717.7z"/>
	<path fill="#3D3936" d="M3.8,714.9c-0.5,0-1-0.4-1-1c0-0.5,0.4-1,1-1s1,0.4,1,1C4.7,714.5,4.3,714.9,3.8,714.9z M7.8,714.9
		c-0.5,0-1-0.4-1-1c0-0.5,0.4-1,1-1c0.5,0,1,0.4,1,1C8.8,714.5,8.3,714.9,7.8,714.9z"/>
	<path fill="#3D3936" d="M4.7,712.1c-2.1,0-4.1-1-4.1-3.3s2.1-3.3,4.1-3.3c2.1,0,4.1,1,4.1,3.3S6.7,712.1,4.7,712.1z M4.7,707.3
		c-1.5,0-2.6,0.4-2.6,1.6c0,1.1,1.1,1.6,2.6,1.6s2.6-0.4,2.6-1.6C7.3,707.7,6.1,707.3,4.7,707.3z"/>
	<path fill="#3D3936" d="M4.7,704.7c-2.1,0-4.1-1-4.1-3.3s2.1-3.3,4.1-3.3c2.1,0,4.1,1,4.1,3.3S6.7,704.7,4.7,704.7z M4.7,699.8
		c-1.5,0-2.6,0.4-2.6,1.6c0,1.1,1.1,1.6,2.6,1.6s2.6-0.4,2.6-1.6C7.3,700.3,6.1,699.8,4.7,699.8z"/>
</g>
<g>
	<path fill="#3D3936" d="M8.7,625.3H2.9l1.4,1.3l-1,1l-2.5-2.5v-1.5h8V625.3z"/>
	<path fill="#3D3936" d="M8.7,621.3l-6.5-2.9v4H0.7v-6h1.2l6.8,3V621.3z"/>
	<path fill="#3D3936" d="M3.8,615.7c-0.5,0-1-0.4-1-1s0.4-1,1-1s1,0.4,1,1S4.3,615.7,3.8,615.7z M7.8,615.7c-0.5,0-1-0.4-1-1
		s0.4-1,1-1c0.5,0,1,0.4,1,1S8.3,615.7,7.8,615.7z"/>
	<path fill="#3D3936" d="M4.7,612.9c-2.1,0-4.1-1-4.1-3.3s2.1-3.3,4.1-3.3c2.1,0,4.1,1,4.1,3.3S6.7,612.9,4.7,612.9z M4.7,608
		c-1.5,0-2.6,0.4-2.6,1.6c0,1.1,1.1,1.6,2.6,1.6s2.6-0.4,2.6-1.6C7.3,608.4,6.1,608,4.7,608z"/>
	<path fill="#3D3936" d="M4.7,605.4c-2.1,0-4.1-1-4.1-3.3c0-2.3,2.1-3.3,4.1-3.3c2.1,0,4.1,1,4.1,3.3C8.8,604.4,6.7,605.4,4.7,605.4
		z M4.7,600.6c-1.5,0-2.6,0.4-2.6,1.6c0,1.1,1.1,1.6,2.6,1.6s2.6-0.4,2.6-1.6C7.3,601,6.1,600.6,4.7,600.6z"/>
</g>
<g>
	<path fill="#3D3936" d="M8.7,525.3H2.9l1.4,1.3l-1,1l-2.5-2.5v-1.5h8V525.3z"/>
	<path fill="#3D3936" d="M4.7,522.4c-2.4,0-4.1-1.4-4.1-3.7c0-1,0.3-1.8,0.8-2.4l1.3,0.8c-0.4,0.4-0.6,0.9-0.6,1.6c0,1.2,1,2,2.3,2
		c0.1,0,0.1,0,0.2,0c-0.5-0.4-1-1.2-1-2.1c0-1.4,0.9-2.7,2.6-2.7c1.6,0,2.7,1.2,2.7,3.1C8.8,521.3,6.9,522.4,4.7,522.4z M6.1,517.6
		c-0.8,0-1.2,0.7-1.2,1.5c0,0.6,0.3,1.2,0.8,1.6c0.8-0.1,1.6-0.5,1.6-1.6C7.3,518.1,6.7,517.6,6.1,517.6z"/>
	<path fill="#3D3936" d="M3.8,514.9c-0.5,0-1-0.4-1-1s0.4-1,1-1s1,0.4,1,1S4.3,514.9,3.8,514.9z M7.8,514.9c-0.5,0-1-0.4-1-1
		s0.4-1,1-1c0.5,0,1,0.4,1,1S8.3,514.9,7.8,514.9z"/>
	<path fill="#3D3936" d="M4.7,512.1c-2.1,0-4.1-1-4.1-3.3c0-2.3,2.1-3.3,4.1-3.3c2.1,0,4.1,1,4.1,3.3C8.8,511.1,6.7,512.1,4.7,512.1
		z M4.7,507.2c-1.5,0-2.6,0.4-2.6,1.6c0,1.1,1.1,1.6,2.6,1.6s2.6-0.4,2.6-1.6C7.3,507.7,6.1,507.2,4.7,507.2z"/>
	<path fill="#3D3936" d="M4.7,504.7c-2.1,0-4.1-1-4.1-3.3c0-2.3,2.1-3.3,4.1-3.3c2.1,0,4.1,1,4.1,3.3C8.8,503.7,6.7,504.7,4.7,504.7
		z M4.7,499.8c-1.5,0-2.6,0.4-2.6,1.6c0,1.1,1.1,1.6,2.6,1.6s2.6-0.4,2.6-1.6C7.3,500.2,6.1,499.8,4.7,499.8z"/>
</g>
<g>
	<path fill="#3D3936" d="M8.7,425.3H2.9l1.4,1.3l-1,1l-2.5-2.5v-1.5h8V425.3z"/>
	<path fill="#3D3936" d="M7.6,422.2l-1.2-0.9c0.6-0.5,0.9-1.3,0.9-2.1c0-0.9-0.5-1.5-1.2-1.5c-0.7,0-1.2,0.5-1.2,1.4
		c0,0.7,0.2,1.2,0.6,1.7l-0.3,1.2H0.7v-5.5h1.5v3.8h2c-0.4-0.4-0.7-1-0.7-1.8c0-1.4,1-2.6,2.6-2.6c1.7,0,2.8,1.3,2.8,3.2
		C8.8,420.5,8.3,421.5,7.6,422.2z"/>
	<path fill="#3D3936" d="M3.8,414.9c-0.5,0-1-0.4-1-1s0.4-1,1-1s1,0.4,1,1S4.3,414.9,3.8,414.9z M7.8,414.9c-0.5,0-1-0.4-1-1
		s0.4-1,1-1c0.5,0,1,0.4,1,1S8.3,414.9,7.8,414.9z"/>
	<path fill="#3D3936" d="M4.7,412.1c-2.1,0-4.1-1-4.1-3.3c0-2.3,2.1-3.3,4.1-3.3c2.1,0,4.1,1,4.1,3.3C8.8,411.1,6.7,412.1,4.7,412.1
		z M4.7,407.2c-1.5,0-2.6,0.4-2.6,1.6c0,1.1,1.1,1.6,2.6,1.6s2.6-0.4,2.6-1.6C7.3,407.7,6.1,407.2,4.7,407.2z"/>
	<path fill="#3D3936" d="M4.7,404.7c-2.1,0-4.1-1-4.1-3.3c0-2.3,2.1-3.3,4.1-3.3c2.1,0,4.1,1,4.1,3.3C8.8,403.7,6.7,404.7,4.7,404.7
		z M4.7,399.8c-1.5,0-2.6,0.4-2.6,1.6c0,1.1,1.1,1.6,2.6,1.6s2.6-0.4,2.6-1.6C7.3,400.2,6.1,399.8,4.7,399.8z"/>
</g>
<g>
	<path fill="#3D3936" d="M8.7,325.3H2.9l1.4,1.3l-1,1l-2.5-2.5v-1.5h8V325.3z"/>
	<path fill="#3D3936" d="M8.7,318.7H7v3.8H5.7l-5-3.2v-2.4h4.8v-1H7v1h1.7V318.7z M2.2,318.7l3.3,2.2v-2.2H2.2z"/>
	<path fill="#3D3936" d="M3.8,315c-0.5,0-1-0.4-1-1s0.4-1,1-1s1,0.4,1,1S4.3,315,3.8,315z M7.8,315c-0.5,0-1-0.4-1-1s0.4-1,1-1
		c0.5,0,1,0.4,1,1S8.3,315,7.8,315z"/>
	<path fill="#3D3936" d="M4.7,312.3c-2.1,0-4.1-1-4.1-3.3c0-2.3,2.1-3.3,4.1-3.3c2.1,0,4.1,1,4.1,3.3C8.8,311.2,6.7,312.3,4.7,312.3
		z M4.7,307.4c-1.5,0-2.6,0.4-2.6,1.6c0,1.1,1.1,1.6,2.6,1.6s2.6-0.4,2.6-1.6C7.3,307.8,6.1,307.4,4.7,307.4z"/>
	<path fill="#3D3936" d="M4.7,304.8c-2.1,0-4.1-1-4.1-3.3c0-2.3,2.1-3.3,4.1-3.3c2.1,0,4.1,1,4.1,3.3C8.8,303.8,6.7,304.8,4.7,304.8
		z M4.7,299.9c-1.5,0-2.6,0.4-2.6,1.6c0,1.1,1.1,1.6,2.6,1.6s2.6-0.4,2.6-1.6C7.3,300.4,6.1,299.9,4.7,299.9z"/>
</g>
<g>
	<path fill="#3D3936" d="M8.7,225.3H2.9l1.4,1.3l-1,1l-2.5-2.5v-1.5h8V225.3z"/>
	<path fill="#3D3936" d="M7.5,222.5l-1.1-0.9c0.6-0.5,0.9-1.4,0.9-2.2c0-1-0.4-1.5-1-1.5c-0.6,0-0.9,0.5-0.9,1.6c0,0.3,0,0.9,0,1
		H3.8c0-0.1,0-0.7,0-1c0-0.9-0.3-1.5-0.9-1.5c-0.6,0-0.9,0.7-0.9,1.5c0,0.8,0.3,1.5,0.8,2l-1.1,0.9c-0.7-0.6-1.3-1.7-1.3-3.1
		c0-1.9,0.8-3,2.2-3c1,0,1.7,0.9,1.8,1.8c0.1-0.8,0.7-1.9,1.9-1.9c1.4,0,2.4,1.2,2.4,3.2C8.8,220.8,8.2,221.9,7.5,222.5z"/>
	<path fill="#3D3936" d="M3.8,215.2c-0.5,0-1-0.4-1-1s0.4-1,1-1s1,0.4,1,1S4.3,215.2,3.8,215.2z M7.8,215.2c-0.5,0-1-0.4-1-1
		s0.4-1,1-1c0.5,0,1,0.4,1,1S8.3,215.2,7.8,215.2z"/>
	<path fill="#3D3936" d="M4.7,212.4c-2.1,0-4.1-1-4.1-3.3c0-2.3,2.1-3.3,4.1-3.3c2.1,0,4.1,1,4.1,3.3C8.8,211.4,6.7,212.4,4.7,212.4
		z M4.7,207.5c-1.5,0-2.6,0.4-2.6,1.6c0,1.1,1.1,1.6,2.6,1.6s2.6-0.4,2.6-1.6C7.3,207.9,6.1,207.5,4.7,207.5z"/>
	<path fill="#3D3936" d="M4.7,204.9c-2.1,0-4.1-1-4.1-3.3c0-2.3,2.1-3.3,4.1-3.3c2.1,0,4.1,1,4.1,3.3C8.8,203.9,6.7,204.9,4.7,204.9
		z M4.7,200.1c-1.5,0-2.6,0.4-2.6,1.6c0,1.1,1.1,1.6,2.6,1.6s2.6-0.4,2.6-1.6C7.3,200.5,6.1,200.1,4.7,200.1z"/>
</g>
<g>
	<path fill="#3D3936" d="M8.7,125.3H2.9l1.4,1.3l-1,1l-2.5-2.5v-1.5h8V125.3z"/>
	<path fill="#3D3936" d="M8.7,122.2H7.3c-2.4-3.3-3.2-4.2-4.2-4.2c-0.7,0-1,0.6-1,1.3c0,0.9,0.4,1.6,0.9,2.1l-1.1,1
		c-0.9-0.8-1.3-2-1.3-3.1c0-1.7,1-3.1,2.6-3.1c1.4,0,2.6,1.1,4.1,3.2v-3.3h1.5V122.2z"/>
	<path fill="#3D3936" d="M3.8,115c-0.5,0-1-0.4-1-1s0.4-1,1-1s1,0.4,1,1S4.3,115,3.8,115z M7.8,115c-0.5,0-1-0.4-1-1s0.4-1,1-1
		c0.5,0,1,0.4,1,1S8.3,115,7.8,115z"/>
	<path fill="#3D3936" d="M4.7,112.2c-2.1,0-4.1-1-4.1-3.3c0-2.3,2.1-3.3,4.1-3.3c2.1,0,4.1,1,4.1,3.3C8.8,111.2,6.7,112.2,4.7,112.2
		z M4.7,107.3c-1.5,0-2.6,0.4-2.6,1.6c0,1.1,1.1,1.6,2.6,1.6s2.6-0.4,2.6-1.6C7.3,107.8,6.1,107.3,4.7,107.3z"/>
	<path fill="#3D3936" d="M4.7,104.8c-2.1,0-4.1-1-4.1-3.3c0-2.3,2.1-3.3,4.1-3.3c2.1,0,4.1,1,4.1,3.3C8.8,103.8,6.7,104.8,4.7,104.8
		z M4.7,99.9c-1.5,0-2.6,0.4-2.6,1.6c0,1.1,1.1,1.6,2.6,1.6s2.6-0.4,2.6-1.6C7.3,100.3,6.1,99.9,4.7,99.9z"/>
</g>
<g>
	<path fill="#3D3936" d="M8.7,25.3H2.9l1.4,1.3l-1,1l-2.5-2.5v-1.5h8V25.3z"/>
	<path fill="#3D3936" d="M8.7,20.3H2.9l1.4,1.3l-1,1l-2.5-2.5v-1.5h8V20.3z"/>
	<path fill="#3D3936" d="M3.8,17.3c-0.5,0-1-0.4-1-1c0-0.5,0.4-1,1-1s1,0.4,1,1C4.7,16.8,4.3,17.3,3.8,17.3z M7.8,17.3
		c-0.5,0-1-0.4-1-1c0-0.5,0.4-1,1-1c0.5,0,1,0.4,1,1C8.8,16.8,8.3,17.3,7.8,17.3z"/>
	<path fill="#3D3936" d="M4.7,14.5c-2.1,0-4.1-1-4.1-3.3c0-2.3,2.1-3.3,4.1-3.3c2.1,0,4.1,1,4.1,3.3C8.8,13.5,6.7,14.5,4.7,14.5z
		 M4.7,9.6C3.2,9.6,2,10,2,11.2c0,1.1,1.1,1.6,2.6,1.6s2.6-0.4,2.6-1.6C7.3,10,6.1,9.6,4.7,9.6z"/>
	<path fill="#3D3936" d="M4.7,7C2.6,7,0.5,6,0.5,3.7c0-2.3,2.1-3.3,4.1-3.3c2.1,0,4.1,1,4.1,3.3C8.8,6,6.7,7,4.7,7z M4.7,2.2
		C3.2,2.2,2,2.6,2,3.7c0,1.1,1.1,1.6,2.6,1.6s2.6-0.4,2.6-1.6C7.3,2.6,6.1,2.2,4.7,2.2z"/>
</g>
</svg>
