<?xml version="1.0" encoding="utf-8"?>
<!-- Generator: Adobe Illustrator 17.0.0, SVG Export Plug-In . SVG Version: 6.00 Build 0)  -->
<!DOCTYPE svg PUBLIC "-//W3C//DTD SVG 1.1//EN" "http://www.w3.org/Graphics/SVG/1.1/DTD/svg11.dtd">
<svg version="1.1" id="Layer_1" xmlns="http://www.w3.org/2000/svg" xmlns:xlink="http://www.w3.org/1999/xlink" x="0px" y="0px"
	 width="1000px" height="300px" viewBox="0 0 1000 300" enable-background="new 0 0 1000 300" xml:space="preserve">
<g>
	<path fill="#3D3936" d="M501.063,299.853h-0.342c-0.586-0.806-0.782-1.026-1.026-1.026c-0.171,0-0.244,0.147-0.244,0.318
		c0,0.22,0.098,0.391,0.22,0.513l-0.269,0.244c-0.22-0.195-0.318-0.489-0.318-0.758c0-0.415,0.244-0.758,0.635-0.758
		c0.342,0,0.635,0.269,1.002,0.782v-0.806h0.367v1.491H501.063z"/>
	<path fill="#3D3936" d="M500.77,298.192l-0.269-0.22c0.147-0.122,0.22-0.342,0.22-0.538c0-0.244-0.098-0.367-0.244-0.367
		s-0.22,0.122-0.22,0.391c0,0.073,0,0.22,0,0.244h-0.391c0-0.024,0-0.171,0-0.244c0-0.22-0.073-0.367-0.22-0.367
		c-0.147,0-0.22,0.171-0.22,0.367s0.073,0.367,0.195,0.489l-0.269,0.22c-0.171-0.147-0.318-0.415-0.318-0.758
		c0-0.464,0.195-0.733,0.538-0.733c0.244,0,0.415,0.22,0.44,0.44c0.024-0.195,0.171-0.464,0.464-0.464
		c0.342,0,0.586,0.293,0.586,0.782C501.087,297.776,500.941,298.045,500.77,298.192z"/>
	<path fill="#3D3936" d="M499.841,296.383c-0.122,0-0.244-0.098-0.244-0.244s0.098-0.244,0.244-0.244
		c0.122,0,0.244,0.098,0.244,0.244S499.988,296.383,499.841,296.383z M500.843,296.383c-0.122,0-0.244-0.098-0.244-0.244
		s0.098-0.244,0.244-0.244c0.122,0,0.244,0.098,0.244,0.244S500.965,296.383,500.843,296.383z"/>
	<path fill="#3D3936" d="M500.086,295.699c-0.513,0-1.002-0.244-1.002-0.806s0.513-0.806,1.002-0.806
		c0.513,0,1.002,0.244,1.002,0.806S500.574,295.699,500.086,295.699z M500.086,294.502c-0.367,0-0.635,0.098-0.635,0.391
		c0,0.269,0.269,0.391,0.635,0.391c0.367,0,0.635-0.098,0.635-0.391S500.428,294.502,500.086,294.502z"/>
	<path fill="#3D3936" d="M500.086,293.891c-0.513,0-1.002-0.244-1.002-0.806c0-0.562,0.513-0.806,1.002-0.806
		c0.513,0,1.002,0.244,1.002,0.806C501.087,293.647,500.574,293.891,500.086,293.891z M500.086,292.694
		c-0.367,0-0.635,0.098-0.635,0.391c0,0.269,0.269,0.391,0.635,0.391c0.367,0,0.635-0.098,0.635-0.391
		S500.428,292.694,500.086,292.694z"/>
</g>
<g>
	<path fill="#3D3936" d="M501.063,275.417h-0.342c-0.586-0.806-0.782-1.026-1.026-1.026c-0.171,0-0.244,0.147-0.244,0.318
		c0,0.22,0.098,0.391,0.22,0.513l-0.269,0.244c-0.22-0.195-0.318-0.489-0.318-0.758c0-0.415,0.244-0.758,0.635-0.758
		c0.342,0,0.635,0.269,1.002,0.782v-0.806h0.367v1.491H501.063z"/>
	<path fill="#3D3936" d="M501.063,273.658h-0.342c-0.586-0.806-0.782-1.026-1.026-1.026c-0.171,0-0.244,0.147-0.244,0.318
		c0,0.22,0.098,0.391,0.22,0.513l-0.269,0.244c-0.22-0.196-0.318-0.489-0.318-0.758c0-0.415,0.244-0.758,0.635-0.758
		c0.342,0,0.635,0.269,1.002,0.782v-0.806h0.367v1.491H501.063z"/>
	<path fill="#3D3936" d="M499.841,271.899c-0.122,0-0.244-0.098-0.244-0.244c0-0.122,0.098-0.244,0.244-0.244
		c0.147,0,0.244,0.098,0.244,0.244C500.086,271.801,499.988,271.899,499.841,271.899z M500.843,271.899
		c-0.122,0-0.244-0.098-0.244-0.244c0-0.122,0.098-0.244,0.244-0.244c0.122,0,0.244,0.098,0.244,0.244
		C501.087,271.801,500.965,271.899,500.843,271.899z"/>
	<path fill="#3D3936" d="M500.086,271.214c-0.513,0-1.002-0.244-1.002-0.806s0.513-0.806,1.002-0.806
		c0.513,0,1.002,0.244,1.002,0.806S500.574,271.214,500.086,271.214z M500.086,270.042c-0.367,0-0.635,0.098-0.635,0.391
		c0,0.269,0.269,0.391,0.635,0.391c0.367,0,0.635-0.098,0.635-0.391C500.721,270.139,500.428,270.042,500.086,270.042z"/>
	<path fill="#3D3936" d="M500.086,269.406c-0.513,0-1.002-0.244-1.002-0.806s0.513-0.806,1.002-0.806
		c0.513,0,1.002,0.244,1.002,0.806S500.574,269.406,500.086,269.406z M500.086,268.209c-0.367,0-0.635,0.098-0.635,0.391
		c0,0.269,0.269,0.391,0.635,0.391c0.367,0,0.635-0.098,0.635-0.391C500.721,268.331,500.428,268.209,500.086,268.209z"/>
</g>
<g>
	<path fill="#3D3936" d="M501.063,250.982h-0.342c-0.586-0.806-0.782-1.026-1.026-1.026c-0.171,0-0.244,0.147-0.244,0.318
		c0,0.22,0.098,0.391,0.22,0.513l-0.269,0.244c-0.22-0.195-0.318-0.489-0.318-0.758c0-0.415,0.244-0.758,0.635-0.758
		c0.342,0,0.635,0.269,1.002,0.782v-0.806h0.367v1.491H501.063z"/>
	<path fill="#3D3936" d="M501.063,248.782h-1.417l0.342,0.318l-0.244,0.244l-0.611-0.611v-0.367h1.955v0.415H501.063z"/>
	<path fill="#3D3936" d="M499.866,248.025c-0.122,0-0.244-0.098-0.244-0.244c0-0.147,0.098-0.244,0.244-0.244
		c0.147,0,0.244,0.098,0.244,0.244C500.11,247.927,499.988,248.025,499.866,248.025z M500.843,248.025
		c-0.122,0-0.244-0.098-0.244-0.244c0-0.147,0.098-0.244,0.244-0.244c0.122,0,0.244,0.098,0.244,0.244
		C501.087,247.927,500.965,248.025,500.843,248.025z"/>
	<path fill="#3D3936" d="M500.086,247.341c-0.513,0-1.002-0.244-1.002-0.806s0.513-0.806,1.002-0.806
		c0.513,0,1.002,0.244,1.002,0.806S500.574,247.341,500.086,247.341z M500.086,246.143c-0.367,0-0.635,0.098-0.635,0.391
		c0,0.269,0.269,0.391,0.635,0.391c0.367,0,0.635-0.098,0.635-0.391C500.721,246.265,500.428,246.143,500.086,246.143z"/>
	<path fill="#3D3936" d="M500.086,245.532c-0.513,0-1.002-0.244-1.002-0.806c0-0.562,0.513-0.806,1.002-0.806
		c0.513,0,1.002,0.244,1.002,0.806C501.087,245.288,500.574,245.532,500.086,245.532z M500.086,244.335
		c-0.367,0-0.635,0.098-0.635,0.391c0,0.269,0.269,0.391,0.635,0.391c0.367,0,0.635-0.098,0.635-0.391
		C500.721,244.433,500.428,244.335,500.086,244.335z"/>
</g>
<g>
	<path fill="#3D3936" d="M501.063,226.546h-0.342c-0.586-0.806-0.782-1.026-1.026-1.026c-0.171,0-0.244,0.147-0.244,0.318
		c0,0.22,0.098,0.391,0.22,0.513l-0.269,0.244c-0.22-0.195-0.318-0.489-0.318-0.758c0-0.415,0.244-0.758,0.635-0.758
		c0.342,0,0.635,0.269,1.002,0.782v-0.806h0.367v1.491H501.063z"/>
	<path fill="#3D3936" d="M500.086,224.835c-0.513,0-1.002-0.244-1.002-0.806s0.513-0.806,1.002-0.806
		c0.513,0,1.002,0.244,1.002,0.806S500.574,224.835,500.086,224.835z M500.086,223.638c-0.367,0-0.635,0.098-0.635,0.391
		c0,0.269,0.269,0.391,0.635,0.391c0.367,0,0.635-0.098,0.635-0.391C500.721,223.76,500.428,223.638,500.086,223.638z"/>
	<path fill="#3D3936" d="M499.866,222.978c-0.122,0-0.244-0.098-0.244-0.244s0.098-0.244,0.244-0.244
		c0.147,0,0.244,0.098,0.244,0.244S499.988,222.978,499.866,222.978z M500.843,222.978c-0.122,0-0.244-0.098-0.244-0.244
		s0.098-0.244,0.244-0.244c0.122,0,0.244,0.098,0.244,0.244S500.965,222.978,500.843,222.978z"/>
	<path fill="#3D3936" d="M500.086,222.294c-0.513,0-1.002-0.244-1.002-0.806c0-0.562,0.513-0.806,1.002-0.806
		c0.513,0,1.002,0.244,1.002,0.806C501.087,222.049,500.574,222.294,500.086,222.294z M500.086,221.096
		c-0.367,0-0.635,0.098-0.635,0.391c0,0.269,0.269,0.391,0.635,0.391c0.367,0,0.635-0.098,0.635-0.391
		C500.721,221.194,500.428,221.096,500.086,221.096z"/>
	<path fill="#3D3936" d="M500.086,220.485c-0.513,0-1.002-0.244-1.002-0.806s0.513-0.806,1.002-0.806
		c0.513,0,1.002,0.244,1.002,0.806S500.574,220.485,500.086,220.485z M500.086,219.288c-0.367,0-0.635,0.098-0.635,0.391
		c0,0.269,0.269,0.391,0.635,0.391c0.367,0,0.635-0.098,0.635-0.391C500.721,219.386,500.428,219.288,500.086,219.288z"/>
</g>
<g>
	<path fill="#3D3936" d="M501.063,201.67h-1.417l0.342,0.318l-0.244,0.244l-0.611-0.611v-0.367h1.955v0.415H501.063z"/>
	<path fill="#3D3936" d="M500.892,200.863l-0.318-0.195c0.098-0.098,0.147-0.22,0.147-0.391c0-0.318-0.269-0.489-0.562-0.489
		c-0.024,0-0.024,0-0.049,0c0.122,0.098,0.244,0.293,0.244,0.513c0,0.342-0.22,0.66-0.635,0.66c-0.391,0-0.66-0.293-0.66-0.758
		c0-0.586,0.464-0.855,1.002-0.855c0.586,0,1.002,0.342,1.002,0.904C501.087,200.521,501.014,200.717,500.892,200.863z
		 M499.841,199.788c-0.195,0.024-0.391,0.122-0.391,0.391c0,0.22,0.147,0.342,0.293,0.342c0.195,0,0.293-0.171,0.293-0.367
		C500.012,200.033,499.939,199.886,499.841,199.788z"/>
	<path fill="#3D3936" d="M499.866,199.128c-0.122,0-0.244-0.098-0.244-0.244c0-0.147,0.098-0.244,0.244-0.244
		c0.147,0,0.244,0.098,0.244,0.244C500.11,199.031,499.988,199.128,499.866,199.128z M500.843,199.128
		c-0.122,0-0.244-0.098-0.244-0.244c0-0.147,0.098-0.244,0.244-0.244c0.122,0,0.244,0.098,0.244,0.244
		C501.087,199.031,500.965,199.128,500.843,199.128z"/>
	<path fill="#3D3936" d="M500.086,198.444c-0.513,0-1.002-0.244-1.002-0.806c0-0.562,0.513-0.806,1.002-0.806
		c0.513,0,1.002,0.244,1.002,0.806C501.087,198.2,500.574,198.444,500.086,198.444z M500.086,197.247
		c-0.367,0-0.635,0.098-0.635,0.391c0,0.269,0.269,0.391,0.635,0.391c0.367,0,0.635-0.098,0.635-0.391
		C500.721,197.369,500.428,197.247,500.086,197.247z"/>
	<path fill="#3D3936" d="M500.086,196.636c-0.513,0-1.002-0.244-1.002-0.806s0.513-0.806,1.002-0.806
		c0.513,0,1.002,0.244,1.002,0.806S500.574,196.636,500.086,196.636z M500.086,195.439c-0.367,0-0.635,0.098-0.635,0.391
		c0,0.269,0.269,0.391,0.635,0.391c0.367,0,0.635-0.098,0.635-0.391C500.721,195.536,500.428,195.439,500.086,195.439z"/>
</g>
<g>
	<path fill="#3D3936" d="M501.063,177.234h-1.417l0.342,0.318l-0.244,0.244l-0.611-0.611v-0.367h1.955v0.415H501.063z"/>
	<path fill="#3D3936" d="M500.55,176.525c-0.244,0-0.415-0.195-0.513-0.415c-0.073,0.22-0.22,0.391-0.464,0.391
		c-0.367,0-0.513-0.391-0.513-0.758c0-0.367,0.147-0.758,0.513-0.758c0.244,0,0.391,0.171,0.464,0.391
		c0.073-0.22,0.269-0.415,0.513-0.415c0.367,0,0.538,0.367,0.538,0.782C501.087,176.134,500.916,176.525,500.55,176.525z
		 M499.646,175.401c-0.147,0-0.22,0.147-0.22,0.318c0,0.195,0.073,0.342,0.22,0.342c0.147,0,0.195-0.22,0.22-0.342
		C499.866,175.621,499.792,175.401,499.646,175.401z M500.477,175.377c-0.171,0-0.244,0.244-0.244,0.367
		c0.024,0.122,0.098,0.367,0.244,0.367s0.22-0.147,0.22-0.367C500.721,175.523,500.623,175.377,500.477,175.377z"/>
	<path fill="#3D3936" d="M499.866,174.693c-0.122,0-0.244-0.098-0.244-0.244c0-0.122,0.098-0.244,0.244-0.244
		c0.147,0,0.244,0.098,0.244,0.244C500.086,174.595,499.988,174.693,499.866,174.693z M500.843,174.693
		c-0.122,0-0.244-0.098-0.244-0.244c0-0.122,0.098-0.244,0.244-0.244c0.122,0,0.244,0.098,0.244,0.244
		S500.965,174.693,500.843,174.693z"/>
	<path fill="#3D3936" d="M500.086,174.008c-0.513,0-1.002-0.244-1.002-0.806s0.513-0.806,1.002-0.806
		c0.513,0,1.002,0.244,1.002,0.806S500.574,174.008,500.086,174.008z M500.086,172.835c-0.367,0-0.635,0.098-0.635,0.391
		c0,0.269,0.269,0.391,0.635,0.391c0.367,0,0.635-0.098,0.635-0.391C500.721,172.933,500.428,172.835,500.086,172.835z"/>
	<path fill="#3D3936" d="M500.086,172.2c-0.513,0-1.002-0.244-1.002-0.806c0-0.562,0.513-0.806,1.002-0.806
		c0.513,0,1.002,0.244,1.002,0.806C501.087,171.956,500.574,172.2,500.086,172.2z M500.086,171.003
		c-0.367,0-0.635,0.098-0.635,0.391c0,0.269,0.269,0.391,0.635,0.391c0.367,0,0.635-0.098,0.635-0.391
		C500.721,171.125,500.428,171.003,500.086,171.003z"/>
</g>
<g>
	<path fill="#3D3936" d="M501.063,152.798h-1.417l0.342,0.318l-0.244,0.244l-0.611-0.611v-0.367h1.955v0.415H501.063z"/>
	<path fill="#3D3936" d="M501.063,151.82l-1.588-0.709v0.977h-0.367v-1.466h0.293l1.662,0.733
		C501.063,151.356,501.063,151.82,501.063,151.82z"/>
	<path fill="#3D3936" d="M499.866,150.452c-0.122,0-0.244-0.098-0.244-0.244c0-0.147,0.098-0.244,0.244-0.244
		c0.147,0,0.244,0.098,0.244,0.244C500.11,150.354,499.988,150.452,499.866,150.452z M500.843,150.452
		c-0.122,0-0.244-0.098-0.244-0.244c0-0.147,0.098-0.244,0.244-0.244c0.122,0,0.244,0.098,0.244,0.244
		C501.087,150.354,500.965,150.452,500.843,150.452z"/>
	<path fill="#3D3936" d="M500.086,149.768c-0.513,0-1.002-0.244-1.002-0.806s0.513-0.806,1.002-0.806
		c0.513,0,1.002,0.244,1.002,0.806S500.574,149.768,500.086,149.768z M500.086,148.57c-0.367,0-0.635,0.098-0.635,0.391
		c0,0.269,0.269,0.391,0.635,0.391c0.367,0,0.635-0.098,0.635-0.391C500.721,148.668,500.428,148.57,500.086,148.57z"/>
	<path fill="#3D3936" d="M500.086,147.935c-0.513,0-1.002-0.244-1.002-0.806s0.513-0.806,1.002-0.806
		c0.513,0,1.002,0.244,1.002,0.806S500.574,147.935,500.086,147.935z M500.086,146.762c-0.367,0-0.635,0.098-0.635,0.391
		c0,0.269,0.269,0.391,0.635,0.391c0.367,0,0.635-0.098,0.635-0.391C500.721,146.86,500.428,146.762,500.086,146.762z"/>
</g>
<g>
	<path fill="#3D3936" d="M501.063,128.362h-1.417l0.342,0.318l-0.244,0.244l-0.611-0.611v-0.367h1.955v0.415H501.063z"/>
	<path fill="#3D3936" d="M500.086,127.653c-0.586,0-1.002-0.342-1.002-0.904c0-0.244,0.073-0.44,0.195-0.586l0.318,0.195
		c-0.098,0.098-0.147,0.22-0.147,0.391c0,0.293,0.244,0.489,0.562,0.489c0.024,0,0.024,0,0.049,0
		c-0.122-0.098-0.244-0.293-0.244-0.513c0-0.342,0.22-0.66,0.635-0.66c0.391,0,0.66,0.293,0.66,0.758
		C501.087,127.385,500.623,127.653,500.086,127.653z M500.428,126.48c-0.195,0-0.293,0.171-0.293,0.367
		c0,0.147,0.073,0.293,0.195,0.391c0.195-0.024,0.391-0.122,0.391-0.391C500.721,126.603,500.574,126.48,500.428,126.48z"/>
	<path fill="#3D3936" d="M499.866,125.821c-0.122,0-0.244-0.098-0.244-0.244c0-0.147,0.098-0.244,0.244-0.244
		c0.147,0,0.244,0.098,0.244,0.244C500.11,125.723,499.988,125.821,499.866,125.821z M500.843,125.821
		c-0.122,0-0.244-0.098-0.244-0.244c0-0.147,0.098-0.244,0.244-0.244c0.122,0,0.244,0.098,0.244,0.244
		C501.087,125.723,500.965,125.821,500.843,125.821z"/>
	<path fill="#3D3936" d="M500.086,125.136c-0.513,0-1.002-0.244-1.002-0.806c0-0.562,0.513-0.806,1.002-0.806
		c0.513,0,1.002,0.244,1.002,0.806S500.574,125.136,500.086,125.136z M500.086,123.939c-0.367,0-0.635,0.098-0.635,0.391
		c0,0.269,0.269,0.391,0.635,0.391c0.367,0,0.635-0.098,0.635-0.391C500.721,124.061,500.428,123.939,500.086,123.939z"/>
	<path fill="#3D3936" d="M500.086,123.328c-0.513,0-1.002-0.244-1.002-0.806c0-0.562,0.513-0.806,1.002-0.806
		c0.513,0,1.002,0.244,1.002,0.806C501.087,123.084,500.574,123.328,500.086,123.328z M500.086,122.131
		c-0.367,0-0.635,0.098-0.635,0.391c0,0.269,0.269,0.391,0.635,0.391c0.367,0,0.635-0.098,0.635-0.391
		C500.721,122.229,500.428,122.131,500.086,122.131z"/>
</g>
<g>
	<path fill="#3D3936" d="M501.063,103.926h-1.417l0.342,0.318l-0.244,0.244l-0.611-0.611v-0.367h1.955v0.415H501.063z"/>
	<path fill="#3D3936" d="M500.794,103.169l-0.293-0.22c0.147-0.122,0.22-0.318,0.22-0.513c0-0.22-0.122-0.367-0.293-0.367
		s-0.293,0.122-0.293,0.342c0,0.171,0.049,0.293,0.147,0.415l-0.073,0.293h-1.1v-1.344h0.367v0.929h0.489
		c-0.098-0.098-0.171-0.244-0.171-0.44c0-0.342,0.244-0.635,0.635-0.635c0.415,0,0.684,0.318,0.684,0.782
		C501.087,102.753,500.965,102.997,500.794,103.169z"/>
	<path fill="#3D3936" d="M499.866,101.385c-0.122,0-0.244-0.098-0.244-0.244s0.098-0.244,0.244-0.244
		c0.147,0,0.244,0.098,0.244,0.244S499.988,101.385,499.866,101.385z M500.843,101.385c-0.122,0-0.244-0.098-0.244-0.244
		s0.098-0.244,0.244-0.244c0.122,0,0.244,0.098,0.244,0.244S500.965,101.385,500.843,101.385z"/>
	<path fill="#3D3936" d="M500.086,100.701c-0.513,0-1.002-0.244-1.002-0.806c0-0.562,0.513-0.806,1.002-0.806
		c0.513,0,1.002,0.244,1.002,0.806C501.087,100.456,500.574,100.701,500.086,100.701z M500.086,99.503
		c-0.367,0-0.635,0.098-0.635,0.391c0,0.269,0.269,0.391,0.635,0.391c0.367,0,0.635-0.098,0.635-0.391
		C500.721,99.625,500.428,99.503,500.086,99.503z"/>
	<path fill="#3D3936" d="M500.086,98.892c-0.513,0-1.002-0.244-1.002-0.806c0-0.562,0.513-0.806,1.002-0.806
		c0.513,0,1.002,0.244,1.002,0.806C501.087,98.648,500.574,98.892,500.086,98.892z M500.086,97.695
		c-0.367,0-0.635,0.098-0.635,0.391c0,0.269,0.269,0.391,0.635,0.391c0.367,0,0.635-0.098,0.635-0.391
		S500.428,97.695,500.086,97.695z"/>
</g>
<g>
	<path fill="#3D3936" d="M501.063,79.49h-1.417l0.342,0.318l-0.244,0.244l-0.611-0.611v-0.367h1.955v0.415H501.063z"/>
	<path fill="#3D3936" d="M501.063,77.877h-0.415v0.929h-0.318l-1.222-0.782v-0.586h1.173v-0.244h0.367v0.244h0.415V77.877z
		 M499.475,77.877l0.806,0.538v-0.538H499.475z"/>
	<path fill="#3D3936" d="M499.866,76.973c-0.122,0-0.244-0.098-0.244-0.244s0.098-0.244,0.244-0.244
		c0.147,0,0.244,0.098,0.244,0.244S499.988,76.973,499.866,76.973z M500.843,76.973c-0.122,0-0.244-0.098-0.244-0.244
		s0.098-0.244,0.244-0.244c0.122,0,0.244,0.098,0.244,0.244S500.965,76.973,500.843,76.973z"/>
	<path fill="#3D3936" d="M500.086,76.313c-0.513,0-1.002-0.244-1.002-0.806c0-0.562,0.513-0.806,1.002-0.806
		c0.513,0,1.002,0.244,1.002,0.806C501.087,76.045,500.574,76.313,500.086,76.313z M500.086,75.116
		c-0.367,0-0.635,0.098-0.635,0.391c0,0.269,0.269,0.391,0.635,0.391c0.367,0,0.635-0.098,0.635-0.391
		C500.721,75.214,500.428,75.116,500.086,75.116z"/>
	<path fill="#3D3936" d="M500.086,74.481c-0.513,0-1.002-0.244-1.002-0.806c0-0.562,0.513-0.806,1.002-0.806
		c0.513,0,1.002,0.244,1.002,0.806C501.087,74.236,500.574,74.481,500.086,74.481z M500.086,73.283
		c-0.367,0-0.635,0.098-0.635,0.391c0,0.269,0.269,0.391,0.635,0.391c0.367,0,0.635-0.098,0.635-0.391
		C500.721,73.406,500.428,73.283,500.086,73.283z"/>
</g>
<g>
	<path fill="#3D3936" d="M501.063,55.054h-1.417l0.342,0.318l-0.244,0.244l-0.611-0.611v-0.367h1.955v0.415H501.063z"/>
	<path fill="#3D3936" d="M500.77,54.37l-0.269-0.22c0.147-0.122,0.22-0.342,0.22-0.538c0-0.244-0.098-0.367-0.244-0.367
		s-0.22,0.122-0.22,0.391c0,0.073,0,0.22,0,0.244h-0.391c0-0.024,0-0.171,0-0.244c0-0.22-0.073-0.367-0.22-0.367
		c-0.147,0-0.22,0.171-0.22,0.367s0.073,0.367,0.195,0.489l-0.269,0.22c-0.171-0.147-0.318-0.415-0.318-0.758
		c0-0.464,0.195-0.733,0.538-0.733c0.244,0,0.415,0.22,0.44,0.44c0.024-0.195,0.171-0.464,0.464-0.464
		c0.342,0,0.586,0.293,0.586,0.782C501.087,53.955,500.941,54.223,500.77,54.37z"/>
	<path fill="#3D3936" d="M499.866,52.586c-0.122,0-0.244-0.098-0.244-0.244s0.098-0.244,0.244-0.244
		c0.147,0,0.244,0.098,0.244,0.244S499.988,52.586,499.866,52.586z M500.843,52.586c-0.122,0-0.244-0.098-0.244-0.244
		s0.098-0.244,0.244-0.244c0.122,0,0.244,0.098,0.244,0.244S500.965,52.586,500.843,52.586z"/>
	<path fill="#3D3936" d="M500.086,51.902c-0.513,0-1.002-0.244-1.002-0.806s0.513-0.806,1.002-0.806
		c0.513,0,1.002,0.244,1.002,0.806S500.574,51.902,500.086,51.902z M500.086,50.705c-0.367,0-0.635,0.098-0.635,0.391
		c0,0.269,0.269,0.391,0.635,0.391c0.367,0,0.635-0.098,0.635-0.391S500.428,50.705,500.086,50.705z"/>
	<path fill="#3D3936" d="M500.086,50.069c-0.513,0-1.002-0.244-1.002-0.806s0.513-0.806,1.002-0.806
		c0.513,0,1.002,0.244,1.002,0.806S500.574,50.069,500.086,50.069z M500.086,48.896c-0.367,0-0.635,0.098-0.635,0.391
		c0,0.269,0.269,0.391,0.635,0.391c0.367,0,0.635-0.098,0.635-0.391S500.428,48.896,500.086,48.896z"/>
</g>
<g>
	<path fill="#3D3936" d="M501.063,30.618h-1.417l0.342,0.318l-0.244,0.244l-0.611-0.611v-0.367h1.955v0.415H501.063z"/>
	<path fill="#3D3936" d="M501.063,29.861h-0.342c-0.586-0.806-0.782-1.026-1.026-1.026c-0.171,0-0.244,0.147-0.244,0.318
		c0,0.22,0.098,0.391,0.22,0.513l-0.269,0.244c-0.22-0.195-0.318-0.489-0.318-0.758c0-0.415,0.244-0.758,0.635-0.758
		c0.342,0,0.635,0.269,1.002,0.782V28.37h0.367v1.491H501.063z"/>
	<path fill="#3D3936" d="M499.866,28.101c-0.122,0-0.244-0.098-0.244-0.244c0-0.147,0.098-0.244,0.244-0.244
		c0.147,0,0.244,0.098,0.244,0.244C500.11,28.004,499.988,28.101,499.866,28.101z M500.843,28.101c-0.122,0-0.244-0.098-0.244-0.244
		c0-0.147,0.098-0.244,0.244-0.244c0.122,0,0.244,0.098,0.244,0.244C501.087,28.004,500.965,28.101,500.843,28.101z"/>
	<path fill="#3D3936" d="M500.086,27.417c-0.513,0-1.002-0.244-1.002-0.806s0.513-0.806,1.002-0.806
		c0.513,0,1.002,0.244,1.002,0.806S500.574,27.417,500.086,27.417z M500.086,26.22c-0.367,0-0.635,0.098-0.635,0.391
		c0,0.269,0.269,0.391,0.635,0.391c0.367,0,0.635-0.098,0.635-0.391C500.721,26.342,500.428,26.22,500.086,26.22z"/>
	<path fill="#3D3936" d="M500.086,25.609c-0.513,0-1.002-0.244-1.002-0.806s0.513-0.806,1.002-0.806
		c0.513,0,1.002,0.244,1.002,0.806S500.574,25.609,500.086,25.609z M500.086,24.412c-0.367,0-0.635,0.098-0.635,0.391
		c0,0.269,0.269,0.391,0.635,0.391c0.367,0,0.635-0.098,0.635-0.391S500.428,24.412,500.086,24.412z"/>
</g>
<g>
	<path fill="#3D3936" d="M501.063,6.182h-1.417l0.342,0.318l-0.244,0.244l-0.611-0.611V5.767h1.955v0.415H501.063z"/>
	<path fill="#3D3936" d="M501.063,4.96h-1.417l0.342,0.318l-0.244,0.244l-0.611-0.611V4.545h1.955V4.96H501.063z"/>
	<path fill="#3D3936" d="M499.866,4.227c-0.122,0-0.244-0.098-0.244-0.244c0-0.122,0.098-0.244,0.244-0.244
		c0.147,0,0.244,0.098,0.244,0.244C500.086,4.105,499.988,4.227,499.866,4.227z M500.843,4.227c-0.122,0-0.244-0.098-0.244-0.244
		c0-0.122,0.098-0.244,0.244-0.244c0.122,0,0.244,0.098,0.244,0.244C501.087,4.105,500.965,4.227,500.843,4.227z"/>
	<path fill="#3D3936" d="M500.086,3.543c-0.513,0-1.002-0.244-1.002-0.806s0.513-0.806,1.002-0.806c0.513,0,1.002,0.244,1.002,0.806
		S500.574,3.543,500.086,3.543z M500.086,2.346c-0.367,0-0.66,0.098-0.66,0.391c0,0.269,0.269,0.391,0.635,0.391
		s0.635-0.098,0.635-0.391C500.721,2.444,500.428,2.346,500.086,2.346z"/>
	<path fill="#3D3936" d="M500.086,1.711c-0.513,0-1.026-0.244-1.026-0.806s0.513-0.806,1.002-0.806c0.513,0,1.002,0.244,1.002,0.806
		C501.087,1.466,500.574,1.711,500.086,1.711z M500.086,0.538c-0.367,0-0.66,0.098-0.66,0.367s0.269,0.391,0.635,0.391
		s0.635-0.098,0.635-0.391C500.721,0.635,500.428,0.538,500.086,0.538z"/>
</g>
</svg>
