<?xml version="1.0" encoding="utf-8"?>
<!-- Generator: Adobe Illustrator 17.1.0, SVG Export Plug-In . SVG Version: 6.00 Build 0)  -->
<!DOCTYPE svg PUBLIC "-//W3C//DTD SVG 1.1//EN" "http://www.w3.org/Graphics/SVG/1.1/DTD/svg11.dtd">
<svg version="1.1" id="Layer_1" xmlns="http://www.w3.org/2000/svg" xmlns:xlink="http://www.w3.org/1999/xlink" x="0px" y="0px"
	 viewBox="0 0 81.4 84.3" enable-background="new 0 0 81.4 84.3" xml:space="preserve">
<g>
	<path fill="#E74652" d="M40.8,0C18.2,0,0,18.9,0,42.1s18.2,42.1,40.8,42.1s40.8-18.9,40.8-42.1C81.5,18.9,63.3,0,40.8,0z M61,32.7
		l0,1.3c0,13.7-10.1,29.5-28.5,29.5c-5.7,0-10.9-1.7-15.4-4.7c0.8,0.1,1.6,0.1,2.4,0.1c4.7,0,9-1.7,12.5-4.4
		c-4.4-0.1-8.1-3.1-9.4-7.2c0.6,0.1,1.2,0.2,1.9,0.2c0.9,0,1.8-0.1,2.6-0.4c-4.6-1-8-5.1-8-10.2v-0.1c1.4,0.8,2.9,1.2,4.5,1.3
		c-2.7-1.9-4.5-5-4.5-8.6c0-1.9,0.5-3.7,1.4-5.2c4.9,6.3,12.3,10.4,20.7,10.8C41,34.4,41,33.6,41,32.8c0-5.7,4.5-10.4,10-10.4
		c2.9,0,5.5,1.3,7.3,3.3c2.3-0.5,4.4-1.3,6.4-2.5c-0.7,2.4-2.3,4.5-4.4,5.7c2-0.2,4-0.8,5.8-1.6C64.7,29.4,63,31.2,61,32.7z"/>
</g>
</svg>
