<?xml version="1.0" encoding="utf-8"?>
<!-- Generator: Adobe Illustrator 17.1.0, SVG Export Plug-In . SVG Version: 6.00 Build 0)  -->
<!DOCTYPE svg PUBLIC "-//W3C//DTD SVG 1.1//EN" "http://www.w3.org/Graphics/SVG/1.1/DTD/svg11.dtd">
<svg version="1.1" id="Layer_1" xmlns="http://www.w3.org/2000/svg" xmlns:xlink="http://www.w3.org/1999/xlink" x="0px" y="0px"
	 viewBox="0 0 188.9 163" enable-background="new 0 0 188.9 163" xml:space="preserve">
<g>
	<g>
		<path fill="#FFFFFF" d="M22.9,140.1c-1.2-1.1-2.7-1.9-4.3-2.5c-1.6-0.6-3.3-0.8-5-0.8c-1.7,0-3.4,0.3-5,0.8
			c-1.6,0.5-3.1,1.4-4.3,2.5c-1.3,1.1-2.3,2.4-3.1,4.1C0.4,145.8,0,147.8,0,150c0,2.2,0.4,4.1,1.2,5.7c0.8,1.6,1.8,3,3.1,4.1
			c1.3,1.1,2.7,1.9,4.3,2.4c3.3,1.1,6.8,1.1,10,0c1.6-0.5,3.1-1.4,4.3-2.4c1.3-1.1,2.3-2.4,3.1-4.1c0.8-1.6,1.2-3.5,1.2-5.7
			c0-2.2-0.4-4.1-1.2-5.7C25.2,142.6,24.2,141.2,22.9,140.1z M17.6,152.8c-0.5,0.8-1.1,1.4-1.8,1.8c-0.7,0.4-1.5,0.6-2.3,0.6
			c-0.8,0-1.6-0.2-2.3-0.6c-0.7-0.4-1.3-1-1.8-1.8c-0.5-0.8-0.7-1.8-0.7-2.9c0-1.2,0.2-2.1,0.7-2.9c0.5-0.8,1.1-1.4,1.8-1.8
			c1.4-0.8,3.2-0.8,4.6,0c0.7,0.4,1.3,1,1.8,1.8c0.5,0.8,0.7,1.8,0.7,2.9C18.3,151.1,18.1,152,17.6,152.8z"/>
		<polygon fill="#FFFFFF" points="55,144.4 60.6,144.4 60.6,162.5 69.4,162.5 69.4,144.4 75.1,144.4 75.1,137.6 55,137.6 		"/>
		<path fill="#FFFFFF" d="M99,140.3c-1.3-1-2.8-1.7-4.5-2.1c-1.7-0.4-3.6-0.6-5.4-0.6H77.4v25H89c1.8,0,3.7-0.2,5.4-0.6
			c1.7-0.4,3.2-1.1,4.5-2c1.3-0.9,2.3-2.2,3.1-3.8c0.8-1.6,1.2-3.6,1.2-6c0-2.4-0.4-4.4-1.2-6C101.3,142.5,100.2,141.2,99,140.3z
			 M94,152.2c-0.2,0.7-0.6,1.3-1,1.9c-0.5,0.6-1,1-1.7,1.3c-0.7,0.3-1.4,0.5-2.3,0.5h-2.8v-11.7H89c0.9,0,1.6,0.2,2.3,0.5
			c0.7,0.3,1.2,0.8,1.7,1.4c0.4,0.5,0.7,1.2,1,1.9c0.2,0.7,0.3,1.4,0.3,2.1C94.3,150.8,94.2,151.5,94,152.2z"/>
		<path fill="#FFFFFF" d="M128.4,140.1c-1.2-1.1-2.7-1.9-4.3-2.5c-1.6-0.6-3.3-0.8-5-0.8c-1.7,0-3.4,0.3-5,0.8
			c-1.6,0.5-3.1,1.4-4.3,2.5c-1.3,1.1-2.3,2.4-3.1,4.1c-0.8,1.6-1.2,3.6-1.2,5.8c0,2.2,0.4,4.1,1.2,5.7c0.8,1.6,1.8,3,3.1,4.1
			c1.3,1.1,2.7,1.9,4.3,2.4c3.3,1.1,6.8,1.1,10,0c1.6-0.5,3.1-1.4,4.3-2.4c1.2-1.1,2.3-2.4,3.1-4.1c0.8-1.6,1.2-3.5,1.2-5.7
			c0-2.2-0.4-4.1-1.2-5.7C130.7,142.6,129.7,141.2,128.4,140.1z M123.1,152.8c-0.5,0.8-1.1,1.4-1.8,1.8c-0.7,0.4-1.5,0.6-2.3,0.6
			c-0.8,0-1.6-0.2-2.3-0.6c-0.7-0.4-1.3-1-1.8-1.8c-0.5-0.8-0.7-1.8-0.7-2.9c0-1.2,0.2-2.1,0.7-2.9c0.5-0.8,1.1-1.4,1.8-1.8
			c1.4-0.8,3.2-0.8,4.6,0c0.7,0.4,1.3,1,1.8,1.8c0.5,0.8,0.7,1.8,0.7,2.9C123.8,151.1,123.6,152,123.1,152.8z"/>
		<path fill="#FFFFFF" d="M158,140.1c-1.3-1.1-2.7-1.9-4.3-2.5c-1.6-0.6-3.3-0.8-5-0.8c-1.7,0-3.4,0.3-5,0.8
			c-1.6,0.5-3.1,1.4-4.3,2.5c-1.2,1.1-2.3,2.4-3.1,4.1c-0.8,1.6-1.2,3.6-1.2,5.8c0,2.2,0.4,4.1,1.2,5.7c0.8,1.6,1.8,3,3.1,4.1
			c1.3,1.1,2.7,1.9,4.3,2.4c3.3,1.1,6.8,1.1,10,0c1.6-0.5,3.1-1.4,4.3-2.4c1.2-1.1,2.3-2.4,3.1-4.1c0.8-1.6,1.2-3.5,1.2-5.7
			c0-2.2-0.4-4.1-1.2-5.7C160.2,142.6,159.2,141.2,158,140.1z M152.6,152.8c-0.5,0.8-1.1,1.4-1.8,1.8c-0.7,0.4-1.5,0.6-2.3,0.6
			c-0.8,0-1.6-0.2-2.3-0.6c-0.7-0.4-1.3-1-1.8-1.8c-0.5-0.8-0.7-1.8-0.7-2.9c0-1.2,0.2-2.1,0.7-2.9c0.4-0.8,1.1-1.4,1.8-1.8
			c1.4-0.8,3.2-0.8,4.6,0c0.7,0.4,1.3,1,1.8,1.8c0.5,0.8,0.7,1.8,0.7,2.9C153.3,151.1,153.1,152,152.6,152.8z"/>
		<path fill="#FFFFFF" d="M183.9,153.7c1.1-0.7,1.9-1.6,2.6-2.7c0.6-1.1,1-2.6,1-4.4c0-1.8-0.3-3.3-1-4.5c-0.7-1.1-1.6-2.1-2.7-2.7
			c-1.1-0.7-2.4-1.2-3.9-1.4c-1.5-0.3-3.1-0.4-4.7-0.4h-10.7v25h8.9v-7h1.9l3.4,7h9.2l-4.5-8.5L183.9,153.7z M177.7,148.5
			c-0.5,0.3-1.2,0.5-2.2,0.5H174h-0.7v-5h2.2c2.8,0,3.2,1.6,3.2,2.5C178.7,147.7,178.1,148.3,177.7,148.5z"/>
		<polygon fill="#FFFFFF" points="22.1,115.6 22.1,109.3 2.4,109.3 2.4,134.3 22.1,134.3 22.1,127.9 11.2,127.9 11.2,124.8 
			21.7,124.8 21.7,118.8 11.2,118.8 11.2,115.6 		"/>
		<polygon fill="#FFFFFF" points="43.2,109.3 38.9,116 34.5,109.3 24.9,109.3 32.7,121.6 24.9,134.3 34.6,134.3 38.9,127.1 
			43.2,134.3 52.9,134.3 45.1,121.6 52.9,109.3 		"/>
		<polygon fill="#FFFFFF" points="55.1,116.1 60.8,116.1 60.8,134.3 69.6,134.3 69.6,116.1 75.2,116.1 75.2,109.3 55.1,109.3 		"/>
		<path fill="#FFFFFF" d="M99.7,122.7c0.6-1.1,1-2.6,1-4.4c0-1.8-0.3-3.3-1-4.5c-0.7-1.1-1.6-2.1-2.7-2.7c-1.1-0.7-2.4-1.2-3.9-1.4
			c-1.5-0.3-3.1-0.4-4.7-0.4H77.8v25h8.9v-7h1.9l3.4,7h9.2l-4.5-8.5l0.6-0.3C98.2,124.7,99.1,123.8,99.7,122.7z M90.9,120.3
			c-0.5,0.3-1.2,0.5-2.2,0.5h-1.4h-0.7v-5h2.1c2.8,0,3.2,1.6,3.2,2.5C91.9,119.5,91.4,120,90.9,120.3z"/>
		<polygon fill="#FFFFFF" points="123.1,127.9 112.2,127.9 112.2,124.8 122.7,124.8 122.7,118.8 112.2,118.8 112.2,115.6 
			123.1,115.6 123.1,109.3 103.4,109.3 103.4,134.3 123.1,134.3 		"/>
		<path fill="#FFFFFF" d="M166.9,109l-10,25.3h9.5l1.1-3.1h9.4l1.2,3.1h9.5v-0.2l-10-25.1H166.9z M169.9,124.6l2.3-6.5l2.3,6.5
			H169.9z"/>
		<polygon fill="#FFFFFF" points="140.5,127.2 146.1,121.2 146.1,134.3 154.7,134.3 154.7,109.3 145.8,109.3 140.2,116 134.6,109.3 
			125.7,109.3 125.7,134.3 134.3,134.3 134.4,121.2 139.9,127.2 		"/>
		<polygon fill="#FFFFFF" points="187.8,109 183.6,109 187.8,119.1 		"/>
		<path fill="#FFFFFF" d="M43.5,138.6c0.1,0.3,0.8,0.3,0.8,0.3s-0.6,0.3-0.7,0.4c-0.1,0.2,0,0.4,0,0.4s0.1,0.5,0.8,1
			c0.8,0.6,1.2,1.8,0.1,2.9c-0.8,0.8-1.2,1.1-1.4,1.5c-0.1,0.2-0.1,0.4,0,0.6c0.2,0.3,0.7,0.3,0.7,0.3s0.3,0,0.5-0.2
			c0.3-0.3,0.2-1,0.2-1s0.3,0.5,0.6,0.7c0.5,0.3,1.5-0.2,1.5-0.2s-0.2,0.2-0.3,0.5c-0.1,0.2-0.3,0.4-0.2,0.7
			c0.1,0.5,1.4,0.7,1.4,0.7s-1.7,0.3-1.2,1c0.2,0.3,0.7,0.5,0.7,0.5c-0.4-0.1-1-0.1-1.1,0.5c0,0.3,0.1,0.7,0.1,0.7s-0.6-0.4-0.9-0.4
			c-0.2,0-0.3,0-0.2,0.3c0.1,0.2,0.9,1.2,0.5,2.9c-0.1,0.5-0.3,1-1.1,1.9c-0.6,0.8-1.9,1.7-3.7,1.7c-2.2,0-2.9-1.3-2.9-1.3
			s-0.3-0.5-0.4-1.1c-0.1-0.6,0-1,0.1-1.4c0.2-0.4,0.5-0.8,0.9-0.9c0.5-0.2,0.9-0.1,1.1,0c0.8,0.2,1.2,0.8,1.2,1.2
			c0,0.5-0.1,0.9-0.1,0.9H40c0,0-0.2-1.3-1.4-1.2c-0.6,0-0.7,0.6-0.7,0.6s-0.1,0.4,0.1,1c0.2,0.5,0.6,0.7,1,0.8c0.4,0.1,1,0.1,1.4,0
			c1.2-0.4,1.5-1.6,1.5-1.6s0.6-1.8-0.3-3c-0.4-0.7-1.7-1.4-1.7-1.4s-1.4-0.7-1.8-1c-0.7-0.6-0.9-1.1-0.9-1.7c0-0.5,0-0.9,0.1-1.3
			c0.2-0.8,1.1-1.6,1.1-1.6s0.6-0.6,2.3-1.5c0.5-0.2,0.4-0.5,0.3-0.7c-0.1-0.2-0.3-0.5-0.3-0.5s-0.4,0.7-0.8,0.8
			c-0.5,0.1-1.3,0.1-1.6,0.1c-0.2,0-0.7,0.1-0.8,0.2c-0.2,0.2-0.3,0.3-0.6,0.4c-0.2,0.1-0.5,0-0.6,0c-0.1,0-0.2-0.1-0.3-0.2
			c0-0.2,0-0.4,0.1-0.6c0.1-0.1,0.4-0.4,0.7-0.5c0.3-0.2,0.9-0.8,0.9-0.8s0.3-0.3,0.6-1.1c0.2-0.5,0.3-1,0.4-1.3h-0.3h-8.9v16.2
			c0,1.6,0.3,2.9,1,4.1c0.6,1.2,1.5,2.1,2.6,2.9c1.1,0.8,2.3,1.4,3.6,1.7c2.8,0.8,5.8,0.8,8.6,0c1.4-0.4,2.6-1,3.7-1.7
			c1-0.8,1.9-1.7,2.5-2.9c0.6-1.1,0.9-2.5,0.9-4.1v-16.2h-8.7C43.7,137.9,43.5,138.3,43.5,138.6z"/>
	</g>
	<g>
		<path fill="#FFFFFF" d="M105.8,83.1c16,16,40.4,18.5,59,7.6c0,0,0,0,0,0c6.3-3.4,11.6-4.5,15.5-2c-2.5-3.8-1.4-9.1,2-15.5
			c0,0,0,0,0,0c10.9-18.6,8.4-43-7.6-59c-19-19-49.8-19-68.8,0C86.8,33.3,86.8,64.1,105.8,83.1z M125.7,34.2c8-8,21-8,29,0
			c8,8,8,21,0,29c-8,8-21,8-29,0C117.7,55.2,117.7,42.2,125.7,34.2z"/>
		<path fill="#FFFFFF" d="M134.7,43.6c0.2,0.1,0.5,0.1,0.8,0c0.3-0.1,0.5-0.3,0.7-0.5c0.2-0.2,0.7-0.2,1-0.2c0.3,0,1.4,0,1.9-0.1
			c0.5-0.1,1-1,1-1s0.3,0.4,0.4,0.6c0.1,0.2,0.2,0.5-0.4,0.8c-2.1,1.1-2.9,1.9-2.9,1.9s-1.1,1-1.4,2c-0.1,0.5-0.2,1-0.1,1.6
			c0.1,0.7,0.3,1.4,1.1,2.1c0.4,0.3,2.2,1.2,2.2,1.2s1.6,0.9,2.1,1.7c1.1,1.5,0.4,3.8,0.4,3.8s-0.4,1.5-1.8,2
			c-0.5,0.2-1.3,0.1-1.8,0c-0.5-0.2-0.9-0.4-1.2-1.1c-0.3-0.7-0.1-1.2-0.1-1.2s0.1-0.8,0.8-0.8c1.5-0.1,1.7,1.5,1.7,1.5h0.3
			c0,0,0.1-0.5,0.1-1.1c0-0.4-0.5-1.2-1.5-1.5c-0.3-0.1-0.8-0.1-1.4,0.1c-0.6,0.2-1,0.7-1.1,1.1c-0.2,0.5-0.2,1-0.1,1.7
			c0.1,0.7,0.5,1.3,0.5,1.3s0.9,1.6,3.6,1.6c2.3,0,3.9-1.2,4.6-2.1c0.9-1.1,1.1-1.7,1.3-2.4c0.5-2.1-0.5-3.4-0.6-3.6
			c-0.1-0.3,0.1-0.3,0.3-0.3c0.3,0,1.1,0.5,1.1,0.5s-0.1-0.4-0.1-0.8c0-0.7,0.8-0.7,1.3-0.6c0,0-0.6-0.2-0.9-0.6
			c-0.6-0.9,1.6-1.3,1.6-1.3s-1.6-0.2-1.7-0.9c-0.1-0.4,0.1-0.6,0.3-0.9c0.2-0.3,0.4-0.6,0.4-0.6s-1.2,0.5-1.8,0.2
			c-0.4-0.2-0.8-0.8-0.8-0.8s0.1,0.8-0.2,1.2c-0.2,0.2-0.6,0.2-0.6,0.2s-0.6,0.1-0.8-0.3c-0.1-0.2-0.1-0.4,0-0.7
			c0.3-0.5,0.8-0.9,1.8-1.9c1.4-1.4,0.9-2.9-0.1-3.6c-0.8-0.7-0.9-1.3-0.9-1.3s-0.1-0.3,0-0.6c0.1-0.2,0.9-0.5,0.9-0.5s-0.9,0-1-0.4
			c-0.1-0.6,0.7-1.8,0.7-1.8s-0.9,0.4-1.2,0.4c-0.9,0-0.1-1.6-0.1-1.6s-1,0.7-1.7,0.6c-0.7-0.1-0.8-1.1-0.8-1.1s0,0.8-0.3,0.9
			c-0.2,0.1-0.8,0-0.8,0s0.5,0.7,0.1,0.8c-0.1,0.1-0.7-0.1-0.9-0.1c-0.1,0-0.3,0-0.6,0.3c-0.3,0.3-0.5,1.1-0.8,2
			c-0.3,0.9-0.7,1.3-0.7,1.3s-0.8,0.8-1.1,1c-0.3,0.2-0.7,0.5-0.8,0.6c-0.2,0.2-0.2,0.5-0.2,0.7C134.5,43.5,134.6,43.5,134.7,43.6z"
			/>
		<polygon fill="#FFFFFF" points="38.4,95.7 51.9,75.5 65.5,95.7 101.5,95.7 69.9,48.7 101.5,1.7 65.5,1.7 51.9,21.9 38.4,1.7 
			2.4,1.7 33.9,48.7 2.4,95.7 		"/>
	</g>
</g>
</svg>
