<?xml version="1.0" encoding="utf-8"?>
<!-- Generator: Adobe Illustrator 17.1.0, SVG Export Plug-In . SVG Version: 6.00 Build 0)  -->
<!DOCTYPE svg PUBLIC "-//W3C//DTD SVG 1.1//EN" "http://www.w3.org/Graphics/SVG/1.1/DTD/svg11.dtd">
<svg version="1.1" id="Layer_1" xmlns="http://www.w3.org/2000/svg" xmlns:xlink="http://www.w3.org/1999/xlink" x="0px" y="0px"
	 viewBox="0 0 198 197.4" enable-background="new 0 0 198 197.4" xml:space="preserve">
<path fill="#3D3533" d="M0,100.3c0.1,9.8,1.7,19.3,4.5,28.2c0,0,0-0.1,0-0.1c0.6,1.6,1,2.6,1.4,3.5c11.5,29.8,32.2,50.6,62.5,60.4
	c27,8.8,53.4,5.9,78.6-7.8c4.6-2.5,9.5-4.6,14.5-6.3c5.5-1.9,11.3-2.2,16.9,0.4c0.1-0.3,0.3-0.6,0.2-0.8c-2.4-5.5-2.1-11.2-0.2-16.6
	c1.8-5,3.8-9.9,6.3-14.5c11.8-21.5,15-45.5,10.5-67.9h-0.2C189.9,53.6,175.2,32,155,17.8c-0.6-0.4-1.3-0.9-1.9-1.3
	C137.4,6.1,118.7,0,98.5,0c-4.9,0-9.7,0.4-14.4,1.1c-0.4,0.1-0.8,0.1-1.3,0.2c-1.3,0.2-2.7,0.4-4,0.7c-0.2,0-0.3,0.1-0.5,0.1
	C57.9,6.3,39.8,17,26.1,31.8c-6.5,7.3-12.1,15.8-16.8,25.4C2.7,70.6,0.6,85.1,0,99.8C0,100,0,100.1,0,100.3z"/>
<g>
	<path id="MobileMe_3_" fill="#FFFFFF" d="M167.1,112.1c0,15.2-12.3,27.6-27.4,27.6H55c-15.1,0-27.4-12.4-27.4-27.6
		c0-13.7,10-25.2,23.1-27.2c-0.2-1-0.3-2-0.3-3c0-9.7,7.8-17.5,17.4-17.5c4.3,0,8.2,1.5,11.2,4.1c5.4-12.2,12.3-23.4,31.7-23.4
		c23.5,0,34.6,18.3,34.6,37.5c0,0.8,0,1.6-0.1,2.4C157.7,87.6,167.1,98.8,167.1,112.1z"/>
</g>
<g>
	<path fill="#3D3533" d="M101.9,116.7c6.1,6.1,15.3,7,22.4,2.9c0,0,0,0,0,0c2.4-1.3,4.4-1.7,5.9-0.8c-1-1.5-0.5-3.5,0.8-5.9
		c0,0,0,0,0,0c4.1-7.1,3.2-16.3-2.9-22.4c-7.2-7.2-18.9-7.2-26.1,0C94.7,97.8,94.7,109.5,101.9,116.7z M109.4,98.2c3-3,8-3,11,0
		c3,3,3,8,0,11c-3,3-8,3-11,0C106.4,106.1,106.4,101.2,109.4,98.2z"/>
	<path fill="#3D3533" d="M112.9,101.7c0.1,0,0.2,0,0.3,0c0.1,0,0.2-0.1,0.3-0.2c0.1-0.1,0.3-0.1,0.4-0.1c0.1,0,0.5,0,0.7,0
		c0.2,0,0.4-0.4,0.4-0.4s0.1,0.2,0.2,0.2c0,0.1,0.1,0.2-0.1,0.3c-0.8,0.4-1.1,0.7-1.1,0.7s-0.4,0.4-0.5,0.8c0,0.2-0.1,0.4-0.1,0.6
		c0,0.3,0.1,0.5,0.4,0.8c0.2,0.1,0.8,0.5,0.8,0.5s0.6,0.3,0.8,0.7c0.4,0.6,0.2,1.4,0.2,1.4s-0.1,0.6-0.7,0.8c-0.2,0.1-0.5,0-0.7,0
		c-0.2-0.1-0.3-0.2-0.5-0.4c-0.1-0.3,0-0.5,0-0.5s0-0.3,0.3-0.3c0.6,0,0.6,0.6,0.6,0.6h0.1c0,0,0.1-0.2,0-0.4c0-0.2-0.2-0.5-0.6-0.6
		c-0.1,0-0.3-0.1-0.5,0c-0.2,0.1-0.4,0.2-0.4,0.4c-0.1,0.2-0.1,0.4-0.1,0.7c0,0.3,0.2,0.5,0.2,0.5s0.3,0.6,1.4,0.6
		c0.9,0,1.5-0.4,1.8-0.8c0.4-0.4,0.4-0.7,0.5-0.9c0.2-0.8-0.2-1.3-0.2-1.4c-0.1-0.1,0-0.1,0.1-0.1c0.1,0,0.4,0.2,0.4,0.2
		s0-0.2,0-0.3c0-0.3,0.3-0.3,0.5-0.2c0,0-0.2-0.1-0.3-0.2c-0.2-0.3,0.6-0.5,0.6-0.5s-0.6-0.1-0.6-0.3c0-0.1,0-0.2,0.1-0.3
		c0.1-0.1,0.2-0.2,0.2-0.2s-0.5,0.2-0.7,0.1c-0.1-0.1-0.3-0.3-0.3-0.3s0,0.3-0.1,0.5c-0.1,0.1-0.2,0.1-0.2,0.1s-0.2,0-0.3-0.1
		c-0.1-0.1-0.1-0.2,0-0.3c0.1-0.2,0.3-0.3,0.7-0.7c0.5-0.5,0.3-1.1,0-1.4c-0.3-0.3-0.4-0.5-0.4-0.5s-0.1-0.1,0-0.2
		c0-0.1,0.3-0.2,0.3-0.2s-0.3,0-0.4-0.2c-0.1-0.2,0.3-0.7,0.3-0.7s-0.3,0.2-0.5,0.2c-0.4,0,0-0.6,0-0.6s-0.4,0.3-0.7,0.2
		c-0.2-0.1-0.3-0.4-0.3-0.4s0,0.3-0.1,0.3c-0.1,0-0.3,0-0.3,0s0.2,0.3,0.1,0.3c0,0-0.3-0.1-0.4-0.1c0,0-0.1,0-0.2,0.1
		c-0.1,0.1-0.2,0.4-0.3,0.8c-0.1,0.4-0.3,0.5-0.3,0.5s-0.3,0.3-0.4,0.4c-0.1,0.1-0.3,0.2-0.3,0.2c-0.1,0.1-0.1,0.2-0.1,0.3
		C112.8,101.7,112.8,101.7,112.9,101.7z"/>
	<polygon fill="#3D3533" points="76.3,121.5 81.5,113.9 86.6,121.5 100.3,121.5 88.3,103.7 100.3,85.9 86.6,85.9 81.5,93.5 
		76.3,85.9 62.7,85.9 74.6,103.7 62.7,121.5 	"/>
</g>
</svg>
