<?xml version="1.0" encoding="utf-8"?>
<!-- Generator: Adobe Illustrator 17.1.0, SVG Export Plug-In . SVG Version: 6.00 Build 0)  -->
<!DOCTYPE svg PUBLIC "-//W3C//DTD SVG 1.1//EN" "http://www.w3.org/Graphics/SVG/1.1/DTD/svg11.dtd">
<svg version="1.1" id="Layer_1" xmlns="http://www.w3.org/2000/svg" xmlns:xlink="http://www.w3.org/1999/xlink" x="0px" y="0px"
	 viewBox="0 0 83.3 83.3" enable-background="new 0 0 83.3 83.3" xml:space="preserve">
<g>
	<g>
		<polygon fill="#9260A0" points="21.9,44.7 25.2,44.7 25.2,62.6 28.3,62.6 28.3,44.7 31.7,44.7 31.7,41.8 21.9,41.8 		"/>
		<path fill="#9260A0" d="M48.3,46.9c-1,0-2,0.6-2.9,1.7v-6.8h-2.8v20.8h2.8v-1.5c0.9,1.2,1.9,1.7,2.9,1.7c1.1,0,1.9-0.6,2.2-1.7
			c0.2-0.7,0.3-1.7,0.3-3.1v-6.2c0-1.5-0.1-2.5-0.3-3.1C50.2,47.5,49.4,46.9,48.3,46.9z M48,58.2c0,1.4-0.4,2.1-1.2,2.1
			c-0.5,0-0.9-0.2-1.4-0.7v-9.4c0.5-0.5,0.9-0.7,1.4-0.7c0.8,0,1.2,0.7,1.2,2.1V58.2z"/>
		<path fill="#9260A0" d="M37.3,58.9c-0.6,0.9-1.2,1.3-1.8,1.3c-0.4,0-0.6-0.2-0.7-0.7c0-0.1,0-0.4,0-1.1V47.1h-2.8v12.3
			c0,1.1,0.1,1.8,0.2,2.3c0.3,0.8,0.9,1.2,1.8,1.2c1,0,2.1-0.6,3.2-1.9v1.7h2.8V47.1h-2.8V58.9z"/>
		<path fill="#9260A0" d="M39.7,32.8c0.9,0,1.4-0.7,1.4-2.2V24c0-1.4-0.4-2.2-1.4-2.2c-0.9,0-1.4,0.7-1.4,2.2v6.6
			C38.4,32,38.8,32.8,39.7,32.8z"/>
		<path fill="#9260A0" d="M41.6,0C18.6,0,0,18.6,0,41.6s18.6,41.6,41.6,41.6s41.6-18.6,41.6-41.6S64.6,0,41.6,0z M46.3,19.5h2.8V31
			c0,0.7,0,1,0,1.1c0.1,0.4,0.3,0.7,0.7,0.7c0.6,0,1.2-0.4,1.8-1.3v-12h2.8v15.7h-2.8v-1.7c-1.1,1.3-2.2,1.9-3.2,1.9
			c-0.9,0-1.5-0.4-1.8-1.2c-0.2-0.5-0.3-1.2-0.3-2.3V19.5L46.3,19.5z M35.6,24.6c0-1.7,0.3-2.9,0.9-3.7c0.8-1.1,1.9-1.6,3.3-1.6
			c1.4,0,2.5,0.5,3.3,1.6c0.6,0.8,0.9,2,0.9,3.7v5.5c0,1.7-0.3,2.9-0.9,3.7c-0.8,1.1-1.9,1.6-3.3,1.6c-1.4,0-2.5-0.5-3.3-1.6
			c-0.6-0.8-0.9-2-0.9-3.7V24.6z M28,14.1l2.2,8.3l2.1-8.3h3.2l-3.8,12.5v8.5h-3.1v-8.5c-0.3-1.5-0.9-3.7-1.9-6.6
			c-0.7-2-1.4-3.9-2-5.9L28,14.1z M64.1,64c-0.6,2.5-2.6,4.3-5,4.6c-5.8,0.6-11.6,0.6-17.4,0.6c-5.8,0-11.6,0-17.4-0.6
			c-2.4-0.3-4.5-2.1-5-4.6c-0.8-3.5-0.8-7.4-0.8-11c0-3.6,0-7.5,0.8-11c0.6-2.5,2.6-4.3,5-4.6c5.8-0.6,11.6-0.6,17.4-0.6
			c5.8,0,11.6,0,17.4,0.6c2.4,0.3,4.5,2.1,5,4.6c0.8,3.5,0.8,7.4,0.8,11C64.9,56.6,64.9,60.4,64.1,64z"/>
		<path fill="#9260A0" d="M57.2,46.9c-1.4,0-2.6,0.5-3.4,1.6c-0.6,0.8-0.9,2-0.9,3.7v5.4c0,1.6,0.3,2.9,0.9,3.6
			c0.8,1.1,1.9,1.6,3.4,1.6c1.5,0,2.6-0.6,3.4-1.7c0.3-0.5,0.6-1.1,0.7-1.7c0-0.3,0.1-0.9,0.1-1.8v-0.4h-2.9c0,1.1,0,1.7-0.1,1.9
			c-0.2,0.8-0.6,1.1-1.3,1.1c-1,0-1.4-0.7-1.4-2.1v-2.7h5.6v-3.2c0-1.7-0.3-2.9-0.9-3.7C59.8,47.4,58.6,46.9,57.2,46.9z M58.6,53
			h-2.8v-1.4c0-1.4,0.5-2.1,1.4-2.1c0.9,0,1.4,0.7,1.4,2.1V53z"/>
	</g>
</g>
</svg>
