<?xml version="1.0" encoding="utf-8"?>
<!-- Generator: Adobe Illustrator 17.1.0, SVG Export Plug-In . SVG Version: 6.00 Build 0)  -->
<!DOCTYPE svg PUBLIC "-//W3C//DTD SVG 1.1//EN" "http://www.w3.org/Graphics/SVG/1.1/DTD/svg11.dtd">
<svg version="1.1" id="Layer_1" xmlns="http://www.w3.org/2000/svg" xmlns:xlink="http://www.w3.org/1999/xlink" x="0px" y="0px"
	 viewBox="0 0 179.2 179.2" enable-background="new 0 0 179.2 179.2" xml:space="preserve">
<g>
	<path fill="#9261A0" d="M167.6,133.6c12.4-22.8,15-46.8,7.1-71.4c-8.9-27.5-27.8-46.3-54.9-56.8c-0.9-0.3-1.8-0.7-3.2-1.3
		c0,0,0.1,0,0.1,0C108.6,1.5,100,0.1,91.1,0c-0.1,0-0.3,0-0.4,0C77.3,0.5,64.1,2.4,52,8.4c-8.8,4.3-16.5,9.4-23.1,15.3
		C15.4,36.2,5.7,52.6,1.9,71.2c0,0.1-0.1,0.3-0.1,0.4c-0.2,1.2-0.5,2.4-0.6,3.6C1.1,75.6,1,76,1,76.4c-0.6,4.3-1,8.6-1,13.1
		c0,18.3,5.5,35.3,15,49.5c0.4,0.6,0.8,1.2,1.2,1.8c12.9,18.4,32.5,31.7,55.3,36.5v0.2c20.4,4.1,42.2,1.2,61.7-9.5
		c4.2-2.3,8.7-4.2,13.2-5.8c5-1.7,10.1-2.1,15.1,0.1c0.2,0.1,0.4-0.1,0.8-0.2c-2.4-5.1-2.1-10.3-0.4-15.4
		C163.4,142.2,165.3,137.8,167.6,133.6"/>
</g>
<line fill="#FFFFFF" stroke="#FFFFFF" stroke-width="3" x1="45.7" y1="44.1" x2="134.8" y2="44.1"/>
<line fill="#FFFFFF" stroke="#FFFFFF" stroke-width="3" x1="45.7" y1="53.1" x2="134.8" y2="53.1"/>
<line fill="#FFFFFF" stroke="#FFFFFF" stroke-width="3" x1="45.7" y1="62.1" x2="134.8" y2="62.1"/>
<line fill="#FFFFFF" stroke="#FFFFFF" stroke-width="3" x1="45.7" y1="71" x2="134.8" y2="71"/>
<line fill="#FFFFFF" stroke="#FFFFFF" stroke-width="3" x1="45.7" y1="80" x2="134.8" y2="80"/>
<line fill="#FFFFFF" stroke="#FFFFFF" stroke-width="3" x1="45.7" y1="88.9" x2="134.8" y2="88.9"/>
<line fill="#FFFFFF" stroke="#FFFFFF" stroke-width="3" x1="45.7" y1="97.9" x2="134.8" y2="97.9"/>
<line fill="#FFFFFF" stroke="#FFFFFF" stroke-width="3" x1="45.7" y1="106.9" x2="134.8" y2="106.9"/>
<line fill="#FFFFFF" stroke="#FFFFFF" stroke-width="3" x1="45.7" y1="115.8" x2="134.8" y2="115.8"/>
<line fill="#FFFFFF" stroke="#FFFFFF" stroke-width="3" x1="45.7" y1="124.8" x2="134.8" y2="124.8"/>
<line fill="#FFFFFF" stroke="#FFFFFF" stroke-width="3" x1="46" y1="132.7" x2="135.1" y2="132.7"/>
</svg>
