<?xml version="1.0" encoding="utf-8"?>
<!-- Generator: Adobe Illustrator 17.1.0, SVG Export Plug-In . SVG Version: 6.00 Build 0)  -->
<!DOCTYPE svg PUBLIC "-//W3C//DTD SVG 1.1//EN" "http://www.w3.org/Graphics/SVG/1.1/DTD/svg11.dtd">
<svg version="1.1" id="Layer_1" xmlns="http://www.w3.org/2000/svg" xmlns:xlink="http://www.w3.org/1999/xlink" x="0px" y="0px"
	 viewBox="0 0 198 197.4" enable-background="new 0 0 198 197.4" xml:space="preserve">
<path fill="#4CB8D6" d="M184.5,146.4c11.8-21.5,15-45.4,10.5-67.8h-0.2c-5.2-25.1-19.8-46.7-40.1-60.8c-0.6-0.4-1.3-0.9-1.9-1.3
	C137.2,6.1,118.5,0,98.4,0C93.5,0,88.7,0.4,84,1.1c-0.4,0.1-0.8,0.1-1.3,0.2c-1.3,0.2-2.7,0.4-4,0.7c-0.2,0-0.3,0.1-0.5,0.1
	C57.8,6.3,39.7,16.9,26.1,31.7C19.6,39,14,47.5,9.3,57.1C2.7,70.4,0.6,84.9,0,99.6c0,0.2,0,0.3,0,0.5c0.1,9.8,1.7,19.2,4.5,28.1
	c0,0,0-0.1,0-0.1c0.6,1.6,1,2.5,1.4,3.5c11.5,29.8,32.2,50.5,62.4,60.3c26.9,8.7,53.3,5.9,78.4-7.8c4.6-2.5,9.5-4.6,14.5-6.3
	c5.5-1.9,11.3-2.2,16.9,0.4c0.1-0.3,0.3-0.6,0.2-0.8c-2.4-5.5-2.1-11.2-0.2-16.6C179.9,155.9,182,151,184.5,146.4z M143.8,103.8
	l-44,49.1L52.8,101l0.2-0.1c-4.7-5.3-7.6-12.2-7.6-19.8c0-16.4,13.3-29.7,29.7-29.7c10.4,0,19.4,5.3,24.8,13.3
	c5.3-8,14.4-13.3,24.8-13.3c16.4,0,29.7,13.3,29.7,29.7C154.3,90.2,150.2,98.4,143.8,103.8z"/>
</svg>
