<?xml version="1.0" encoding="utf-8"?>
<!-- Generator: Adobe Illustrator 17.1.0, SVG Export Plug-In . SVG Version: 6.00 Build 0)  -->
<!DOCTYPE svg PUBLIC "-//W3C//DTD SVG 1.1//EN" "http://www.w3.org/Graphics/SVG/1.1/DTD/svg11.dtd">
<svg version="1.1" id="Layer_1" xmlns="http://www.w3.org/2000/svg" xmlns:xlink="http://www.w3.org/1999/xlink" x="0px" y="0px"
	 viewBox="0 0 179.2 179.2" enable-background="new 0 0 179.2 179.2" xml:space="preserve">
<g>
	<path fill="#F8DD3D" d="M0,91.1c0.1,8.9,1.5,17.5,4.1,25.6c0,0,0-0.1,0-0.1c0.6,1.4,0.9,2.3,1.3,3.2c10.5,27.1,29.3,45.9,56.8,54.9
		c24.5,8,48.5,5.3,71.4-7.1c4.2-2.3,8.6-4.2,13.1-5.7c5-1.8,10.2-2,15.4,0.4c0.1-0.3,0.2-0.6,0.2-0.8c-2.2-5-1.9-10.1-0.1-15.1
		c1.6-4.5,3.5-9,5.8-13.2c10.7-19.5,13.7-41.3,9.5-61.7h-0.2c-4.7-22.8-18-42.5-36.4-55.3c-0.6-0.4-1.2-0.8-1.8-1.2
		C124.8,5.5,107.8,0,89.5,0c-4.5,0-8.8,0.3-13.1,1C76,1,75.6,1.1,75.3,1.1c-1.2,0.2-2.4,0.4-3.6,0.6c-0.1,0-0.3,0.1-0.4,0.1
		c-18.6,3.9-35.1,13.5-47.5,27c-5.9,6.6-11,14.3-15.3,23.1C2.4,64.1,0.5,77.3,0,90.7C0,90.8,0,90.9,0,91.1z"/>
	<path fill="#FFFFFF" d="M50.3,90.5l35.9,39.6H93l33.3-37.2c5.4-4.6,8.8-11.4,8.8-19c0-13.7-11.1-24.8-24.8-24.8
		c-8.6,0-16.2,4.4-20.7,11.1c-4.4-6.7-12-11.1-20.7-11.1c-13.7,0-24.8,11.1-24.8,24.8c0,6.4,2.4,12.1,6.3,16.5L50.3,90.5z"/>
</g>
</svg>
