<?xml version="1.0" encoding="utf-8"?>
<!-- Generator: Adobe Illustrator 17.1.0, SVG Export Plug-In . SVG Version: 6.00 Build 0)  -->
<!DOCTYPE svg PUBLIC "-//W3C//DTD SVG 1.1//EN" "http://www.w3.org/Graphics/SVG/1.1/DTD/svg11.dtd">
<svg version="1.1" id="Layer_1" xmlns="http://www.w3.org/2000/svg" xmlns:xlink="http://www.w3.org/1999/xlink" x="0px" y="0px"
	 viewBox="0 0 198 197.4" enable-background="new 0 0 198 197.4" xml:space="preserve">
<g>
	<path fill="#9260A0" d="M101.7,56.6C77,56.6,57,76.7,57,101.4c0,24.7,20.1,44.7,44.7,44.7c24.7,0,44.7-20.1,44.7-44.7
		C146.5,76.7,126.4,56.6,101.7,56.6z M123.3,83.5l-15.2,23.5c-0.2,0.3-0.5,0.6-0.8,0.8l-23.5,15.2c-0.4,0.3-0.9,0.4-1.5,0.4
		c-0.7,0-1.4-0.3-1.9-0.8c-0.9-0.9-1-2.3-0.4-3.3l15.2-23.5c0.2-0.3,0.5-0.6,0.8-0.8l23.5-15.2c0.4-0.3,0.9-0.4,1.5-0.4
		c0.7,0,1.4,0.3,1.9,0.8C123.8,81,124,82.4,123.3,83.5z"/>
	<circle fill="#9260A0" cx="101.7" cy="101.4" r="4.2"/>
	<path fill="#9260A0" d="M185.9,148.2c13.7-25.3,16.7-52,7.8-79.1c-9.9-30.5-30.8-51.4-60.9-63c-1-0.4-2-0.8-3.6-1.4
		c0,0,0.1,0,0.1,0c-9-2.8-18.5-4.4-28.4-4.5c-0.2,0-0.3,0-0.5,0C85.7,0.6,71.1,2.7,57.6,9.4c-9.7,4.8-18.3,10.5-25.6,17
		C17.1,40.1,6.4,58.4,2.1,79c0,0.2-0.1,0.3-0.1,0.5c-0.3,1.3-0.5,2.7-0.7,4c-0.1,0.4-0.1,0.9-0.2,1.3C0.4,89.5,0,94.4,0,99.3
		c0,20.3,6.1,39.2,16.6,54.9c0.4,0.7,0.9,1.3,1.3,2c14.3,20.4,36.1,35.2,61.4,40.4v0.2c22.6,4.6,46.8,1.3,68.4-10.6
		c4.6-2.5,9.6-4.6,14.6-6.4c5.5-1.9,11.2-2.3,16.7,0.2c0.2,0.1,0.5-0.1,0.8-0.2c-2.6-5.7-2.4-11.5-0.4-17.1
		C181.3,157.8,183.4,152.8,185.9,148.2z M101.7,158.3c-31.5,0-57-25.5-57-57c0-31.5,25.5-57,57-57c31.5,0,57,25.5,57,57
		C158.7,132.8,133.2,158.3,101.7,158.3z"/>
</g>
</svg>
