<?xml version="1.0" encoding="utf-8"?>
<!-- Generator: Adobe Illustrator 17.1.0, SVG Export Plug-In . SVG Version: 6.00 Build 0)  -->
<!DOCTYPE svg PUBLIC "-//W3C//DTD SVG 1.1//EN" "http://www.w3.org/Graphics/SVG/1.1/DTD/svg11.dtd">
<svg version="1.1" id="Layer_1" xmlns="http://www.w3.org/2000/svg" xmlns:xlink="http://www.w3.org/1999/xlink" x="0px" y="0px"
	 viewBox="0 0 198 197.4" enable-background="new 0 0 198 197.4" xml:space="preserve">
<path fill="#E74652" d="M185.2,147.1c13.6-25.2,16.5-51.6,7.8-78.6c-9.9-30.3-30.6-51-60.4-62.6c-1-0.4-1.9-0.8-3.5-1.4
	c0,0,0.1,0,0.1,0c-8.9-2.8-18.4-4.4-28.2-4.5c-0.2,0-0.3,0-0.5,0C85.7,0.6,71.2,2.7,57.8,9.3c-9.6,4.8-18.1,10.4-25.4,16.8
	C17.5,39.8,6.9,58,2.6,78.5c0,0.2-0.1,0.3-0.1,0.5c-0.3,1.3-0.5,2.6-0.7,4c-0.1,0.4-0.1,0.8-0.2,1.3c-0.7,4.7-1.1,9.5-1.1,14.4
	c0,20.2,6.1,38.9,16.5,54.5c0.4,0.6,0.9,1.3,1.3,1.9c14.2,20.3,35.8,35,61,40.2v0.2c22.4,4.6,46.4,1.3,68-10.5
	c4.6-2.5,9.5-4.6,14.5-6.3c5.5-1.9,11.1-2.3,16.6,0.2c0.2,0.1,0.5-0.1,0.8-0.2c-2.6-5.6-2.3-11.4-0.4-16.9
	C180.6,156.7,182.7,151.8,185.2,147.1z M157.7,100.7c-1.5,1.5-3.6,2.3-5.6,2.3c-2,0-4.1-0.8-5.6-2.3l-6.7-6.7v51.8
	c0,4.7-3.8,8.4-8.4,8.4h-18v-23.5c0-1.8-1.5-3.3-3.3-3.3H91.6c-1.8,0-3.3,1.5-3.3,3.3v23.5h-18c-4.7,0-8.4-3.8-8.4-8.4V94l-6.7,6.7
	c-3.1,3.1-8.1,3.1-11.2,0c-3.1-3.1-3.1-8.1,0-11.2l49.5-49.5c4.1-4.1,10.7-4.1,14.8,0l49.5,49.5C160.8,92.6,160.8,97.6,157.7,100.7z
	"/>
</svg>
