<?xml version="1.0" encoding="utf-8"?>
<!-- Generator: Adobe Illustrator 17.1.0, SVG Export Plug-In . SVG Version: 6.00 Build 0)  -->
<!DOCTYPE svg PUBLIC "-//W3C//DTD SVG 1.1//EN" "http://www.w3.org/Graphics/SVG/1.1/DTD/svg11.dtd">
<svg version="1.1" id="Layer_1" xmlns="http://www.w3.org/2000/svg" xmlns:xlink="http://www.w3.org/1999/xlink" x="0px" y="0px"
	 viewBox="0 0 45.7 36" enable-background="new 0 0 45.7 36" xml:space="preserve">
<g>
	<g>
		<g>
			<g>
				<g>
					<g>
						<path fill="#010202" d="M12.2,10.4c0-3.3,0.9-6.4,2.4-9.1C15,0.6,14.5-0.2,13.7,0C5.4,2.2-0.7,10.1,0.1,19.3
							C0.8,28,7.8,35.1,16.5,35.9c6,0.6,11.5-1.8,15.2-5.8c0.5-0.5,0.1-1.4-0.7-1.4c-0.2,0-0.4,0-0.6,0
							C20.4,28.7,12.2,20.5,12.2,10.4z"/>
					</g>
				</g>
				<g>
					<path fill="#010202" d="M23.1,0.7l0.9,2.6l2.8,0.1c0.4,0,0.5,0.5,0.2,0.7l-2.2,1.7l0.8,2.7c0.1,0.3-0.3,0.6-0.6,0.4l-2.3-1.6
						l-2.3,1.6c-0.3,0.2-0.7-0.1-0.6-0.4l0.8-2.7l-2.2-1.7c-0.3-0.2-0.1-0.7,0.2-0.7l2.8-0.1l0.9-2.6C22.6,0.4,23,0.4,23.1,0.7z"/>
				</g>
				<g>
					<path fill="#010202" d="M40.3,21.6l0.9,2.5l2.7,0.1c0.4,0,0.5,0.5,0.2,0.7l-2.1,1.6l0.8,2.6c0.1,0.4-0.3,0.7-0.6,0.5L39.9,28
						l-2.2,1.5c-0.3,0.2-0.7-0.1-0.6-0.5l0.8-2.6l-2.1-1.6c-0.3-0.2-0.1-0.7,0.2-0.7l2.7-0.1l0.9-2.5C39.6,21.2,40.1,21.2,40.3,21.6
						z"/>
				</g>
				<g>
					<path fill="#010202" d="M39.9,3.2L41.3,7l4,0.1c0.5,0,0.6,0.6,0.3,0.9l-3.2,2.4l1.2,3.9c0.1,0.4-0.4,0.8-0.7,0.5l-3.3-2.3
						l-3.3,2.3c-0.4,0.3-0.9-0.1-0.7-0.5l1.2-3.9L33.4,8c-0.4-0.3-0.2-0.8,0.3-0.9l4-0.1L39,3.2C39.2,2.8,39.8,2.8,39.9,3.2z"/>
				</g>
			</g>
		</g>
	</g>
	<g>
	</g>
	<g>
	</g>
	<g>
	</g>
	<g>
	</g>
	<g>
	</g>
	<g>
	</g>
	<g>
	</g>
	<g>
	</g>
	<g>
	</g>
	<g>
	</g>
	<g>
	</g>
	<g>
	</g>
	<g>
	</g>
	<g>
	</g>
	<g>
	</g>
</g>
</svg>
