<?xml version="1.0" encoding="utf-8"?>
<!-- Generator: Adobe Illustrator 17.1.0, SVG Export Plug-In . SVG Version: 6.00 Build 0)  -->
<!DOCTYPE svg PUBLIC "-//W3C//DTD SVG 1.1//EN" "http://www.w3.org/Graphics/SVG/1.1/DTD/svg11.dtd">
<svg version="1.1" id="Layer_1" xmlns="http://www.w3.org/2000/svg" xmlns:xlink="http://www.w3.org/1999/xlink" x="0px" y="0px"
	 viewBox="0 0 198 197.4" enable-background="new 0 0 198 197.4" xml:space="preserve">
<path fill="#79B85A" d="M184.8,147.3c13.7-25.2,16.6-51.7,7.8-78.7C182.8,38.2,162,17.5,132.1,6c-1-0.4-1.9-0.8-3.5-1.4
	c0,0,0.1,0,0.1,0c-8.9-2.8-18.4-4.4-28.2-4.5c-0.2,0-0.3,0-0.5,0C85.2,0.6,70.7,2.7,57.3,9.3c-9.7,4.8-18.2,10.4-25.5,16.9
	C17,39.9,6.3,58,2.1,78.6C2,78.7,2,78.9,2,79c-0.3,1.3-0.5,2.7-0.7,4c-0.1,0.4-0.1,0.8-0.2,1.3C0.4,89,0,93.8,0,98.7
	c0,20.2,6.1,38.9,16.5,54.6c0.4,0.7,0.9,1.3,1.3,1.9c14.2,20.3,35.9,35,61,40.2v0.2c22.5,4.6,46.5,1.3,68-10.5
	c4.6-2.5,9.6-4.6,14.5-6.3c5.5-1.9,11.1-2.3,16.6,0.2c0.2,0.1,0.5-0.1,0.8-0.2c-2.6-5.7-2.3-11.4-0.4-17
	C180.2,156.9,182.3,151.9,184.8,147.3z M85.2,58.4h60.9v20.9H85.2V58.4z M146.1,87.4v20.9h-24.7V87.4H146.1z M52.8,58.4H77v20.9
	H52.8V58.4z M52.8,87.4h60.4v20.9H52.8V87.4z M66.2,137.3H52.8v-20.9h13.4V137.3z M146.3,137.3H74.3v-20.9h71.9V137.3z"/>
</svg>
